<svg width="67" height="60" viewBox="0 0 67 60" fill="none" xmlns="http://www.w3.org/2000/svg">
<path fill-rule="evenodd" clip-rule="evenodd" d="M33.5 0C15.3684 0 0.5 14.6986 0.5 32.8302C0.5 42.9598 5.14061 52.0179 12.3983 58.0401C20.1135 59.6848 32.1028 60.9245 39.9127 55.3817C46.1911 50.9258 55.6529 48.2404 63.4138 46.6789C65.3926 42.471 66.5 37.7784 66.5 32.8302C66.5 14.6986 51.6316 0 33.5 0Z" fill="#ECE3FF"/>
<mask id="mask0_15_137" style="mask-type:luminance" maskUnits="userSpaceOnUse" x="0" y="0" width="67" height="60">
<path fill-rule="evenodd" clip-rule="evenodd" d="M33.5 0C15.3684 0 0.5 14.6986 0.5 32.8302C0.5 42.9598 5.14061 52.0179 12.3983 58.0401C20.1135 59.6848 32.1028 60.9245 39.9127 55.3817C46.1911 50.9258 55.6529 48.2404 63.4138 46.6789C65.3926 42.471 66.5 37.7784 66.5 32.8302C66.5 14.6986 51.6316 0 33.5 0Z" fill="white"/>
</mask>
<g mask="url(#mask0_15_137)">
</g>
<path d="M27.3616 15.5307C28.9693 16.5538 29.5539 18.5999 28.677 20.2807M33.5 15.0191C33.2808 13.4845 31.8923 12.3884 30.3577 12.4615C28.75 12.3884 27.3616 13.6307 27.2885 15.2384C27.2885 15.3115 27.2885 15.4576 27.2885 15.5307C26.2654 14.9461 25.0231 15.0191 24 15.6768C22.9039 16.3345 22.3923 17.5768 22.6116 18.8191C21.8077 18.7461 21.0039 18.9653 20.3462 19.4038C18.9577 20.2076 18.5193 22.0345 19.3231 23.423C18.4462 23.7884 17.7885 24.4461 17.4962 25.323C17.0577 26.3461 17.277 27.5153 17.9346 28.3922C16.9846 28.8307 16.2539 29.7807 16.1808 30.8768C15.9616 32.1922 16.6923 33.5076 17.8616 34.0922C16.8385 35.5538 17.2039 37.5999 18.6654 38.623C19.1039 38.9153 19.6885 39.1345 20.2 39.2076C19.9808 40.0115 20.0539 40.8153 20.4193 41.5461C21.0039 42.7884 22.3193 43.5191 23.6346 43.2999C23.6346 43.7384 23.7808 44.1768 23.927 44.6153C24.5846 46.1499 26.3385 46.8076 27.8 46.1499C27.8731 46.0768 28.0193 46.0038 28.0923 45.9307C28.75 47.3191 30.4308 47.9768 31.8923 47.3191C32.6231 46.9538 33.1346 46.223 33.2808 45.4191H33.5V15.0191Z" stroke="#4E2A84" stroke-width="2" stroke-linecap="round" stroke-linejoin="round"/>
<path d="M28.5308 24.5923C27.5808 25.5423 26.0461 25.5423 25.0961 24.5923C24.1461 23.6423 24.1461 22.1077 25.0961 21.1577M25.4615 30.5846C26.6308 29.9269 28.0923 30.2923 28.8231 31.4616C29.4808 32.6308 29.1154 34.0923 27.9461 34.8231H27.8731M17.9346 28.3923C17.9346 28.3923 21.2961 30.5846 22.3192 27.2962M17.7885 34.0923C17.7885 34.0923 21.2961 31.0231 22.9769 35.1885M23.7077 43.2269C25.3154 43.1539 26.5577 41.8385 26.5577 40.2308C26.5577 40.0116 26.5577 39.8654 26.4846 39.6462M33.5 37.9654C33.5 37.9654 31.8923 35.9923 29.8461 37.9654M31.0154 21.6693C31.0154 21.6693 31.6731 23.8616 33.5 23.2039M39.6385 15.5308C39.6385 15.4577 39.6385 15.3116 39.6385 15.2385C39.5654 13.6308 38.1769 12.3885 36.5692 12.4616C35.0346 12.4616 33.7192 13.4846 33.5 15.0193V45.3462H33.5731C33.7923 46.15 34.3038 46.8808 35.0346 47.2462C36.4961 47.8308 38.1769 47.2462 38.8346 45.8577C38.9077 45.9308 39.0538 46.0039 39.1269 46.0769C40.5885 46.7346 42.3423 46.0769 43 44.5423C43.1461 44.1039 43.2923 43.6654 43.2923 43.2269C44.6808 43.4462 45.9961 42.7154 46.5808 41.4731C46.9461 40.7423 47.0192 39.9385 46.8 39.1346C47.3115 39.0616 47.8961 38.8423 48.3346 38.55C49.7961 37.5269 50.1615 35.4808 49.1385 34.0193C50.3077 33.4346 51.0385 32.1193 50.8192 30.8039C50.7461 29.7077 50.0154 28.7577 49.0654 28.3193C49.7231 27.4423 49.9423 26.2731 49.5038 25.25C49.2115 24.3731 48.5538 23.7154 47.6769 23.35C48.4808 21.9616 47.9692 20.1346 46.5808 19.3308C45.9231 18.8923 45.1192 18.6731 44.3154 18.8193C44.5346 17.5769 44.0231 16.3346 42.9269 15.6769C41.9038 15.0193 40.6615 14.9462 39.6385 15.5308ZM39.6385 15.5308C38.0308 16.5539 37.4461 18.6 38.3231 20.2808" stroke="#4E2A84" stroke-width="2" stroke-linecap="round" stroke-linejoin="round"/>
<path d="M38.4692 24.5923C39.4192 25.5423 40.9538 25.5423 41.9038 24.5923C42.8538 23.6423 42.8538 22.1077 41.9038 21.1577M41.5385 30.5846C40.3692 29.9269 38.9077 30.3654 38.25 31.5346C37.5923 32.7039 38.0308 34.1654 39.1269 34.8231M49.0654 28.3923C49.0654 28.3923 45.7038 30.5846 44.6808 27.2962M49.2115 34.0923C49.2115 34.0923 45.7038 31.0231 44.0231 35.1885M43.2923 43.2269C41.6846 43.1539 40.4423 41.8385 40.4423 40.2308C40.4423 40.0116 40.4423 39.8654 40.5154 39.6462M33.5 37.9654C33.5 37.9654 35.1077 35.9923 37.1538 37.9654M35.9846 21.6693C35.9846 21.6693 35.3269 23.8616 33.5 23.2039" stroke="#4E2A84" stroke-width="2" stroke-linecap="round" stroke-linejoin="round"/>
</svg>
