<svg width="97" height="47" viewBox="0 0 97 47" fill="none" xmlns="http://www.w3.org/2000/svg">
<g id="Group 1321314441">
<g id="Group 1321314439">
<g id="Group">
<path id="Vector" d="M21.1545 43.9269L19.0643 40.7753H17.3987L21.1545 46.4335L24.9103 40.7753H23.2447L21.1545 43.9269Z" fill="#353535"/>
<path id="Vector_2" d="M38.0882 1.95972H4.02458C2.29363 1.95972 0.889282 3.33141 0.889282 5.01336V37.3298C0.889282 39.0117 2.29363 40.3834 4.02458 40.3834H17.7252V39.0362V3.31508H24.2815V39.0444V40.3916H38.0882C39.8192 40.3916 41.2235 39.0199 41.2235 37.3379V5.02153C41.2235 3.33141 39.8192 1.95972 38.0882 1.95972ZM4.02458 39.0444C3.0448 39.0444 2.23648 38.2769 2.23648 37.3379V5.02153C2.23648 4.08257 3.03663 3.31508 4.02458 3.31508H8.39276V39.0444H4.02458ZM38.0882 3.31508C39.068 3.31508 39.8682 4.08257 39.8682 5.02153V37.3379C39.8682 38.2769 39.068 39.0444 38.0882 39.0444H33.5976V3.31508H38.0882ZM16.3371 39.0444H9.78078V3.31508H16.3371V39.0444ZM25.6614 3.31508H32.2177V39.0444H25.6614V3.31508Z" fill="#353535"/>
</g>
<g id="Group_2">
<g id="Group_3">
<g id="Group_4">
<path id="Vector_3" d="M49.7311 27.1156C49.5433 26.8462 49.4862 26.8462 49.4127 26.8462C49.3065 26.8462 49.2167 26.9278 49.2167 27.0258C49.2167 27.1319 49.2984 27.1891 49.4127 27.1891C49.8128 27.1891 50.1067 27.4993 50.1067 27.8423C50.1149 28.2423 49.7964 28.5444 49.3882 28.5444C49.2167 28.5444 48.9636 28.5281 48.6697 28.0546L49.0779 27.7933C49.2331 28.0301 49.3229 28.0464 49.3882 28.0464C49.478 28.0464 49.5841 27.9811 49.576 27.8831C49.576 27.7933 49.4862 27.6871 49.3882 27.6871C48.9228 27.6871 48.6778 27.4014 48.6778 27.0176C48.6778 26.642 48.9963 26.3236 49.3882 26.3236C49.5923 26.3236 49.8373 26.3399 50.1312 26.8298L49.7311 27.1156Z" fill="#353535"/>
<path id="Vector_4" d="M55.3484 28.5118V26.3481C55.3484 26.3481 56.4588 26.3481 56.7282 26.3481V26.8788C56.4996 26.8788 56.1077 26.8788 55.8791 26.8788V27.1727C56.1567 27.1727 56.5241 27.1727 56.7282 27.1727V27.6953C56.4996 27.6953 56.1567 27.6953 55.8791 27.6953V27.9892C56.1404 27.9892 56.5241 27.9892 56.7282 27.9892V28.5199C56.4506 28.5118 55.3484 28.5118 55.3484 28.5118Z" fill="#353535"/>
<path id="Vector_5" d="M63.0071 27.1156C62.8193 26.8462 62.7622 26.8462 62.6887 26.8462C62.5825 26.8462 62.4927 26.9278 62.4927 27.0258C62.4927 27.1319 62.5744 27.1891 62.6887 27.1891C63.0888 27.1891 63.3827 27.4993 63.3909 27.8423C63.399 28.2423 63.0806 28.5444 62.6724 28.5444C62.5009 28.5444 62.2478 28.5281 61.9539 28.0546L62.3621 27.7933C62.5172 28.0301 62.5989 28.0464 62.6724 28.0464C62.7622 28.0464 62.8683 27.9811 62.8602 27.8831C62.8602 27.7933 62.7703 27.6871 62.6724 27.6871C62.207 27.6871 61.962 27.4014 61.962 27.0176C61.962 26.642 62.2804 26.3236 62.6724 26.3236C62.8765 26.3236 63.1214 26.3399 63.4154 26.8298L63.0071 27.1156Z" fill="#353535"/>
<path id="Vector_6" d="M69.6534 27.1156C69.4656 26.8462 69.4084 26.8462 69.3349 26.8462C69.2288 26.8462 69.139 26.9278 69.139 27.0258C69.139 27.1319 69.2206 27.1891 69.3349 27.1891C69.735 27.1891 70.029 27.4993 70.0371 27.8423C70.0453 28.2423 69.7268 28.5444 69.3186 28.5444C69.1471 28.5444 68.894 28.5281 68.6001 28.0546L69.0083 27.7933C69.1635 28.0301 69.2451 28.0464 69.3186 28.0464C69.4084 28.0464 69.5146 27.9811 69.5064 27.8831C69.5064 27.7933 69.4166 27.6871 69.3186 27.6871C68.8532 27.6871 68.6083 27.4014 68.6083 27.0176C68.6083 26.642 68.9267 26.3236 69.3186 26.3236C69.5227 26.3236 69.7677 26.3399 70.0616 26.8298L69.6534 27.1156Z" fill="#353535"/>
<path id="Vector_7" d="M75.7034 28.5199C75.7034 28.2587 75.7034 26.6257 75.7034 26.3563H76.2341C76.2341 26.6257 76.2341 28.2587 76.2341 28.5199H75.7034Z" fill="#353535"/>
<path id="Vector_8" d="M82.6352 28.5771C81.9984 28.5771 81.4758 28.0545 81.4758 27.434C81.4758 26.8216 82.0065 26.3073 82.6352 26.3073C83.2639 26.3073 83.7783 26.8298 83.7783 27.434C83.7701 28.0545 83.2639 28.5771 82.6352 28.5771ZM82.6352 26.8543C82.2923 26.8543 82.031 27.1237 82.031 27.4422C82.031 27.7688 82.2923 28.03 82.6352 28.03C82.9618 28.03 83.2149 27.7688 83.2149 27.4422C83.2149 27.1237 82.9537 26.8543 82.6352 26.8543Z" fill="#353535"/>
<path id="Vector_9" d="M88.7265 27.3279C88.7265 27.3687 88.7265 27.4258 88.7265 27.4748C88.7265 27.8423 88.7265 28.3566 88.7265 28.5199H88.1958C88.1958 28.275 88.1958 26.2419 88.1958 26.2419L89.7798 27.5402C89.7798 27.5075 89.7716 27.4667 89.7716 27.434C89.7716 27.0339 89.7716 26.5195 89.7716 26.3644H90.3023C90.3023 26.6094 90.3023 28.6424 90.3023 28.6424L88.7265 27.3279Z" fill="#353535"/>
<path id="Vector_10" d="M96.2134 27.1156C96.0256 26.8462 95.9685 26.8462 95.895 26.8462C95.7888 26.8462 95.699 26.9278 95.699 27.0258C95.699 27.1319 95.7807 27.1891 95.895 27.1891C96.2951 27.1891 96.589 27.4993 96.5972 27.8423C96.6053 28.2423 96.2869 28.5444 95.8787 28.5444C95.7072 28.5444 95.4541 28.5281 95.1602 28.0546L95.5684 27.7933C95.7235 28.0301 95.8052 28.0464 95.8787 28.0464C95.9685 28.0464 96.0746 27.9811 96.0665 27.8831C96.0665 27.7933 95.9766 27.6871 95.8787 27.6871C95.4133 27.6871 95.1683 27.4014 95.1683 27.0176C95.1683 26.642 95.4868 26.3236 95.8787 26.3236C96.0828 26.3236 96.3277 26.3399 96.6217 26.8298L96.2134 27.1156Z" fill="#353535"/>
</g>
<path id="Vector_11" d="M66.0038 0.0736084V11.3084H69.384V12.1331H63.6196V0.0736084H66.0038Z" fill="#353535"/>
<path id="Vector_12" d="M72.4376 2.62097H70.3393L68.4858 8.89156C70.3311 8.89156 72.3315 8.89156 74.1849 8.89156L72.4376 2.62097ZM69.5963 8.23021L70.6413 4.5887L71.613 8.23021H69.5963Z" fill="#353535"/>
<path id="Vector_13" d="M60.4518 2.62097H58.3534L56.5 8.89156C58.3453 8.89156 60.3456 8.89156 62.1991 8.89156L60.4518 2.62097ZM57.6186 8.23021L58.6637 4.5887L59.6353 8.23021H57.6186Z" fill="#353535"/>
<path id="Vector_14" d="M48.6616 12.2392V4.02539H52.3195C54.1974 4.02539 55.1445 4.69491 55.1445 6.0421C55.1445 6.99739 54.573 7.60975 53.438 7.87919C54.8097 8.14863 55.4874 8.8753 55.4874 10.0592C55.4874 11.5125 54.5648 12.2474 52.7277 12.2474H48.6616V12.2392ZM51.0539 7.60159H51.7888C52.4664 7.60159 52.8094 7.10353 52.8094 6.09926C52.8094 5.16847 52.4501 4.71124 51.7316 4.71124H51.0539V7.60159ZM51.0539 11.5615H51.7316C52.6216 11.5615 53.0706 11.0553 53.0706 10.0347C53.0706 8.86713 52.6134 8.27927 51.6908 8.27927H51.0539V11.5615Z" fill="#353535"/>
<path id="Vector_15" d="M82.023 4.02539V12.2392H80.2023L76.7731 7.03821V12.2392H75.9729V4.02539H77.4834L81.2311 9.64279V4.02539H82.023Z" fill="#353535"/>
<path id="Vector_16" d="M88.906 8.94061L89.9266 9.20189C89.943 9.41417 89.9511 9.5938 89.9511 9.74077C89.9511 10.5409 89.6653 11.1778 89.0856 11.6595C88.5059 12.1412 87.7303 12.378 86.7587 12.378C84.3255 12.378 83.1008 11.0063 83.1008 8.26293C83.1008 6.75244 83.2723 6.12375 84.1704 5.09498C84.8808 4.28666 85.8034 3.87842 86.9465 3.87842C88.7264 3.87842 89.6164 4.73572 89.6164 6.44217L88.5958 6.91574C88.6121 6.67079 88.6121 6.49117 88.6121 6.35236C88.6121 5.1358 88.1304 4.5316 87.1587 4.5316C86.13 4.5316 85.6156 5.82165 85.6156 8.39357C85.6156 10.6062 86.1871 11.7085 87.3384 11.7085C87.8119 11.7085 88.2038 11.5207 88.5223 11.1451C88.8407 10.7695 88.9958 10.296 88.9958 9.7326C88.9795 9.56114 88.955 9.29987 88.906 8.94061Z" fill="#353535"/>
<path id="Vector_17" d="M96.0992 4.02539V4.85004H93.1517V7.34031H95.6257V8.16496H93.1517V11.4227H96.5973V12.2474H90.7676V4.02539H96.0992Z" fill="#353535"/>
<path id="Vector_18" d="M51.5683 16.9013V17.3504H49.9517V18.8364H51.3234V19.2854H49.9517V21.3593H48.6616V16.9095H51.5683V16.9013Z" fill="#353535"/>
<path id="Vector_19" d="M53.8218 16.8279C55.12 16.8279 55.765 17.5954 55.765 19.1304C55.765 20.6654 55.1037 21.4328 53.7891 21.4328C52.4664 21.4328 51.8132 20.649 51.8132 19.0814C51.8132 17.5709 52.4827 16.8279 53.8218 16.8279ZM53.7891 17.179C53.5442 17.179 53.3809 17.3096 53.2992 17.579C53.2176 17.8485 53.1686 18.3629 53.1686 19.1222C53.1686 19.8815 53.2094 20.3959 53.2992 20.6654C53.3809 20.9348 53.5523 21.0654 53.7891 21.0654C54.0259 21.0654 54.1974 20.9348 54.2872 20.6654C54.377 20.3959 54.4178 19.8815 54.4178 19.1222C54.4178 18.3629 54.377 17.8485 54.2872 17.579C54.1974 17.3178 54.0341 17.179 53.7891 17.179Z" fill="#353535"/>
<path id="Vector_20" d="M56.3364 21.3511V16.9013H58.247C58.7451 16.9013 59.1451 17.0074 59.4391 17.2197C59.7412 17.432 59.8881 17.7096 59.8881 18.0607C59.8881 18.5996 59.5697 18.9507 58.9328 19.114C59.2594 19.2364 59.4717 19.3671 59.5697 19.5141C59.6677 19.661 59.733 19.9386 59.7657 20.3632C59.8065 20.8612 59.8881 21.196 60.0188 21.3511H58.6144C58.5246 21.147 58.4838 20.8857 58.4838 20.5755L58.4756 20.3142L58.4674 19.9794C58.4674 19.4651 58.2633 19.212 57.8469 19.212H57.6265V21.3511H56.3364ZM57.6346 18.8445H57.8959C58.3858 18.8445 58.6307 18.5914 58.6307 18.077C58.6307 17.5627 58.3858 17.3095 57.8959 17.3095H57.6346V18.8445Z" fill="#353535"/>
<path id="Vector_21" d="M64.0769 18.273V21.3675H62.2725V15.1541H64.0769V17.6525H65.5466V15.1541H67.351V21.3675H65.5466V18.273H64.0769Z" fill="#353535"/>
<path id="Vector_22" d="M72.4377 15.154V15.7746H70.2087V17.6525H72.0785V18.273H70.2087V20.7388H72.8133V21.3593H68.4043V15.1459L72.4377 15.154Z" fill="#353535"/>
<path id="Vector_23" d="M76.3731 15.1541L78.104 21.3675H76.2915L75.924 20.0203H74.0543L73.6624 21.3675H72.9602L74.7973 15.1541H76.3731ZM74.2339 19.3916H75.7607L75.0259 16.6401L74.2339 19.3916Z" fill="#353535"/>
<path id="Vector_24" d="M80.227 15.1541V20.747H82.7826V21.3675H78.4226V15.1541H80.227Z" fill="#353535"/>
<path id="Vector_25" d="M84.9624 15.1541V21.3675H83.158V15.1541H84.9624Z" fill="#353535"/>
<path id="Vector_26" d="M90.588 15.1541V21.3675H89.2082L86.6118 17.432V21.3675H86.0076V15.1541H87.1506L89.9838 19.3998V15.1541H90.588Z" fill="#353535"/>
<path id="Vector_27" d="M94.0499 18.0117H96.6054V21.3675H96.0339L95.838 20.9429C95.3399 21.3022 94.8092 21.4736 94.254 21.4736C93.3395 21.4736 92.621 21.196 92.1148 20.649C91.6086 20.0938 91.3555 19.3263 91.3555 18.322C91.3555 17.3504 91.6249 16.5584 92.1638 15.9542C92.7027 15.35 93.4048 15.0479 94.2785 15.0479C95.4215 15.0479 96.1237 15.6358 96.3687 16.8034L95.5195 17.1871V17.0401L95.5032 16.7054C95.446 15.9705 95.1113 15.6113 94.4908 15.6113C94.0335 15.6113 93.7233 15.8072 93.56 16.191C93.3967 16.5747 93.3069 17.3014 93.3069 18.3628C93.3069 19.3508 93.3722 20.0285 93.511 20.3795C93.6498 20.7388 93.9029 20.9103 94.2785 20.9103C94.7275 20.9103 94.948 20.6653 94.948 20.1673V18.6404H94.0499V18.0117Z" fill="#353535"/>
<path id="Vector_28" d="M96.6055 2.62927H48.6616V2.80073H96.6055V2.62927Z" fill="#353535"/>
<path id="Vector_29" d="M96.6055 13.7496H48.6616V13.9211H96.6055V13.7496Z" fill="#353535"/>
<path id="Vector_30" d="M96.6137 23.3679H48.6616V23.5393H96.6137V23.3679Z" fill="#353535"/>
</g>
<g id="Group_5">
<path id="Vector_31" d="M49.3393 39.1506C48.7678 38.8893 48.3269 38.481 48.0329 37.9258C47.739 37.3706 47.592 36.6684 47.592 35.8275C47.592 34.9865 47.739 34.2843 48.0329 33.7209C48.3269 33.1576 48.7596 32.7493 49.3393 32.4962V32.8473C48.9719 33.1004 48.7106 33.4515 48.5555 33.9087C48.4004 34.366 48.3187 35.0028 48.3187 35.8275C48.3187 36.6521 48.4004 37.289 48.5555 37.7462C48.7106 38.2034 48.9719 38.5545 49.3393 38.8076V39.1506Z" fill="#353535"/>
<path id="Vector_32" d="M74.8789 39.1505V38.7994C75.2463 38.5463 75.5076 38.1952 75.6627 37.738C75.826 37.2807 75.8995 36.6439 75.8995 35.8192C75.8995 34.9946 75.8179 34.3496 75.6627 33.9005C75.4994 33.4433 75.2382 33.0922 74.8789 32.8391V32.488C75.4586 32.7493 75.8913 33.1575 76.1853 33.7127C76.4792 34.2679 76.6262 34.9701 76.6262 35.8192C76.6262 36.6602 76.4792 37.3542 76.1853 37.9176C75.8832 38.4891 75.4504 38.8974 74.8789 39.1505Z" fill="#353535"/>
<path id="Vector_33" d="M82.8562 35.1824V35.8927H81.5253V37.2073H82.8562V37.9584C82.8807 38.7667 82.4887 39.1423 81.6967 39.0852H80.2842H80.2761C79.8678 39.0362 79.6719 38.7831 79.6882 38.3422V35.8029H80.374V38.3585H81.7212C81.9009 38.334 81.9988 38.2524 82.0233 38.1135V37.9666C82.0233 37.9503 82.0152 37.9339 82.0152 37.9176H80.7333V36.0805C80.717 35.4926 80.9456 35.1905 81.4273 35.1824H82.8562ZM80.3251 40.1874H81.0681V39.4444H80.3251V40.1874ZM81.3865 40.1874H82.1295V39.4444H81.3865V40.1874Z" fill="#353535"/>
<path id="Vector_34" d="M84.4807 35.1824V37.346H84.8318V38.0237H84.4399C84.3011 38.7667 83.8602 39.1178 83.1008 39.0851V38.3585C83.4927 38.3585 83.6887 38.089 83.6805 37.542V35.1742H84.4807V35.1824Z" fill="#353535"/>
<path id="Vector_35" d="M84.6851 37.346H87.6652C87.7877 36.6847 87.6326 36.3499 87.2162 36.3254H85.0362V35.3701L87.0365 33.7617H88.1796L86.0404 35.5334H87.2407C88.0653 35.5742 88.498 35.9662 88.5389 36.701V37.3379H88.7593L88.7675 38.0155H84.7014V37.346H84.6851Z" fill="#353535"/>
<path id="Vector_36" d="M91.4208 35.7131H92.2863V37.3461H93.16V35.1824H94.0254V37.3461H94.401V38.0237H88.6611V37.3461H89.6817V36.2438H90.5472V37.3461H91.4208V35.7131Z" fill="#353535"/>
<path id="Vector_37" d="M94.7113 33.7617H95.5441V37.346V38.0237H94.2622V37.346H94.7194L94.7113 33.7617Z" fill="#353535"/>
<path id="Vector_38" d="M96.8096 38.0237H95.9768V33.7617H96.8096V38.0237Z" fill="#353535"/>
</g>
<path id="Vector_39" d="M96.6789 31.0754H48.7268V31.2469H96.6789V31.0754Z" fill="#353535"/>
</g>
</g>
<g id="Group 1321314440">
<g id="Group_6">
<path id="Vector_40" d="M54.2351 38.22H53.5208V38.9344H54.2351V38.22Z" fill="#353535"/>
<path id="Vector_41" d="M53.2068 38.22H52.4924V38.9344H53.2068V38.22Z" fill="#353535"/>
<path id="Vector_42" d="M55.6874 36.2105H55.2242H55.083H53.5836V36.8541H54.0703C54.0939 37.0739 53.9133 37.1917 53.513 37.1917H52.5553V35.0094H51.8096V37.1367C51.8331 37.6313 52.1 37.8825 52.6103 37.8746H53.7956C54.4079 37.8354 54.7611 37.4978 54.8553 36.8541H55.083H55.2242H56.4881V36.2105V34.1302H55.6874V36.2105Z" fill="#353535"/>
<path id="Vector_43" d="M56.4097 32.9057H55.6953V33.62H56.4097V32.9057Z" fill="#353535"/>
<path id="Vector_44" d="M59.8635 32.9057H59.1492V33.62H59.8635V32.9057Z" fill="#353535"/>
<path id="Vector_45" d="M59.3219 32.0736H58.6389V32.7565H59.3219V32.0736Z" fill="#353535"/>
<path id="Vector_46" d="M58.8352 32.9057H58.1208V33.62H58.8352V32.9057Z" fill="#353535"/>
<path id="Vector_47" d="M60.6093 36.2105H60.2874H60.1697H59.9342V34.1303H59.1335V36.2105H58.2229H58.1209H57.7834V32.7644H56.9827V36.2105V36.8542H58.1209H58.2229H60.1697H60.2874H61.4021V36.2105V32.7644H60.6093V36.2105Z" fill="#353535"/>
<path id="Vector_48" d="M62.6188 32.7644H61.8181V36.8542H62.6188V32.7644Z" fill="#353535"/>
<path id="Vector_49" d="M66.5751 35.7002C66.5123 35.0251 66.9048 34.719 67.7526 34.7661L67.5956 34.1224C67.1481 34.0203 66.7478 34.091 66.4024 34.3265C66.0492 34.5698 65.8529 34.8917 65.8058 35.292C65.7823 35.7159 65.8372 36.0221 65.9707 36.2026L65.9628 36.2104C65.6096 36.2497 65.3819 36.3831 65.2956 36.6108C65.1778 36.9169 65.1778 37.2074 65.2956 37.49C65.4133 37.7726 65.743 37.8982 66.2768 37.8668H67.7055V37.1681H66.3396C66.0727 37.1838 65.9393 37.1367 65.9471 37.0268C65.955 36.9169 66.0099 36.8541 66.1198 36.8463H67.9174V36.2026H67.0147C66.7714 36.1555 66.6222 35.9828 66.5751 35.7002Z" fill="#353535"/>
<path id="Vector_50" d="M71.9524 32.9057H71.238V33.62H71.9524V32.9057Z" fill="#353535"/>
<path id="Vector_51" d="M72.8001 36.2105H72.494H72.3684H72.0309V34.1303H71.2302V36.2105H70.8063H70.6571H70.4766V34.1303H70.2097C69.1578 34.1381 68.5455 34.4129 68.3728 34.9545C68.2001 35.4961 68.2394 35.9514 68.4984 36.3361C68.7575 36.7129 69.1657 36.8934 69.723 36.862C69.7701 37.0661 69.6916 37.176 69.4875 37.1917H68.3964V37.8825H69.3933C69.7858 37.906 70.0841 37.7961 70.2882 37.5685C70.4138 37.3879 70.4766 37.1524 70.4687 36.862H70.6493H70.7984H72.3527H72.4783H73.5851V36.2183V32.7801H72.7844V36.2105H72.8001ZM69.7387 36.2105C69.3698 36.2497 69.1264 36.0849 69.0008 35.7081C68.9066 35.135 69.1578 34.8289 69.7387 34.8054V36.2105Z" fill="#353535"/>
<path id="Vector_52" d="M74.8095 32.7644H74.0088V36.8542H74.8095V32.7644Z" fill="#353535"/>
</g>
</g>
</g>
</svg>
