<svg width="102" height="49" viewBox="0 0 102 49" fill="none" xmlns="http://www.w3.org/2000/svg">
<g id="Group 1321314438">
<g id="Group">
<g id="Group_2">
<g id="Group_3">
<path id="Vector" d="M51.753 28.4276C51.5564 28.145 51.4966 28.145 51.4197 28.145C51.3086 28.145 51.2145 28.2306 51.2145 28.3334C51.2145 28.4447 51.3 28.5046 51.4197 28.5046C51.8385 28.5046 52.1462 28.83 52.1462 29.1896C52.1548 29.6091 51.8214 29.9259 51.394 29.9259C51.2145 29.9259 50.9496 29.9088 50.6418 29.4122L51.0692 29.1382C51.2316 29.3865 51.3256 29.4036 51.394 29.4036C51.4881 29.4036 51.5992 29.3351 51.5906 29.2324C51.5906 29.1382 51.4966 29.0269 51.394 29.0269C50.9068 29.0269 50.6504 28.7272 50.6504 28.3248C50.6504 27.931 50.9837 27.597 51.394 27.597C51.6077 27.597 51.8641 27.6142 52.1719 28.1279L51.753 28.4276Z" fill="#353535"/>
<path id="Vector_2" d="M57.6335 29.8916V27.6227C57.6335 27.6227 58.796 27.6227 59.0781 27.6227V28.1792C58.8387 28.1792 58.4285 28.1792 58.1891 28.1792V28.4874C58.4798 28.4874 58.8644 28.4874 59.0781 28.4874V29.0354C58.8387 29.0354 58.4798 29.0354 58.1891 29.0354V29.3436C58.4627 29.3436 58.8644 29.3436 59.0781 29.3436V29.9002C58.7875 29.8916 57.6335 29.8916 57.6335 29.8916Z" fill="#353535"/>
<path id="Vector_3" d="M65.6512 28.4276C65.4546 28.145 65.3948 28.145 65.3179 28.145C65.2067 28.145 65.1127 28.2306 65.1127 28.3334C65.1127 28.4447 65.1982 28.5046 65.3179 28.5046C65.7367 28.5046 66.0444 28.83 66.0529 29.1896C66.0615 29.6091 65.7281 29.9259 65.3008 29.9259C65.1213 29.9259 64.8563 29.9088 64.5486 29.4122L64.976 29.1382C65.1384 29.3865 65.2238 29.4036 65.3008 29.4036C65.3948 29.4036 65.5059 29.3351 65.4974 29.2324C65.4974 29.1382 65.4033 29.0269 65.3008 29.0269C64.8136 29.0269 64.5571 28.7272 64.5571 28.3248C64.5571 27.931 64.8905 27.597 65.3008 27.597C65.5145 27.597 65.7709 27.6142 66.0786 28.1279L65.6512 28.4276Z" fill="#353535"/>
<path id="Vector_4" d="M72.609 28.4276C72.4124 28.145 72.3526 28.145 72.2756 28.145C72.1645 28.145 72.0705 28.2306 72.0705 28.3334C72.0705 28.4447 72.156 28.5046 72.2756 28.5046C72.6945 28.5046 73.0022 28.83 73.0107 29.1896C73.0193 29.6091 72.6859 29.9259 72.2585 29.9259C72.079 29.9259 71.8141 29.9088 71.5063 29.4122L71.9337 29.1382C72.0961 29.3865 72.1816 29.4036 72.2585 29.4036C72.3526 29.4036 72.4637 29.3351 72.4551 29.2324C72.4551 29.1382 72.3611 29.0269 72.2585 29.0269C71.7713 29.0269 71.5149 28.7272 71.5149 28.3248C71.5149 27.931 71.8483 27.597 72.2585 27.597C72.4722 27.597 72.7286 27.6142 73.0364 28.1279L72.609 28.4276Z" fill="#353535"/>
<path id="Vector_5" d="M78.9426 29.9002C78.9426 29.6262 78.9426 27.9138 78.9426 27.6313H79.4982C79.4982 27.9138 79.4982 29.6262 79.4982 29.9002H78.9426Z" fill="#353535"/>
<path id="Vector_6" d="M86.1994 29.9602C85.5326 29.9602 84.9856 29.4122 84.9856 28.7615C84.9856 28.1194 85.5412 27.58 86.1994 27.58C86.8575 27.58 87.396 28.1279 87.396 28.7615C87.3875 29.4122 86.8575 29.9602 86.1994 29.9602ZM86.1994 28.1536C85.8404 28.1536 85.5668 28.4362 85.5668 28.7701C85.5668 29.1125 85.8404 29.3865 86.1994 29.3865C86.5413 29.3865 86.8062 29.1125 86.8062 28.7701C86.8062 28.4362 86.5327 28.1536 86.1994 28.1536Z" fill="#353535"/>
<path id="Vector_7" d="M92.5759 28.6502C92.5759 28.693 92.5759 28.7529 92.5759 28.8043C92.5759 29.1896 92.5759 29.729 92.5759 29.9002H92.0203C92.0203 29.6433 92.0203 27.5114 92.0203 27.5114L93.6785 28.8728C93.6785 28.8385 93.6699 28.7957 93.6699 28.7615C93.6699 28.3419 93.6699 27.8025 93.6699 27.6398H94.2255C94.2255 27.8967 94.2255 30.0286 94.2255 30.0286L92.5759 28.6502Z" fill="#353535"/>
<path id="Vector_8" d="M100.414 28.4276C100.217 28.145 100.157 28.145 100.081 28.145C99.9694 28.145 99.8754 28.2306 99.8754 28.3334C99.8754 28.4447 99.9609 28.5046 100.081 28.5046C100.499 28.5046 100.807 28.83 100.816 29.1896C100.824 29.6091 100.491 29.9259 100.063 29.9259C99.884 29.9259 99.619 29.9088 99.3113 29.4122L99.7387 29.1382C99.9011 29.3865 99.9865 29.4036 100.063 29.4036C100.157 29.4036 100.269 29.3351 100.26 29.2324C100.26 29.1382 100.166 29.0269 100.063 29.0269C99.5762 29.0269 99.3198 28.7272 99.3198 28.3248C99.3198 27.931 99.6532 27.597 100.063 27.597C100.277 27.597 100.534 27.6142 100.841 28.1279L100.414 28.4276Z" fill="#353535"/>
</g>
<path id="Vector_9" d="M68.7881 0.0703735V11.8516H72.3268V12.7164H66.2922V0.0703735H68.7881Z" fill="#353535"/>
<path id="Vector_10" d="M75.5237 2.74176H73.327L71.3867 9.31733C73.3185 9.31733 75.4126 9.31733 77.3529 9.31733L75.5237 2.74176ZM72.5492 8.62381L73.6433 4.80518L74.6604 8.62381H72.5492Z" fill="#353535"/>
<path id="Vector_11" d="M62.9759 2.74176H60.7792L58.8389 9.31733C60.7706 9.31733 62.8648 9.31733 64.805 9.31733L62.9759 2.74176ZM60.0099 8.62381L61.104 4.80518L62.1211 8.62381H60.0099Z" fill="#353535"/>
<path id="Vector_12" d="M50.6331 12.8277V4.21436H54.4624C56.4283 4.21436 57.4198 4.91644 57.4198 6.32915C57.4198 7.3309 56.8215 7.97305 55.6334 8.25559C57.0694 8.53814 57.7788 9.30015 57.7788 10.5416C57.7788 12.0657 56.8129 12.8362 54.8897 12.8362H50.6331V12.8277ZM53.1375 7.96449H53.9068C54.6162 7.96449 54.9752 7.44221 54.9752 6.38909C54.9752 5.41303 54.5991 4.93356 53.8469 4.93356H53.1375V7.96449ZM53.1375 12.117H53.8469C54.7786 12.117 55.2487 11.5862 55.2487 10.5159C55.2487 9.29158 54.7701 8.67513 53.8042 8.67513H53.1375V12.117Z" fill="#353535"/>
<path id="Vector_13" d="M85.5586 4.21436V12.8277H83.6525L80.0625 7.37371V12.8277H79.2249V4.21436H80.8061L84.7295 10.105V4.21436H85.5586Z" fill="#353535"/>
<path id="Vector_14" d="M92.7638 9.36864L93.8323 9.64262C93.8494 9.86523 93.8579 10.0536 93.8579 10.2077C93.8579 11.0468 93.5587 11.7146 92.9519 12.2198C92.345 12.7249 91.533 12.9732 90.5158 12.9732C87.9687 12.9732 86.6865 11.5348 86.6865 8.658C86.6865 7.07404 86.866 6.41477 87.8062 5.33597C88.5499 4.48834 89.5158 4.06024 90.7124 4.06024C92.5758 4.06024 93.5075 4.95924 93.5075 6.74869L92.439 7.24528C92.4561 6.98842 92.4561 6.80006 92.4561 6.65451C92.4561 5.37878 91.9518 4.7452 90.9347 4.7452C89.8577 4.7452 89.3192 6.09798 89.3192 8.79499C89.3192 11.1153 89.9175 12.2711 91.1227 12.2711C91.6185 12.2711 92.0287 12.0742 92.3621 11.6804C92.6954 11.2865 92.8579 10.7899 92.8579 10.1991C92.8408 10.0193 92.8151 9.74537 92.7638 9.36864Z" fill="#353535"/>
<path id="Vector_15" d="M100.294 4.21436V5.07911H97.2088V7.6905H99.7987V8.55526H97.2088V11.9715H100.816V12.8362H94.7129V4.21436H100.294Z" fill="#353535"/>
<path id="Vector_16" d="M53.676 17.7166V18.1875H51.9836V19.7457H53.4196V20.2166H51.9836V22.3914H50.6331V17.7251H53.676V17.7166Z" fill="#353535"/>
<path id="Vector_17" d="M56.0351 17.6395C57.3941 17.6395 58.0694 18.4443 58.0694 20.0539C58.0694 21.6636 57.377 22.4684 56.0009 22.4684C54.6162 22.4684 53.9324 21.6465 53.9324 20.0026C53.9324 18.4186 54.6333 17.6395 56.0351 17.6395ZM56.0009 18.0076C55.7444 18.0076 55.5735 18.1446 55.488 18.4272C55.4025 18.7097 55.3513 19.2491 55.3513 20.0454C55.3513 20.8416 55.394 21.381 55.488 21.6636C55.5735 21.9461 55.753 22.0831 56.0009 22.0831C56.2488 22.0831 56.4282 21.9461 56.5223 21.6636C56.6163 21.381 56.659 20.8416 56.659 20.0454C56.659 19.2491 56.6163 18.7097 56.5223 18.4272C56.4282 18.1532 56.2573 18.0076 56.0009 18.0076Z" fill="#353535"/>
<path id="Vector_18" d="M58.668 22.3828V17.7166H60.6681C61.1895 17.7166 61.6083 17.8279 61.916 18.0505C62.2323 18.2731 62.3861 18.5642 62.3861 18.9323C62.3861 19.4974 62.0528 19.8656 61.3861 20.0368C61.728 20.1653 61.9502 20.3023 62.0528 20.4564C62.1554 20.6105 62.2237 20.9016 62.2579 21.3468C62.3007 21.8691 62.3861 22.2201 62.5229 22.3828H61.0527C60.9587 22.1688 60.916 21.8948 60.916 21.5694L60.9074 21.2954L60.8989 20.9444C60.8989 20.405 60.6852 20.1396 60.2493 20.1396H60.0185V22.3828H58.668ZM60.027 19.7543H60.3005C60.8134 19.7543 61.0698 19.4889 61.0698 18.9495C61.0698 18.4101 60.8134 18.1446 60.3005 18.1446H60.027V19.7543Z" fill="#353535"/>
<path id="Vector_19" d="M66.7708 19.1549V22.3999H64.8818V15.8843H66.7708V18.5042H68.3094V15.8843H70.1984V22.3999H68.3094V19.1549H66.7708Z" fill="#353535"/>
<path id="Vector_20" d="M75.5235 15.8842V16.5349H73.19V18.5042H75.1474V19.1549H73.19V21.7406H75.9167V22.3913H71.301V15.8757L75.5235 15.8842Z" fill="#353535"/>
<path id="Vector_21" d="M79.6434 15.8843L81.4555 22.3999H79.5579L79.1733 20.9872H77.2159L76.8056 22.3999H76.0706L77.9938 15.8843H79.6434ZM77.404 20.3279H79.0024L78.2331 17.4425L77.404 20.3279Z" fill="#353535"/>
<path id="Vector_22" d="M83.6778 15.8843V21.7492H86.3532V22.3999H81.7888V15.8843H83.6778Z" fill="#353535"/>
<path id="Vector_23" d="M88.6356 15.8843V22.3999H86.7466V15.8843H88.6356Z" fill="#353535"/>
<path id="Vector_24" d="M94.5249 15.8843V22.3999H93.0804L90.3623 18.2731V22.3999H89.7297V15.8843H90.9264L93.8924 20.3365V15.8843H94.5249Z" fill="#353535"/>
<path id="Vector_25" d="M98.1488 18.8809H100.824V22.3999H100.226L100.021 21.9547C99.4993 22.3314 98.9437 22.5112 98.3625 22.5112C97.4052 22.5112 96.653 22.2201 96.1231 21.6464C95.5931 21.0642 95.3281 20.2594 95.3281 19.2063C95.3281 18.1874 95.6102 17.3569 96.1743 16.7233C96.7385 16.0897 97.4736 15.7729 98.3881 15.7729C99.5848 15.7729 100.32 16.3894 100.576 17.6138L99.6874 18.0162V17.8621L99.6703 17.511C99.6104 16.7404 99.26 16.3637 98.6104 16.3637C98.1317 16.3637 97.8069 16.5692 97.636 16.9716C97.465 17.374 97.371 18.136 97.371 19.2491C97.371 20.2851 97.4394 20.9957 97.5847 21.3639C97.73 21.7406 97.995 21.9204 98.3881 21.9204C98.8583 21.9204 99.089 21.6636 99.089 21.1413V19.5402H98.1488V18.8809Z" fill="#353535"/>
<path id="Vector_26" d="M100.824 2.75024H50.6331V2.93005H100.824V2.75024Z" fill="#353535"/>
<path id="Vector_27" d="M100.824 14.4116H50.6331V14.5914H100.824V14.4116Z" fill="#353535"/>
<path id="Vector_28" d="M100.833 24.4976H50.6331V24.6774H100.833V24.4976Z" fill="#353535"/>
</g>
<g id="Group_4">
<path id="Vector_29" d="M51.3424 41.0477C50.744 40.7738 50.2825 40.3457 49.9747 39.7635C49.667 39.1812 49.5132 38.4449 49.5132 37.563C49.5132 36.6812 49.667 35.9448 49.9747 35.3541C50.2825 34.7633 50.7355 34.3352 51.3424 34.0698V34.4379C50.9577 34.7034 50.6842 35.0715 50.5218 35.551C50.3594 36.0305 50.2739 36.6983 50.2739 37.563C50.2739 38.4278 50.3594 39.0956 50.5218 39.5751C50.6842 40.0546 50.9577 40.4227 51.3424 40.6881V41.0477Z" fill="#353535"/>
<path id="Vector_30" d="M78.0789 41.0478V40.6796C78.4635 40.4142 78.737 40.046 78.8994 39.5665C79.0704 39.0871 79.1473 38.4192 79.1473 37.5545C79.1473 36.6897 79.0618 36.0133 78.8994 35.5424C78.7285 35.063 78.4549 34.6948 78.0789 34.4294V34.0612C78.6857 34.3352 79.1388 34.7633 79.4465 35.3455C79.7542 35.9277 79.908 36.664 79.908 37.5545C79.908 38.4364 79.7542 39.1641 79.4465 39.7549C79.1302 40.3542 78.6772 40.7823 78.0789 41.0478Z" fill="#353535"/>
<path id="Vector_31" d="M86.4297 36.8866V37.6315H85.0365V39.01H86.4297V39.7977C86.4554 40.6453 86.0451 41.0391 85.216 40.9792H83.7373H83.7287C83.3013 40.9278 83.0962 40.6624 83.1133 40.2001V37.5373H83.8313V40.2172H85.2416C85.4297 40.1915 85.5322 40.1059 85.5579 39.9603V39.8062C85.5579 39.7891 85.5493 39.772 85.5493 39.7548H84.2074V37.8284C84.1903 37.212 84.4296 36.8952 84.9339 36.8866H86.4297ZM83.78 42.1351H84.5578V41.3559H83.78V42.1351ZM84.8912 42.1351H85.669V41.3559H84.8912V42.1351Z" fill="#353535"/>
<path id="Vector_32" d="M88.1308 36.8867V39.1556H88.4984V39.8662H88.0881C87.9428 40.6454 87.4812 41.0135 86.6863 40.9793V40.2173C87.0966 40.2173 87.3017 39.9347 87.2932 39.3611V36.8781H88.1308V36.8867Z" fill="#353535"/>
<path id="Vector_33" d="M88.3445 39.1556H91.4643C91.5925 38.4621 91.4301 38.111 90.9942 38.0854H88.712V37.0836L90.8062 35.3969H92.0028L89.7634 37.2549H91.0199C91.8832 37.2977 92.3362 37.7086 92.3789 38.4792V39.147H92.6097L92.6183 39.8577H88.3616V39.1556H88.3445Z" fill="#353535"/>
<path id="Vector_34" d="M95.3962 37.4431H96.3022V39.1555H97.2168V36.8866H98.1228V39.1555H98.516V39.8661H92.5071V39.1555H93.5755V37.9996H94.4816V39.1555H95.3962V37.4431Z" fill="#353535"/>
<path id="Vector_35" d="M98.841 35.3969H99.7128V39.1556V39.8662H98.3708V39.1556H98.8495L98.841 35.3969Z" fill="#353535"/>
<path id="Vector_36" d="M101.038 39.8662H100.166V35.3969H101.038V39.8662Z" fill="#353535"/>
</g>
<path id="Vector_37" d="M100.901 32.5801H50.7014V32.7599H100.901V32.5801Z" fill="#353535"/>
</g>
<g id="Group_5">
<path id="Vector_38" d="M21.8449 45.8339L19.6739 42.5547H17.9473L21.8449 48.4367L25.7426 42.5547H24.016L21.8449 45.8339Z" fill="#353535"/>
<path id="Vector_39" d="M39.4273 2.20227H4.06618C2.2712 2.20227 0.80957 3.62355 0.80957 5.37875V38.9844C0.80957 40.7395 2.2712 42.1608 4.06618 42.1608H18.2807V40.7567V3.60643H25.0846V40.7567V42.1608H39.4188C41.2138 42.1608 42.6754 40.7395 42.6754 38.9844V5.37875C42.6754 3.62355 41.2138 2.20227 39.4273 2.20227ZM4.06618 40.7567C3.04903 40.7567 2.21137 39.9604 2.21137 38.9844V5.37875C2.21137 4.40269 3.04048 3.60643 4.06618 3.60643H8.60493V40.7567H4.06618ZM39.4273 3.60643C40.4445 3.60643 41.2822 4.40269 41.2822 5.37875V38.9844C41.2822 39.9604 40.4531 40.7567 39.4273 40.7567H34.7689V3.60643H39.4273ZM16.8448 40.7567H10.0409V3.60643H16.8448V40.7567ZM26.5206 3.60643H33.3244V40.7567H26.5206V3.60643Z" fill="#353535"/>
</g>
<g id="Group_6">
<path id="Vector_40" d="M55.1291 35.3028H55.9838V39.07V39.7807C55.924 40.1917 55.7873 40.4828 55.5736 40.6626C55.3684 40.8424 55.0607 40.9194 54.6504 40.8937H53.3683C52.9666 40.8937 52.6589 40.7653 52.4366 40.5256C52.2229 40.2773 52.1204 39.8492 52.1204 39.2242V37.9142H53.0093V39.5838C53.0178 39.9519 53.2059 40.1403 53.5563 40.1403H54.5479C54.9496 40.1489 55.1376 39.9006 55.112 39.3868V35.3028H55.1291Z" fill="#353535"/>
<path id="Vector_41" d="M58.779 36.7927V39.0701V39.7808C58.7876 40.0976 58.7192 40.3544 58.5739 40.5599C58.3517 40.8082 58.0269 40.9281 57.5995 40.9024H56.5054V40.1404H57.702C57.9243 40.1233 58.0098 40.0034 57.9585 39.7808C57.3516 39.815 56.8986 39.6181 56.6165 39.2071C56.3344 38.7876 56.2832 38.291 56.4712 37.7002C56.6592 37.1095 57.326 36.8098 58.4799 36.8012H58.779V36.7927ZM57.9585 37.529C57.3174 37.5547 57.0524 37.8886 57.1465 38.5136C57.2832 38.9331 57.5567 39.1129 57.9585 39.0701V37.529Z" fill="#353535"/>
<path id="Vector_42" d="M60.1294 36.7926H61.0013V39.0701H61.8389V35.3029H62.7108V39.0701V39.7807H59.2405V39.0701H60.1294V36.7926ZM60.232 35.6111V35.9536H60.1209V36.2361H60.8902V35.945H60.4542V35.731C60.4457 35.6625 60.4799 35.6282 60.5483 35.6368H60.8902V35.3457H60.3944C60.3004 35.4313 60.2491 35.5255 60.232 35.6111Z" fill="#353535"/>
<path id="Vector_43" d="M64.0271 39.7807H63.1553V35.3029H64.0271V39.7807Z" fill="#353535"/>
<path id="Vector_44" d="M69.8222 39.7807H67.8563C67.7366 39.7893 67.6768 39.8578 67.6682 39.9862C67.6597 40.1061 67.805 40.1574 68.1041 40.1403H69.5999V40.9023H68.0358C67.4545 40.9366 67.0955 40.7996 66.9588 40.4914C66.8306 40.1831 66.822 39.8663 66.9588 39.5239C67.0528 39.2756 67.2921 39.13 67.6853 39.0872L67.6939 39.0786C67.5485 38.8817 67.4802 38.5478 67.5144 38.0854C67.5656 37.6488 67.7793 37.2892 68.164 37.0323C68.5486 36.7669 68.9845 36.6899 69.4717 36.8012L69.6427 37.5032C68.7196 37.4519 68.2922 37.7858 68.3606 38.5221C68.4118 38.8303 68.5743 39.0187 68.8392 39.0786H69.8222V39.7807Z" fill="#353535"/>
<path id="Vector_45" d="M72.626 36.7927V39.0701H72.9764V39.7808H72.626C72.6345 40.0976 72.5661 40.3544 72.4208 40.5599C72.1986 40.8082 71.8738 40.9281 71.4464 40.9024H70.3523V40.1404H71.549C71.7712 40.1233 71.8567 40.0034 71.8054 39.7808C71.1985 39.815 70.7455 39.6181 70.4634 39.2071C70.1814 38.7876 70.1301 38.291 70.3181 37.7002C70.5062 37.1095 71.1729 36.8098 72.3268 36.8012H72.626V36.7927ZM71.8139 37.529C71.1729 37.5547 70.9079 37.8886 71.0019 38.5136C71.1387 38.9331 71.4122 39.1129 71.8139 39.0701V37.529Z" fill="#353535"/>
<path id="Vector_46" d="M73.4465 36.7927H74.3183V39.0701H74.8226V39.7808H72.8225V39.0701H73.4465V36.7927ZM73.455 35.4484H74.2414V36.2361H73.455V35.4484Z" fill="#353535"/>
<path id="Vector_47" d="M75.1562 35.3029H76.028V39.0701V39.7807H74.6775V39.0701H75.1562V35.3029Z" fill="#353535"/>
<path id="Vector_48" d="M77.3528 39.7807H76.481V35.3029H77.3528V39.7807Z" fill="#353535"/>
</g>
</g>
</svg>
