<svg width="67" height="60" viewBox="0 0 67 60" fill="none" xmlns="http://www.w3.org/2000/svg">
<path fill-rule="evenodd" clip-rule="evenodd" d="M33.5 0C15.3684 0 0.5 14.6986 0.5 32.8302C0.5 42.9598 5.14061 52.0179 12.3983 58.0401C20.1135 59.6848 32.1028 60.9245 39.9127 55.3817C46.1911 50.9258 55.6529 48.2404 63.4138 46.6789C65.3926 42.471 66.5 37.7784 66.5 32.8302C66.5 14.6986 51.6316 0 33.5 0Z" fill="#ECE3FE"/>
<mask id="mask0_15_116" style="mask-type:luminance" maskUnits="userSpaceOnUse" x="0" y="0" width="67" height="60">
<path fill-rule="evenodd" clip-rule="evenodd" d="M33.5 0C15.3684 0 0.5 14.6986 0.5 32.8302C0.5 42.9598 5.14061 52.0179 12.3983 58.0401C20.1135 59.6848 32.1028 60.9245 39.9127 55.3817C46.1911 50.9258 55.6529 48.2404 63.4138 46.6789C65.3926 42.471 66.5 37.7784 66.5 32.8302C66.5 14.6986 51.6316 0 33.5 0Z" fill="white"/>
</mask>
<g mask="url(#mask0_15_116)">
</g>
<g clip-path="url(#clip0_15_116)">
<path d="M43.6765 21.1766L36.9706 33.4707H50.3824L43.6765 21.1766ZM21.3235 21.1766L14.6176 33.4707H28.0294L21.3235 21.1766ZM35.6609 17.8236C35.4979 18.2893 35.233 18.7055 34.8663 19.0722C34.4996 19.4389 34.0834 19.7038 33.6177 19.8668V42.4118H44.2353C44.3983 42.4118 44.5322 42.4642 44.637 42.569C44.7417 42.6738 44.7941 42.8077 44.7941 42.9707V44.0883C44.7941 44.2513 44.7418 44.3852 44.637 44.4899C44.5322 44.5947 44.3983 44.6471 44.2353 44.6471H20.7647C20.6017 44.6471 20.4678 44.5947 20.3631 44.49C20.2583 44.3852 20.2059 44.2513 20.2059 44.0883V42.9707C20.2059 42.8077 20.2583 42.6738 20.3631 42.569C20.4678 42.4642 20.6017 42.4118 20.7647 42.4118H31.3824V19.8668C30.9167 19.7038 30.5005 19.439 30.1337 19.0722C29.767 18.7055 29.5022 18.2893 29.3392 17.8236H20.7647C20.6017 17.8236 20.4678 17.7712 20.3631 17.6664C20.2583 17.5617 20.2059 17.4278 20.2059 17.2648V16.1471C20.2059 15.9841 20.2582 15.8503 20.363 15.7455C20.4678 15.6407 20.6017 15.5883 20.7647 15.5883H29.3391C29.5836 14.9247 29.9911 14.3863 30.5616 13.973C31.132 13.5597 31.7782 13.353 32.5 13.353C33.2218 13.353 33.8679 13.5597 34.4384 13.973C35.0089 14.3863 35.4163 14.9247 35.6608 15.5883H44.2353C44.3983 15.5883 44.5322 15.6407 44.6369 15.7455C44.7417 15.8503 44.7941 15.9841 44.7941 16.1471V17.2648C44.7941 17.4278 44.7417 17.5617 44.6369 17.6664C44.5321 17.7712 44.3983 17.8236 44.2353 17.8236H35.6608L35.6609 17.8236ZM32.5 18.103C32.8842 18.103 33.2131 17.9662 33.4867 17.6926C33.7603 17.419 33.8971 17.0902 33.8971 16.706C33.8971 16.3218 33.7603 15.9929 33.4867 15.7193C33.2131 15.4457 32.8842 15.3089 32.5 15.3089C32.1158 15.3089 31.7869 15.4457 31.5133 15.7193C31.2397 15.9929 31.1029 16.3218 31.1029 16.706C31.1029 17.0902 31.2397 17.419 31.5133 17.6926C31.7869 17.9662 32.1158 18.103 32.5 18.103ZM51.5 33.4707C51.5 34.3205 51.2293 35.0831 50.688 35.7584C50.1466 36.4336 49.4626 36.9633 48.636 37.3475C47.8094 37.7317 46.9683 38.0198 46.1126 38.2119C45.2569 38.404 44.4449 38.5001 43.6765 38.5001C42.9081 38.5001 42.0961 38.404 41.2404 38.2119C40.3847 38.0198 39.5435 37.7317 38.7169 37.3475C37.8903 36.9633 37.2064 36.4336 36.665 35.7584C36.1236 35.0831 35.853 34.3205 35.853 33.4707C35.853 33.3426 36.0567 32.8711 36.4642 32.0562C36.8717 31.2412 37.4072 30.2254 38.0708 29.0088C38.7344 27.7922 39.3573 26.6542 39.9394 25.5948C40.5215 24.5353 41.1152 23.4642 41.7206 22.3815C42.326 21.2988 42.652 20.7167 42.6985 20.6352C42.9081 20.251 43.2341 20.0589 43.6765 20.0589C44.1189 20.0589 44.4449 20.251 44.6544 20.6352C44.701 20.7167 45.027 21.2988 45.6324 22.3815C46.2378 23.4642 46.8315 24.5353 47.4136 25.5948C47.9957 26.6542 48.6186 27.7922 49.2822 29.0088C49.9458 30.2254 50.4813 31.2412 50.8888 32.0562C51.2963 32.8711 51.5 33.3426 51.5 33.4707ZM29.1471 33.4707C29.1471 34.3205 28.8764 35.0831 28.335 35.7584C27.7937 36.4336 27.1097 36.9633 26.2831 37.3475C25.4565 37.7317 24.6154 38.0198 23.7597 38.2119C22.904 38.404 22.0919 38.5001 21.3235 38.5001C20.5551 38.5001 19.7431 38.404 18.8874 38.2119C18.0317 38.0198 17.1905 37.7317 16.364 37.3475C15.5374 36.9633 14.8534 36.4336 14.312 35.7584C13.7707 35.0831 13.5 34.3205 13.5 33.4707C13.5 33.3426 13.7037 32.8711 14.1112 32.0562C14.5187 31.2412 15.0542 30.2254 15.7178 29.0088C16.3814 27.7922 17.0043 26.6542 17.5864 25.5948C18.1685 24.5353 18.7623 23.4642 19.3676 22.3815C19.973 21.2988 20.299 20.7167 20.3456 20.6352C20.5552 20.251 20.8811 20.0589 21.3235 20.0589C21.7659 20.0589 22.0919 20.251 22.3015 20.6352C22.348 20.7167 22.674 21.2988 23.2794 22.3815C23.8848 23.4642 24.4786 24.5353 25.0607 25.5948C25.6428 26.6542 26.2656 27.7922 26.9292 29.0088C27.5928 30.2254 28.1284 31.2412 28.5359 32.0562C28.9433 32.8711 29.1471 33.3426 29.1471 33.4707Z" fill="#4E2A84"/>
</g>
<defs>
<clipPath id="clip0_15_116">
<rect width="38" height="38" fill="white" transform="translate(13.5 10)"/>
</clipPath>
</defs>
</svg>
