<svg width="102" height="56" viewBox="0 0 102 56" fill="none" xmlns="http://www.w3.org/2000/svg">
<g id="Group 1321314444">
<path id="Vector" d="M30.0659 33.6011V38.3748H26.2509V42.0253C26.2509 43.4171 25.7512 44.6014 24.7395 45.6025C23.7645 46.6159 22.57 47.1164 21.1683 47.1164H16.2808V42.3427H21.473V22.7107H26.2387V33.6011H30.0659Z" fill="#353535"/>
<path id="Vector_2" d="M62.6337 38.3748H29.8833V33.6011H33.8689V15.6417H38.6955V23.7241C39.305 23.5287 39.9753 23.4311 40.6823 23.4311H50.6768C54.3333 23.4311 57.3926 26.3856 57.4901 30.0361C56.1006 28.8518 54.4186 28.2658 52.4563 28.2658C52.176 28.2658 51.92 28.2902 51.6397 28.3024C54.8452 28.6077 57.3439 30.5123 57.4901 32.8075V33.5889H62.7068C62.7068 33.5889 63.2187 36.3482 66.9118 38.3748H62.6337ZM40.6701 28.2658C39.6219 28.2658 38.7809 29.1082 38.6834 29.9506V33.6011H52.6635V30.2803C52.6635 29.1937 51.7128 28.278 50.6646 28.278L40.6701 28.2658Z" fill="#353535"/>
<path id="Vector_3" d="M80.9772 33.6011H87.303V33.8697C87.1689 35.9086 85.3162 37.7156 83.037 38.3748L73.3594 38.3993C73.3594 38.3993 79.8436 35.64 80.9772 33.6011ZM92.995 33.2959C92.995 34.6877 92.4952 35.872 91.4836 36.8731C90.5085 37.8865 89.3141 38.3871 87.9124 38.3871H83.683C84.9628 38.094 85.9135 37.6179 86.6813 36.9586C87.7661 35.9819 88.2902 34.7244 88.2293 33.1372V15.2022H92.995V33.2959Z" fill="#353535"/>
<path id="Vector_4" d="M101.6 15.2022H96.8098V38.3749H101.6V15.2022Z" fill="#353535"/>
<path id="Vector_5" d="M3.349 17.2655C3.82435 17.705 4.36064 17.9126 5.03101 17.9126C5.66481 17.9126 6.21329 17.705 6.68864 17.2655C7.16398 16.8626 7.40775 16.2888 7.40775 15.5684C7.40775 14.1034 6.32298 13.1999 5.01882 13.1999C3.71466 13.1999 2.62988 14.1034 2.62988 15.5684C2.65426 16.3132 2.87365 16.8626 3.349 17.2655Z" fill="#353535"/>
<path id="Vector_6" d="M9.61371 22.7107H7.05414C5.16493 22.7107 3.56824 23.3822 2.28846 24.7008C0.959915 25.9949 0.289551 27.5821 0.289551 29.4745V31.611C0.289551 33.4424 0.898973 34.9929 2.20314 36.3115C3.44636 37.6056 4.99429 38.3016 6.83475 38.3748C5.6159 36.9952 5.05523 35.3348 5.05523 33.3691C5.05523 33.2226 5.06742 33.0517 5.07961 32.8808C4.55551 32.2581 4.23861 31.4645 4.23861 30.5977C4.23861 28.6443 5.8231 27.0571 7.78544 27.0571C8.19985 27.0571 8.58988 27.1303 8.95553 27.2524L9.61371 23.1014V27.5699C10.6375 28.1925 11.3201 29.3157 11.3201 30.6099C11.3201 32.5633 9.73559 34.1505 7.77326 34.1505C6.73724 34.1505 5.79873 33.6988 5.15274 32.9907C5.33557 34.4069 5.81092 35.5912 6.57879 36.6411C7.43198 37.7277 8.43143 38.3016 9.57715 38.3992H14.3916V27.2036L9.61371 22.7107Z" fill="#353535"/>
<path id="Vector_7" d="M8.56555 17.2655C9.0409 17.705 9.57719 17.9126 10.2476 17.9126C10.8814 17.9126 11.4298 17.705 11.9052 17.2655C12.3805 16.8626 12.6243 16.2888 12.6243 15.5684C12.6243 14.1034 11.5395 13.1999 10.2354 13.1999C8.93121 13.1999 7.84644 14.1034 7.84644 15.5684C7.85862 16.3132 8.0902 16.8626 8.56555 17.2655Z" fill="#353535"/>
<path id="Vector_8" d="M5.06738 32.8808C5.09171 32.9174 5.11604 32.9418 5.15253 32.9785C5.14036 32.8442 5.11604 32.6977 5.10387 32.5511C5.09171 32.661 5.07955 32.7709 5.06738 32.8808Z" fill="#353535"/>
<path id="Vector_9" d="M69.7515 15.4463C69.8246 16.7038 70.9094 17.6683 72.1648 17.5951C73.4202 17.5218 74.3831 16.4352 74.3099 15.1777C74.2368 13.9202 73.152 12.9557 71.8966 13.0289C70.6412 13.1022 69.6783 14.1888 69.7515 15.4463Z" fill="#353535"/>
<path id="Vector_10" d="M71.0802 22.5032C66.9361 23.1258 63.694 26.6054 63.7184 30.732C63.694 34.8586 66.9361 38.3382 71.0802 38.9609C66.3267 39.7789 61.8901 35.4813 61.9998 30.732C61.9023 25.9827 66.3389 21.6852 71.0802 22.5032Z" fill="#353535"/>
<path id="Vector_11" d="M78.0885 31.6721C79.027 27.5821 76.9672 23.2845 73.1278 21.8072C69.3006 20.2811 64.8884 22.027 62.792 25.6653C63.7671 20.9404 69.3738 18.3643 73.7616 20.2079C78.2104 21.8316 80.5871 27.5454 78.0885 31.6721Z" fill="#353535"/>
<path id="Vector_12" d="M73.7739 35.7499C77.8448 34.761 80.7578 30.9884 80.3556 26.8862C80.0143 22.7717 76.4675 19.6096 72.2869 19.3532C76.9429 18.1079 81.7451 21.9904 82.062 26.7275C82.5983 31.4645 78.5761 36.1406 73.7739 35.7499Z" fill="#353535"/>
<path id="Vector_13" d="M66.9116 25.1036C65.2784 28.9617 66.5459 33.5645 70.0684 35.6888C73.5665 37.8742 78.2225 36.9219 80.9161 33.711C79.1244 38.1917 73.1521 39.73 69.1665 37.1539C65.0712 34.7609 63.7304 28.7297 66.9116 25.1036Z" fill="#353535"/>
<path id="Vector_14" d="M30.3708 55.5895C30.3952 55.3819 30.4074 54.9668 30.4318 54.7714C30.4805 54.5029 30.5293 54.222 30.5781 53.9534C30.6756 53.6238 30.7609 53.1965 30.895 52.8913C30.9681 52.7326 31.0168 52.525 31.1022 52.3663C31.1387 52.2686 31.3703 51.8169 31.4069 51.7314L31.48 51.6093L31.6263 51.3651C32.0894 50.5471 32.6988 49.8024 33.3448 49.1309C34.1493 48.3373 35.0512 47.617 36.0141 47.031C36.977 46.4327 38.0374 45.9566 39.11 45.5781C44.6313 43.6613 50.6402 44.2351 56.2591 45.3827C63.2675 46.7502 70.4343 48.1908 77.5767 48.3862C81.7452 48.496 86.2427 48.5693 89.9845 46.4938C91.1912 45.7856 92.2516 44.7845 92.9707 43.5026C92.4954 44.9066 91.5447 46.1397 90.3746 47.0554C86.3036 50.132 80.2825 50.2908 75.3706 50.3274C70.2271 50.3274 65.1079 49.5582 60.0741 48.5937C54.5283 47.5437 48.8607 45.9566 43.1931 46.5182C41.8158 46.6525 40.4263 46.8845 39.0978 47.2751C35.0756 48.4228 31.2728 51.3285 30.3708 55.5895Z" fill="#353535"/>
<path id="Vector_15" d="M8.89466 12.4185C8.48025 8.1698 12.9656 5.78905 16.5612 5.16639C18.1944 4.84896 19.9008 4.84896 21.5585 4.93442C27.1895 5.25186 32.8206 7.05878 38.3663 7.3518C41.5475 7.4861 46.106 7.70586 48.0927 4.72687C47.1786 7.60819 43.8389 8.60932 41.1575 9.01222C38.3785 9.42733 35.5386 9.35407 32.7596 9.00001C28.5424 8.47502 24.2887 7.38843 20.0593 7.07099C18.1213 6.90007 16.1712 6.98553 14.2941 7.47389C11.698 8.13317 9.3822 9.61046 8.89466 12.4185Z" fill="#353535"/>
<path id="Vector_16" d="M52.5414 7.1931V1.86999H50.5547V1.16187H55.3326V1.86999H53.3337V7.1931H52.5414Z" fill="#353535"/>
<path id="Vector_17" d="M53.48 7.32742H52.4196V2.00431H50.4329V1.02759H55.4667V2.00431H53.4678L53.48 7.32742ZM52.6755 7.05882H53.1996V1.73571H55.1985V1.29619H50.6888V1.73571H52.6755V7.05882Z" fill="#353535"/>
<path id="Vector_18" d="M56.0518 7.1931V1.16187H56.7953V3.32285C57.1365 2.91996 57.5753 2.72461 58.1116 2.72461C58.7942 2.72461 59.2451 2.96879 59.4645 3.44494C59.562 3.67691 59.623 3.99435 59.623 4.42166V7.1931H58.8795V4.42166C58.8795 3.71354 58.5748 3.35948 57.9532 3.35948C57.7338 3.35948 57.5266 3.42053 57.3315 3.53041C57.1365 3.64029 57.0025 3.799 56.9171 3.99435C56.8318 4.18969 56.7953 4.45829 56.7953 4.80014V7.1931H56.0518Z" fill="#353535"/>
<path id="Vector_19" d="M59.7449 7.32742H58.7333V4.42168C58.7333 3.78682 58.4895 3.4938 57.941 3.4938C57.746 3.4938 57.5632 3.54264 57.3925 3.64031C57.2219 3.73798 57.1122 3.87228 57.0391 4.04321C56.9659 4.22634 56.9294 4.47052 56.9294 4.80016V7.32742H55.9177V1.02759H56.9294V3.00544C57.2585 2.73684 57.6485 2.59034 58.0995 2.59034C58.8308 2.59034 59.3305 2.85893 59.5743 3.38392C59.684 3.6281 59.7449 3.96995 59.7449 4.42168V7.32742ZM59.0136 7.05882H59.4768V4.42168C59.4768 4.01879 59.428 3.70135 59.3305 3.4938C59.1355 3.06649 58.7333 2.85893 58.0995 2.85893C57.6119 2.85893 57.2097 3.04207 56.8928 3.40834L56.6612 3.67694V1.28398H56.1981V7.05882H56.6612V4.80016C56.6612 4.43389 56.71 4.15309 56.7953 3.93332C56.8928 3.71356 57.0513 3.53043 57.2585 3.40834C57.4657 3.28625 57.6972 3.2252 57.941 3.2252C58.4285 3.2252 59.0014 3.43276 59.0014 4.42168L59.0136 7.05882Z" fill="#353535"/>
<path id="Vector_20" d="M63.7304 5.78906L64.4983 5.88673C64.2423 6.82682 63.6085 7.30297 62.5847 7.30297C61.9144 7.30297 61.3902 7.09542 61.0246 6.66811C60.6711 6.26521 60.5005 5.72802 60.5005 5.04431C60.5005 4.37282 60.6711 3.82342 61.0124 3.40831C61.3781 2.95658 61.89 2.73682 62.5481 2.73682C63.1941 2.73682 63.6817 2.95658 64.0351 3.40831C64.3642 3.82342 64.5227 4.36061 64.5227 5.00769C64.5227 5.05652 64.5227 5.11757 64.5227 5.20303H61.2684C61.2927 5.63034 61.4146 5.9722 61.6218 6.24079C61.8534 6.53381 62.1825 6.68032 62.5847 6.68032C63.1332 6.68032 63.511 6.3873 63.7304 5.78906ZM61.2927 4.59258H63.7304C63.6939 4.22631 63.6085 3.9455 63.4501 3.76237C63.2185 3.48156 62.9138 3.33506 62.536 3.33506C62.1703 3.33506 61.8778 3.45715 61.6584 3.70133C61.439 3.9333 61.3171 4.22631 61.2927 4.59258Z" fill="#353535"/>
<path id="Vector_21" d="M62.5725 7.43724C61.8656 7.43724 61.305 7.20527 60.9149 6.75353C60.5493 6.32622 60.3542 5.7524 60.3542 5.04428C60.3542 4.33616 60.5371 3.76233 60.8905 3.32281C61.2806 2.84666 61.8291 2.59027 62.536 2.59027C63.2185 2.59027 63.7548 2.83445 64.1327 3.3106C64.4739 3.75013 64.6568 4.31174 64.6568 4.99544C64.6568 5.04428 64.6568 5.10532 64.6568 5.20299V5.33729H61.4146C61.4512 5.66693 61.5609 5.94774 61.7194 6.15529C61.9266 6.42389 62.2069 6.54598 62.5847 6.54598C63.0723 6.54598 63.4135 6.27738 63.6086 5.74019L63.6451 5.64252L64.669 5.77682L64.6324 5.92332C64.3521 6.92446 63.6573 7.43724 62.5725 7.43724ZM62.536 2.85887C61.9144 2.85887 61.4512 3.06642 61.1099 3.48153C60.793 3.87221 60.6346 4.3972 60.6346 5.04428C60.6346 5.69135 60.8052 6.20413 61.1221 6.5704C61.4634 6.96109 61.9387 7.15643 62.5725 7.15643C63.4867 7.15643 64.0595 6.77795 64.3155 5.99658L63.8158 5.93553C63.572 6.52156 63.1576 6.81458 62.5725 6.81458C62.1216 6.81458 61.7559 6.64365 61.5 6.31401C61.2684 6.0332 61.1465 5.65473 61.1221 5.20299L61.1099 5.05649H64.3764C64.3764 5.03207 64.3764 5.00765 64.3764 4.99544C64.3764 4.37278 64.218 3.86001 63.9133 3.46932C63.5842 3.06642 63.1332 2.85887 62.536 2.85887ZM63.8889 4.72684H61.1587L61.1709 4.58034C61.1953 4.18965 61.3293 3.86001 61.5731 3.60362C61.8291 3.33502 62.1581 3.20072 62.5482 3.20072C62.9626 3.20072 63.3039 3.35944 63.5598 3.67687C63.7305 3.88442 63.8401 4.18965 63.8767 4.58034L63.8889 4.72684ZM61.4512 4.45825H63.5842C63.5476 4.18965 63.4623 3.9943 63.3526 3.8478C63.1454 3.59141 62.8773 3.46932 62.5482 3.46932C62.2191 3.46932 61.9631 3.5792 61.7681 3.78675C61.5853 3.96989 61.4878 4.18965 61.4512 4.45825Z" fill="#353535"/>
<path id="Vector_22" d="M65.4126 7.1931V2.82228H66.0708V3.48157C66.3511 2.981 66.668 2.72461 67.0215 2.72461C67.2652 2.72461 67.5212 2.79786 67.7893 2.95658L67.5334 3.64028C67.3506 3.5304 67.1677 3.48157 66.9849 3.48157C66.6314 3.48157 66.3877 3.6647 66.278 4.03097C66.1927 4.28736 66.1561 4.58037 66.1561 4.89781V7.18089L65.4126 7.1931Z" fill="#353535"/>
<path id="Vector_23" d="M66.2902 7.32736H65.2786V2.68794H66.2171V3.042C66.4608 2.74899 66.729 2.59027 67.0337 2.59027C67.3018 2.59027 67.5822 2.67573 67.8625 2.84666L67.96 2.90771L67.6066 3.8478L67.4725 3.76233C67.314 3.66466 67.1556 3.61583 66.9971 3.61583C66.7046 3.61583 66.5218 3.76233 66.4121 4.07977C66.339 4.32395 66.2902 4.60475 66.2902 4.90998V7.32736ZM65.5467 7.05876H66.0099V4.90998C66.0099 4.58033 66.0586 4.27511 66.1439 4.00651C66.278 3.5792 66.5705 3.35944 66.9849 3.35944C67.1434 3.35944 67.3018 3.39607 67.4603 3.46932L67.6187 3.0298C67.4115 2.91991 67.2165 2.87108 67.0215 2.87108C66.729 2.87108 66.4487 3.10305 66.1927 3.55478L65.9367 4.01872V2.96875H65.5467V7.05876Z" fill="#353535"/>
<path id="Vector_24" d="M71.068 6.6559C70.5683 7.08322 70.032 7.29077 69.4592 7.29077C69.0326 7.29077 68.6913 7.1931 68.4231 6.98555C68.1184 6.76578 67.9722 6.44835 67.9722 6.03325C67.9722 5.59372 68.1428 5.26408 68.4963 5.0199C68.6547 4.91002 68.8375 4.82456 69.0326 4.77572C69.1788 4.73909 69.3982 4.70247 69.6907 4.66584C70.288 4.59259 70.7268 4.50712 71.0071 4.40945C71.0071 4.31178 71.0071 4.23853 71.0071 4.21411C71.0071 3.90888 70.934 3.70133 70.7999 3.57924C70.6171 3.40831 70.3245 3.32285 69.9589 3.32285C69.6176 3.32285 69.3738 3.3839 69.2154 3.49378C69.0326 3.61587 68.9107 3.83563 68.8254 4.15306L68.0941 4.05539C68.2281 3.44494 68.5572 3.05426 69.0691 2.85891C69.3495 2.76124 69.6786 2.7124 70.0564 2.7124C70.7511 2.7124 71.2143 2.87112 71.4824 3.17634C71.5921 3.31064 71.6653 3.48157 71.714 3.67691C71.7384 3.799 71.7506 4.03097 71.7506 4.36061V5.34954C71.7506 5.93557 71.7506 6.2408 71.7506 6.27743C71.775 6.6437 71.8481 6.93671 71.9822 7.16868H71.2143C71.1412 7.04659 71.0924 6.86346 71.068 6.6559ZM71.0071 4.99548C70.7389 5.10536 70.3367 5.20303 69.8004 5.27629C69.5567 5.31292 69.386 5.33733 69.2885 5.37396C69.0935 5.43501 68.9472 5.53268 68.8619 5.66698C68.7888 5.77686 68.7522 5.88674 68.7522 6.02104C68.7522 6.25301 68.8497 6.43614 69.0326 6.55823C69.191 6.66811 69.3982 6.71695 69.642 6.71695C70.2514 6.71695 70.6658 6.48498 70.8974 6.02104C70.9827 5.85011 71.0193 5.60593 71.0193 5.27629L71.0071 4.99548Z" fill="#353535"/>
<path id="Vector_25" d="M69.459 7.4373C69.008 7.4373 68.6301 7.32742 68.3376 7.10766C68.0085 6.86348 67.8379 6.50942 67.8379 6.04547C67.8379 5.56932 68.0329 5.19085 68.4229 4.92225C68.5936 4.80016 68.7886 4.7147 68.9958 4.66586C69.1421 4.62923 69.3614 4.5804 69.6662 4.54377C70.1903 4.48272 70.6047 4.40947 70.8728 4.32401C70.8728 4.27517 70.8728 4.25076 70.8728 4.22634C70.8728 3.96995 70.8119 3.78681 70.7144 3.68914C70.5559 3.54263 70.3 3.46938 69.9587 3.46938C69.654 3.46938 69.4224 3.51822 69.2883 3.61589C69.1421 3.72577 69.0324 3.92111 68.9592 4.20192L68.9349 4.3118L67.9476 4.1775L67.972 4.03099C68.1182 3.38392 68.4717 2.94439 69.0445 2.73684C69.3371 2.62696 69.6905 2.57812 70.0806 2.57812C70.8119 2.57812 71.3238 2.74905 71.6041 3.0909C71.726 3.23741 71.8235 3.43275 71.8601 3.65252C71.8845 3.78681 71.8966 4.01878 71.8966 4.36063V5.34956C71.8966 6.06989 71.8966 6.24082 71.8966 6.27745C71.921 6.6193 71.9941 6.9001 72.116 7.11986L72.2257 7.32742H71.141L71.1044 7.25416C71.0435 7.14428 71.0069 7.0344 70.9825 6.9001C70.5072 7.25416 69.9952 7.4373 69.459 7.4373ZM69.9587 3.20078C70.3609 3.20078 70.6778 3.29845 70.8972 3.48159C71.0678 3.6281 71.1531 3.87228 71.1531 4.21413C71.1531 4.23855 71.1531 4.3118 71.1531 4.40947V4.50714L71.0678 4.54377C70.7753 4.65365 70.3365 4.73911 69.7149 4.81237C69.4224 4.849 69.2152 4.88562 69.0811 4.92225C68.8983 4.97108 68.7398 5.04434 68.5814 5.14201C68.2645 5.34956 68.1182 5.64258 68.1182 6.04547C68.1182 6.41174 68.2401 6.69255 68.5083 6.8879C68.752 7.07103 69.0811 7.15649 69.4711 7.15649C70.0074 7.15649 70.5194 6.94894 70.9947 6.54604L71.1897 6.37512L71.2141 6.63151C71.2263 6.79022 71.2628 6.92452 71.3116 7.04661H71.7869C71.7016 6.83906 71.6529 6.58267 71.6285 6.28965C71.6285 6.26524 71.6285 6.11873 71.6285 5.34956V4.36063C71.6285 3.94553 71.6041 3.7746 71.5919 3.70135C71.5554 3.51822 71.4944 3.37171 71.3969 3.26183C71.1653 2.99323 70.7266 2.84672 70.0806 2.84672C69.7149 2.84672 69.398 2.89556 69.1299 2.99323C68.6911 3.15195 68.4107 3.46938 68.2767 3.94553L68.7398 4.00658C68.8373 3.71356 68.9714 3.50601 69.1421 3.38392C69.3249 3.27404 69.593 3.20078 69.9587 3.20078ZM69.6418 6.85127C69.3736 6.85127 69.1421 6.79022 68.9592 6.66813C68.7398 6.52163 68.618 6.30186 68.618 6.02106C68.618 5.86234 68.6545 5.71583 68.7398 5.59374C68.8373 5.43503 69.008 5.32514 69.2274 5.25189C69.3371 5.21526 69.5077 5.19085 69.7637 5.15422C70.2878 5.08096 70.6778 4.98329 70.9459 4.88562L71.1288 4.81237V5.28852C71.1288 5.64258 71.0922 5.89897 70.9947 6.0821C70.7631 6.59488 70.3 6.85127 69.6418 6.85127ZM70.8728 5.19085C70.6047 5.27631 70.2634 5.34956 69.8124 5.41061C69.5808 5.44723 69.4102 5.47165 69.3127 5.50828C69.1542 5.55712 69.0324 5.64258 68.9714 5.74025C68.9105 5.82571 68.8861 5.91118 68.8861 6.02106C68.8861 6.20419 68.9592 6.33849 69.1055 6.43616C69.2396 6.53383 69.4224 6.57046 69.6296 6.57046C70.1903 6.57046 70.5559 6.36291 70.7631 5.9478C70.8362 5.80129 70.8728 5.56932 70.8728 5.2641V5.19085Z" fill="#353535"/>
<path id="Vector_26" d="M72.8962 8.87793V2.83449H73.5666V3.3961C73.8835 2.95658 74.3101 2.73682 74.8342 2.73682C75.6143 2.73682 76.1627 3.10309 76.4675 3.83562C76.6137 4.18969 76.6868 4.56816 76.6868 4.98327C76.6868 5.94778 76.37 6.61927 75.7483 7.00996C75.4436 7.2053 75.1145 7.30297 74.7854 7.30297C74.3101 7.30297 73.9323 7.11984 73.6397 6.75357V8.87793H72.8962ZM73.5666 5.0321C73.5666 5.47163 73.6519 5.8379 73.8104 6.13091C74.0176 6.49718 74.3223 6.68032 74.7367 6.68032C75.1633 6.68032 75.468 6.48497 75.6874 6.10649C75.858 5.80127 75.9434 5.42279 75.9434 4.97106C75.9434 4.53154 75.858 4.16527 75.6874 3.86004C75.4802 3.48156 75.1755 3.29843 74.7733 3.29843C74.371 3.29843 74.0541 3.49377 73.8348 3.88446C73.6641 4.22631 73.5666 4.60479 73.5666 5.0321Z" fill="#353535"/>
<path id="Vector_27" d="M73.7738 9.01225H72.7622V2.70021H73.7129V3.04206C74.0176 2.74905 74.3955 2.60254 74.8464 2.60254C75.6874 2.60254 76.2847 2.99323 76.6016 3.78681C76.7478 4.15308 76.821 4.55598 76.821 4.9955C76.821 6.00885 76.4797 6.72917 75.8215 7.14428C75.4924 7.35183 75.1511 7.4495 74.7855 7.4495C74.3955 7.4495 74.0542 7.32741 73.7738 7.09544V9.01225ZM73.0425 8.73145H73.5057V6.3507L73.7495 6.65592C74.0176 6.99777 74.3589 7.15649 74.7977 7.15649C75.1024 7.15649 75.4071 7.07103 75.6874 6.88789C76.2725 6.52162 76.565 5.89896 76.565 4.97108C76.565 4.56818 76.4919 4.20191 76.3578 3.87227C76.0775 3.18857 75.5777 2.85893 74.8464 2.85893C74.3589 2.85893 73.981 3.05427 73.6885 3.46938L73.4448 3.81123V2.9566H73.0425V8.73145ZM74.7367 6.82685C74.2736 6.82685 73.9201 6.61929 73.7007 6.2164C73.5301 5.89896 73.4326 5.50828 73.4326 5.04433C73.4326 4.58039 73.5301 4.1775 73.7129 3.83565C73.9567 3.39612 74.3101 3.17636 74.7733 3.17636C75.2243 3.17636 75.5777 3.38391 75.8093 3.79902C75.9921 4.11645 76.0775 4.51935 76.0775 4.97108C76.0775 5.44723 75.9921 5.85013 75.8093 6.17977C75.5655 6.60708 75.2121 6.82685 74.7367 6.82685ZM74.7733 3.44496C74.4198 3.44496 74.1517 3.61588 73.9567 3.96994C73.7982 4.26296 73.7129 4.62923 73.7129 5.04433C73.7129 5.45944 73.786 5.8135 73.9445 6.0821C74.1273 6.39953 74.3833 6.55825 74.7489 6.55825C75.1146 6.55825 75.3949 6.39953 75.5777 6.05768C75.7362 5.77687 75.8093 5.42281 75.8093 4.98329C75.8093 4.56818 75.724 4.22633 75.5777 3.94553C75.3827 3.60368 75.1268 3.44496 74.7733 3.44496Z" fill="#353535"/>
<path id="Vector_28" d="M77.5521 8.87792L77.4668 8.18201C77.6253 8.23084 77.7715 8.24305 77.8934 8.24305C78.1859 8.24305 78.3931 8.13317 78.5272 7.92562C78.576 7.85237 78.6491 7.66923 78.7588 7.37622C78.7832 7.31517 78.7954 7.25413 78.8197 7.19308L77.1621 2.82227H77.9544L78.8685 5.36173C78.9904 5.71579 79.1001 6.04544 79.1854 6.37508C79.2707 6.02102 79.3804 5.69138 79.4901 5.37394L80.4164 2.82227H81.1599L79.5023 7.26633C79.3195 7.75469 79.1854 8.08434 79.0879 8.25526C78.8319 8.73141 78.4785 8.96338 78.0275 8.96338C77.8812 8.97559 77.7228 8.93896 77.5521 8.87792Z" fill="#353535"/>
<path id="Vector_29" d="M78.0277 9.10991C77.8692 9.10991 77.6986 9.07328 77.5036 9.01224L77.4183 8.98782L77.2964 8.0111L77.4914 8.05994C77.6376 8.09656 77.7717 8.12098 77.8814 8.12098C78.1252 8.12098 78.2958 8.03552 78.4055 7.8768C78.4299 7.84018 78.4908 7.71808 78.6249 7.35182C78.6371 7.30298 78.6615 7.26635 78.6737 7.21752L76.9673 2.7002H78.0521L78.9906 5.32513C79.0515 5.50826 79.1246 5.7036 79.1734 5.88674C79.2343 5.7036 79.2953 5.52047 79.3562 5.33733L80.3191 2.7002H81.3429L79.6122 7.3274C79.4293 7.82797 79.2831 8.15761 79.1856 8.34074C78.9296 8.84131 78.5274 9.10991 78.0277 9.10991ZM77.6742 8.78027C77.8083 8.81689 77.918 8.84131 78.0277 8.84131C78.4299 8.84131 78.7346 8.63376 78.9662 8.20644C79.0515 8.03552 79.1978 7.70588 79.3684 7.22973L80.9529 2.96879H80.5019L79.6 5.4228C79.4903 5.74023 79.3806 6.06987 79.2953 6.41172L79.1612 6.9245L79.0271 6.41172C78.9418 6.09429 78.8443 5.75244 78.7224 5.41059L77.8448 2.96879H77.3451L78.9418 7.21752L78.9296 7.26635C78.9052 7.3274 78.8931 7.37624 78.8687 7.43728C78.7224 7.84018 78.6615 7.96226 78.6249 8.02331C78.4665 8.26749 78.2227 8.40179 77.8814 8.40179C77.7961 8.40179 77.7108 8.38958 77.6133 8.37737L77.6742 8.78027Z" fill="#353535"/>
<path id="Vector_30" d="M87.6809 4.83678V4.12866H90.2283V6.36291C89.4482 6.99777 88.6072 7.31521 87.7297 7.31521C87.1446 7.31521 86.6205 7.19312 86.1574 6.94894C85.6454 6.69255 85.2798 6.31407 85.0238 5.83792C84.7679 5.36177 84.646 4.81237 84.646 4.22634C84.646 3.65251 84.7557 3.11532 84.9873 2.62696C85.2432 2.08976 85.5967 1.69908 86.0599 1.44269C86.523 1.1863 87.0593 1.06421 87.6565 1.06421C88.5707 1.06421 89.241 1.33281 89.6676 1.87C89.8626 2.12639 90.0211 2.45603 90.1308 2.85893L89.4117 3.05427C89.241 2.46824 88.9363 2.08976 88.4975 1.90663C88.2538 1.79675 87.9734 1.74791 87.6687 1.74791C86.974 1.74791 86.4377 1.94326 86.0842 2.34615C85.682 2.79788 85.4748 3.39612 85.4748 4.15308C85.4748 5.22747 85.8405 5.9478 86.5596 6.30186C86.913 6.47279 87.2909 6.57046 87.6809 6.57046C87.9734 6.57046 88.2903 6.50942 88.6072 6.39953C88.9485 6.28965 89.2289 6.13094 89.4361 5.93559V4.81237L87.6809 4.83678Z" fill="#353535"/>
<path id="Vector_31" d="M87.7295 7.43726C87.1322 7.43726 86.5838 7.31517 86.0962 7.05878C85.5721 6.79018 85.1699 6.38729 84.9018 5.88672C84.6458 5.38615 84.5117 4.82454 84.5117 4.21409C84.5117 3.61585 84.6336 3.06645 84.8652 2.55367C85.1333 1.99205 85.5112 1.57695 85.9987 1.30835C86.4862 1.05196 87.0347 0.917664 87.6563 0.917664C88.607 0.917664 89.3262 1.21068 89.7649 1.77229C89.9721 2.04089 90.1306 2.38274 90.2525 2.81006L90.289 2.94436L89.314 3.21295L89.2774 3.09086C89.119 2.55367 88.8386 2.19961 88.4364 2.02868C88.2048 1.93101 87.9489 1.88217 87.6685 1.88217C87.0104 1.88217 86.5106 2.06531 86.1815 2.44379C85.8037 2.8711 85.6087 3.44492 85.6087 4.16525C85.6087 5.20302 85.9378 5.8623 86.6203 6.19194C87.2054 6.48496 87.8514 6.5338 88.5705 6.27741C88.8752 6.17973 89.1189 6.04543 89.3018 5.88672V4.95884H87.5345V3.98212H90.35V6.42391L90.3012 6.46054C89.509 7.10762 88.6314 7.43726 87.7295 7.43726ZM87.6685 1.19847C87.0957 1.19847 86.5716 1.32056 86.1328 1.55253C85.694 1.7845 85.3527 2.16298 85.109 2.67576C84.8896 3.1397 84.7799 3.65248 84.7799 4.21409C84.7799 4.7757 84.9018 5.30069 85.1455 5.76463C85.3771 6.21636 85.7428 6.58263 86.2181 6.82681C86.6691 7.05878 87.1688 7.16866 87.7295 7.16866C88.5583 7.16866 89.3383 6.87565 90.0818 6.28961V4.25072H87.8026V4.69024H89.5699V6.00881L89.5212 6.04543C89.3018 6.24078 89.0093 6.4117 88.6436 6.53379C87.8514 6.80239 87.1322 6.75356 86.4862 6.43612C85.7184 6.05764 85.3283 5.28848 85.3283 4.16525C85.3283 3.38388 85.5477 2.7368 85.9743 2.26065C86.3644 1.83334 86.925 1.61358 87.6685 1.61358C87.9854 1.61358 88.278 1.67462 88.5461 1.7845C88.9849 1.96764 89.3018 2.34611 89.4968 2.89552L89.96 2.77343C89.8624 2.44379 89.7284 2.17519 89.5699 1.96764C89.1799 1.44265 88.5461 1.19847 87.6685 1.19847Z" fill="#353535"/>
<path id="Vector_32" d="M91.2763 8.87792L91.1909 8.18201C91.3494 8.23085 91.4957 8.24305 91.6175 8.24305C91.9101 8.24305 92.1173 8.13317 92.2513 7.92562C92.3001 7.85237 92.3732 7.66923 92.4829 7.37622C92.5073 7.31517 92.5195 7.25413 92.5439 7.19308L90.8862 2.81006H91.6785L92.5926 5.34953C92.7145 5.70359 92.8242 6.03323 92.9095 6.36287C92.9948 6.00881 93.1045 5.67917 93.2142 5.36174L94.1405 2.81006H94.884L93.2264 7.25413C93.0436 7.74249 92.9095 8.07213 92.812 8.24305C92.5561 8.7192 92.2026 8.95118 91.7516 8.95118C91.6175 8.97559 91.4469 8.93897 91.2763 8.87792Z" fill="#353535"/>
<path id="Vector_33" d="M91.7518 9.10991C91.5934 9.10991 91.4227 9.07328 91.2277 9.01224L91.1424 8.98782L91.0205 8.0111L91.2155 8.05994C91.3618 8.09656 91.4958 8.12098 91.6055 8.12098C91.8493 8.12098 92.0199 8.03552 92.1296 7.8768C92.154 7.84018 92.215 7.71808 92.349 7.35182C92.3612 7.30298 92.3856 7.26635 92.3978 7.21752L90.6914 2.7002H91.7762L92.7147 5.32513C92.7756 5.50826 92.8488 5.7036 92.8975 5.88674C92.9585 5.7036 93.0194 5.52047 93.0803 5.33733L94.0432 2.7002H95.0671L93.3363 7.3274C93.1535 7.82797 93.0072 8.15761 92.9097 8.34074C92.6537 8.84131 92.2515 9.10991 91.7518 9.10991ZM91.3983 8.78027C91.5324 8.81689 91.6421 8.84131 91.7518 8.84131C92.154 8.84131 92.4587 8.63376 92.6903 8.20644C92.7756 8.03552 92.9219 7.70588 93.0925 7.22973L94.677 2.96879H94.2261L93.3241 5.4228C93.2144 5.74023 93.1047 6.06987 93.0194 6.41172L92.8853 6.9245L92.7513 6.41172C92.6659 6.09429 92.5684 5.75244 92.4465 5.41059L91.569 2.96879H91.0692L92.6659 7.21752L92.6537 7.26635C92.6294 7.3274 92.6172 7.37624 92.5928 7.43728C92.4465 7.84018 92.3856 7.96226 92.349 8.02331C92.1906 8.26749 91.9468 8.40179 91.6055 8.40179C91.5202 8.40179 91.4349 8.38958 91.3374 8.37737L91.3983 8.78027Z" fill="#353535"/>
<path id="Vector_34" d="M95.5181 7.1931V2.82228H96.1762V3.43273C96.481 2.95658 96.9197 2.72461 97.5048 2.72461C98.1508 2.72461 98.553 2.981 98.7358 3.49378C99.0771 2.981 99.5281 2.72461 100.077 2.72461C100.978 2.72461 101.429 3.21297 101.429 4.18969V7.1931H100.686V4.43387C100.686 3.9333 100.576 3.61586 100.357 3.48157C100.235 3.40831 100.077 3.35948 99.9059 3.35948C99.199 3.35948 98.8333 3.78679 98.8333 4.65363V7.1931H98.0898V4.3484C98.0898 3.68912 97.8339 3.35948 97.322 3.35948C96.8466 3.35948 96.5297 3.57924 96.3591 4.00655C96.2738 4.22631 96.2372 4.51933 96.2372 4.92223V7.1931H95.5181Z" fill="#353535"/>
<path id="Vector_35" d="M101.576 7.32736H100.564V4.43383C100.564 3.9943 100.479 3.70129 100.296 3.59141C100.186 3.53036 100.064 3.49374 99.9179 3.49374C99.2841 3.49374 98.9794 3.86001 98.9794 4.65359V7.32736H97.9677V4.34837C97.9677 3.5792 97.6021 3.49374 97.3339 3.49374C96.9195 3.49374 96.6392 3.67687 96.5051 4.05535C96.432 4.25069 96.3954 4.54371 96.3954 4.92219V7.32736H95.3838V2.68794H96.3223V3.05421C96.627 2.74899 97.0292 2.59027 97.5168 2.59027C98.1262 2.59027 98.5406 2.81003 98.7844 3.22514C99.1378 2.81003 99.5766 2.59027 100.101 2.59027C101.076 2.59027 101.588 3.13968 101.588 4.18965L101.576 7.32736ZM100.832 7.05876H101.295V4.18965C101.295 3.28618 100.905 2.85887 100.076 2.85887C99.5644 2.85887 99.1622 3.09084 98.8453 3.56699L98.699 3.78675L98.6137 3.53036C98.4553 3.07863 98.0896 2.85887 97.5046 2.85887C96.9683 2.85887 96.5783 3.06642 96.2979 3.50594L96.0542 3.89663V2.95654H95.6641V7.05876H96.1273V4.92219C96.1273 4.50708 96.176 4.18965 96.2614 3.95768C96.4442 3.46932 96.8098 3.22514 97.3461 3.22514C97.7605 3.22514 98.2481 3.42048 98.2481 4.34837V7.05876H98.7112V4.65359C98.7112 3.48153 99.3694 3.22514 99.9179 3.22514C100.113 3.22514 100.284 3.27397 100.442 3.35944C100.71 3.53036 100.832 3.87221 100.832 4.43383V7.05876Z" fill="#353535"/>
</g>
</svg>
