<svg width="25" height="25" viewBox="0 0 25 25" fill="none" xmlns="http://www.w3.org/2000/svg">
<path fill-rule="evenodd" clip-rule="evenodd" d="M12.5572 1.7876C14.7479 1.78759 16.4686 1.78758 17.812 1.96819C19.1886 2.15328 20.2809 2.54031 21.1391 3.39851C21.9973 4.25671 22.3843 5.34897 22.5694 6.72562C22.75 8.06904 22.75 9.7897 22.75 11.9804V12.0948C22.75 14.2855 22.75 16.0062 22.5694 17.3496C22.3843 18.7262 21.9973 19.8185 21.1391 20.6767C20.2809 21.5349 19.1886 21.9219 17.812 22.107C16.4686 22.2876 14.7479 22.2876 12.5572 22.2876H12.4428C10.2521 22.2876 8.53144 22.2876 7.18802 22.107C5.81137 21.9219 4.71911 21.5349 3.86091 20.6767C3.00272 19.8185 2.61568 18.7262 2.43059 17.3496C2.24998 16.0062 2.24999 14.2855 2.25 12.0948V11.9804C2.24999 9.78972 2.24998 8.06904 2.43059 6.72562C2.61568 5.34897 3.00272 4.25671 3.86091 3.39851C4.71911 2.54031 5.81137 2.15328 7.18802 1.96819C8.53143 1.78758 10.2521 1.78759 12.4428 1.7876H12.5572ZM17 12.0376C17 14.5229 14.9853 16.5376 12.5 16.5376C10.0147 16.5376 8 14.5229 8 12.0376C8 9.55232 10.0147 7.5376 12.5 7.5376C14.9853 7.5376 17 9.55232 17 12.0376ZM18.0123 7.5376C18.5621 7.5376 19.0078 7.08989 19.0078 6.5376C19.0078 5.98532 18.5621 5.5376 18.0123 5.5376H18.0033C17.4535 5.5376 17.0078 5.98532 17.0078 6.5376C17.0078 7.08988 17.4535 7.5376 18.0033 7.5376H18.0123Z" fill="#4E2A84"/>
</svg>
