<svg width="67" height="60" viewBox="0 0 67 60" fill="none" xmlns="http://www.w3.org/2000/svg">
<path fill-rule="evenodd" clip-rule="evenodd" d="M33.5 0C15.3684 0 0.5 14.6986 0.5 32.8302C0.5 42.9598 5.14061 52.0179 12.3983 58.0401C20.1135 59.6848 32.1028 60.9245 39.9127 55.3817C46.1911 50.9258 55.6529 48.2404 63.4138 46.6789C65.3926 42.471 66.5 37.7784 66.5 32.8302C66.5 14.6986 51.6316 0 33.5 0Z" fill="#ECE3FF"/>
<mask id="mask0_15_127" style="mask-type:luminance" maskUnits="userSpaceOnUse" x="0" y="0" width="67" height="60">
<path fill-rule="evenodd" clip-rule="evenodd" d="M33.5 0C15.3684 0 0.5 14.6986 0.5 32.8302C0.5 42.9598 5.14061 52.0179 12.3983 58.0401C20.1135 59.6848 32.1028 60.9245 39.9127 55.3817C46.1911 50.9258 55.6529 48.2404 63.4138 46.6789C65.3926 42.471 66.5 37.7784 66.5 32.8302C66.5 14.6986 51.6316 0 33.5 0Z" fill="white"/>
</mask>
<g mask="url(#mask0_15_127)">
</g>
<path d="M32.9911 15C32.8486 15.0019 32.7097 15.0457 32.5911 15.126C30.4167 16.6016 28.2279 18.0553 26.025 19.4867C25.86 19.5937 25.7436 19.7628 25.7013 19.9571C25.6591 20.1513 25.6946 20.3546 25.7999 20.5223C25.9052 20.69 26.0718 20.8083 26.2629 20.8512C26.4541 20.8941 26.6542 20.858 26.8192 20.751C28.8916 19.402 30.952 18.034 33 16.6471C34.9504 17.9676 36.9118 19.2712 38.8841 20.5577L39.138 20.7226C39.3028 20.8302 39.503 20.867 39.6944 20.8246C39.8858 20.7823 40.0529 20.6643 40.1588 20.4969C40.2647 20.3294 40.3008 20.126 40.2591 19.9314C40.2175 19.7369 40.1014 19.5672 39.9366 19.4596L39.6798 19.2931H39.6768C37.5747 17.9241 35.4853 16.535 33.4089 15.126C33.2853 15.0423 33.1397 14.9984 32.9911 15ZM44.8036 22.7176C44.6437 22.7209 44.4892 22.7769 44.3633 22.8772C44.2375 22.9775 44.1471 23.1168 44.1058 23.2738C44.0645 23.4309 44.0745 23.5972 44.1343 23.7479C44.1942 23.8986 44.3006 24.0256 44.4375 24.1095C45.682 24.903 46.4009 25.3996 46.733 25.7086C47.0637 26.0191 47.0238 25.98 47.0238 26.25V42.75C47.0238 43.179 46.7079 43.5 46.2857 43.5H19.7143C19.6167 43.5025 19.5196 43.4848 19.429 43.448C19.3383 43.4112 19.256 43.3561 19.187 43.286C19.1179 43.2158 19.0637 43.1322 19.0274 43.04C18.9912 42.9479 18.9738 42.8492 18.9762 42.75V26.25C18.9762 25.983 18.9378 26.0191 19.2567 25.7176C19.574 25.4161 20.2708 24.9316 21.4754 24.1621C21.5588 24.1103 21.6313 24.0421 21.6887 23.9616C21.746 23.8811 21.787 23.7899 21.8093 23.6931C21.8316 23.5964 21.8348 23.496 21.8186 23.398C21.8025 23.3 21.7673 23.2063 21.7152 23.1222C21.6631 23.0381 21.595 22.9655 21.515 22.9084C21.435 22.8512 21.3446 22.8108 21.249 22.7895C21.1535 22.7682 21.0548 22.7664 20.9586 22.7842C20.8624 22.802 20.7706 22.839 20.6886 22.8932C19.4722 23.6717 18.7474 24.1501 18.2499 24.6211C17.751 25.0936 17.5 25.716 17.5 26.25V42.75C17.5 43.9845 18.5009 45 19.7143 45H46.2857C47.4991 45 48.5 43.9845 48.5 42.75V26.25C48.5 25.71 48.2431 25.0816 47.7324 24.6046C47.2231 24.1261 46.4806 23.6387 45.2243 22.8377C45.0992 22.7554 44.9526 22.7135 44.8036 22.7176Z" fill="#4E2A84"/>
<path d="M22.7059 20C21.4971 20 20.5 21.002 20.5 22.2167V28.2611C20.5 28.4571 20.5775 28.645 20.7154 28.7835C20.8533 28.9221 21.0403 29 21.2353 29C21.4303 29 21.6173 28.9221 21.7552 28.7835C21.8931 28.645 21.9706 28.4571 21.9706 28.2611V22.2167C21.9706 21.7955 22.2853 21.4778 22.7059 21.4778H43.2941C43.7147 21.4778 44.0294 21.7955 44.0294 22.2167V28.2611C44.0294 28.4571 44.1069 28.645 44.2448 28.7835C44.3827 28.9221 44.5697 29 44.7647 29C44.9597 29 45.1467 28.9221 45.2846 28.7835C45.4225 28.645 45.5 28.4571 45.5 28.2611V22.2167C45.5 21.002 44.5029 20 43.2941 20H22.7059Z" fill="#532A81"/>
<path fill-rule="evenodd" clip-rule="evenodd" d="M32.9886 23.0089C32.8891 23.0105 32.791 23.0311 32.6997 23.0696C32.6084 23.1082 32.5258 23.1638 32.4566 23.2334C32.3874 23.3031 32.333 23.3853 32.2964 23.4754C32.2598 23.5656 32.2418 23.6617 32.2434 23.7587V24.5751L31.9102 24.3536C31.7845 24.2662 31.6344 24.2183 31.48 24.2163C31.3167 24.2155 31.1574 24.2661 31.026 24.3607C30.8946 24.4552 30.7981 24.5888 30.751 24.7412C30.7038 24.8936 30.7084 25.0566 30.7642 25.2063C30.82 25.3559 30.9239 25.484 31.0604 25.5713L32.2434 26.3537V28.9678L30.0426 27.7191L29.9335 26.2061C29.922 26.0197 29.8384 25.8444 29.6996 25.7156C29.5607 25.5869 29.3769 25.5143 29.1853 25.5124C29.0797 25.5112 28.9751 25.5315 28.8781 25.572C28.7811 25.6126 28.6938 25.6724 28.622 25.7477C28.5501 25.823 28.4952 25.9121 28.4607 26.0093C28.4262 26.1066 28.413 26.2099 28.4219 26.3124L28.4598 26.8202L27.6494 26.3625C27.5185 26.2862 27.367 26.2502 27.2147 26.2593C27.0512 26.2682 26.8951 26.3286 26.7697 26.4313C26.6444 26.5341 26.5566 26.6737 26.5196 26.8292C26.4826 26.9847 26.4983 27.1476 26.5643 27.2937C26.6304 27.4397 26.7433 27.561 26.8861 27.6393L27.5873 28.0378L27.3268 28.1575C27.2345 28.1981 27.1514 28.2562 27.0826 28.3287C27.0138 28.4011 26.9605 28.4861 26.926 28.5789C26.8916 28.6717 26.8765 28.7705 26.8819 28.869C26.8872 28.9676 26.9127 29.064 26.957 29.1528C27.0013 29.2416 27.0634 29.3208 27.1397 29.3858C27.2159 29.4508 27.3048 29.5001 27.401 29.531C27.4972 29.5619 27.5987 29.5738 27.6997 29.5658C27.8007 29.5578 27.8989 29.53 27.9887 29.4844L29.1641 28.9308L31.4967 30.2505L29.4216 31.4269L27.9887 30.7494C27.8752 30.6938 27.7492 30.6669 27.6222 30.6712C27.4519 30.6766 27.2885 30.7376 27.1583 30.8446C27.0281 30.9516 26.9387 31.0982 26.9046 31.2608C26.8704 31.4234 26.8935 31.5926 26.9702 31.7408C27.0468 31.889 27.1724 32.0078 27.3268 32.0779L28.013 32.4026C27.9718 32.5015 27.9532 32.608 27.9584 32.7147C27.9635 32.8213 27.9924 32.9256 28.0429 33.0203C28.0935 33.115 28.1645 33.198 28.2511 33.2633C28.3377 33.3287 28.4378 33.3748 28.5446 33.3988C28.6121 33.55 28.7296 33.6748 28.8784 33.7533C29.0271 33.8317 29.1986 33.8595 29.3653 33.832C29.5321 33.8045 29.6846 33.7234 29.7986 33.6015C29.9126 33.4797 29.9814 33.3241 29.9941 33.1597L30.0214 32.7907L32.2434 31.5302V33.883L31.7436 34.2122C31.5996 34.3071 31.4935 34.4474 31.4431 34.6095C31.3927 34.7716 31.4011 34.9457 31.4668 35.1025C31.5325 35.2593 31.6516 35.3894 31.804 35.4708C31.9565 35.5522 32.133 35.5799 32.304 35.5495C32.3608 35.6803 32.455 35.7924 32.5755 35.8722C32.696 35.9521 32.8375 35.9964 32.9831 35.9998C33.1288 36.0032 33.2724 35.9656 33.3966 35.8915C33.5209 35.8174 33.6206 35.7099 33.6838 35.5819C33.8574 35.6395 34.0464 35.6338 34.216 35.5659C34.3855 35.498 34.524 35.3725 34.6058 35.2126C34.6876 35.0527 34.707 34.8693 34.6606 34.6965C34.6142 34.5237 34.505 34.3731 34.3533 34.2727L33.758 33.8815V31.5287L35.977 32.785L36.0073 33.1657C36.0174 33.3209 36.0776 33.469 36.1793 33.5889C36.281 33.7088 36.4189 33.7945 36.5734 33.8334C36.728 33.8724 36.8912 33.8627 37.0397 33.8059C37.1883 33.7491 37.3147 33.648 37.4008 33.517C37.5464 33.5328 37.6936 33.5069 37.8244 33.4428C37.9553 33.3787 38.0643 33.279 38.1382 33.1558C38.2121 33.0325 38.2478 32.891 38.2408 32.7484C38.2339 32.6058 38.1846 32.4682 38.099 32.3523L38.6746 32.0794C38.8306 32.0084 38.957 31.8876 39.0332 31.7372C39.1094 31.5868 39.1307 31.4156 39.0936 31.2518C39.0566 31.088 38.9634 30.9414 38.8294 30.8361C38.6954 30.7308 38.5287 30.6732 38.3565 30.6727C38.2372 30.672 38.1194 30.6988 38.0127 30.7509L36.5889 31.4255L34.5139 30.2491L36.8419 28.9279L38.0127 29.4815C38.1025 29.5288 38.2013 29.5579 38.303 29.5671C38.4046 29.5763 38.5072 29.5654 38.6044 29.535C38.7017 29.5046 38.7916 29.4553 38.8688 29.3901C38.9459 29.325 39.0088 29.2451 39.0536 29.1557C39.0984 29.0663 39.1241 28.969 39.1293 28.8696C39.1344 28.7702 39.1189 28.6709 39.0837 28.5775C39.0484 28.4841 38.9941 28.3986 38.9241 28.3261C38.8541 28.2537 38.7697 28.1957 38.6761 28.1559L38.4186 28.035L39.1154 27.6393C39.2592 27.56 39.3725 27.4372 39.438 27.2894C39.5035 27.1415 39.5175 26.9769 39.4781 26.8205C39.4386 26.6642 39.3478 26.5247 39.2194 26.4234C39.091 26.3221 38.9321 26.2644 38.767 26.2593C38.6219 26.2543 38.4783 26.2901 38.3535 26.3625L37.5432 26.8202L37.581 26.3079C37.5904 26.2032 37.5768 26.0978 37.541 25.9987C37.5052 25.8996 37.4481 25.8092 37.3735 25.7333C37.299 25.6574 37.2087 25.5978 37.1086 25.5587C37.0086 25.5196 36.9011 25.5018 36.7934 25.5064C36.6065 25.5149 36.4295 25.5904 36.2963 25.7185C36.1632 25.8466 36.0835 26.0182 36.0724 26.2002L35.9604 27.7205L33.7596 28.9649V26.3508L34.9455 25.567C35.031 25.5141 35.1047 25.4449 35.1623 25.3637C35.2199 25.2826 35.2602 25.1908 35.2808 25.0942C35.3014 24.9976 35.302 24.898 35.2824 24.8012C35.2627 24.7044 35.2234 24.6123 35.1667 24.5306C35.1099 24.4488 35.037 24.3789 34.952 24.3252C34.8671 24.2714 34.772 24.2347 34.6723 24.2174C34.5726 24.2001 34.4703 24.2024 34.3716 24.2243C34.2728 24.2461 34.1796 24.2872 34.0973 24.3448L33.7596 24.5661V23.7498C33.7612 23.6509 33.7424 23.5527 33.7043 23.461C33.6662 23.3693 33.6096 23.2861 33.5378 23.2161C33.4661 23.1462 33.3806 23.0909 33.2865 23.0538C33.1924 23.0167 33.0916 22.9985 32.9901 23.0001L32.9886 23.0089Z" fill="#4E2A84"/>
<path d="M18.1938 26.0011C18.0063 26.0123 17.8302 26.0938 17.7013 26.229C17.5724 26.3642 17.5004 26.543 17.5 26.729V42.8075C17.5 44.0104 18.5009 45 19.7143 45H46.2857C47.4991 45 48.5 44.0104 48.5 42.8075V26.729C48.4997 26.5997 48.4647 26.4729 48.3987 26.3614C48.3326 26.2499 48.2379 26.1576 48.1242 26.0941C48.0104 26.0307 47.8817 25.9982 47.7511 26.0001C47.6206 26.002 47.4929 26.0381 47.381 26.1048L33 34.6485L18.619 26.1048C18.4914 26.0292 18.3437 25.9937 18.1953 26.0026L18.1938 26.0011ZM18.9762 28.0226L32.6191 36.1277C32.7341 36.1962 32.8658 36.2324 33 36.2324C33.1342 36.2324 33.2659 36.1962 33.3809 36.1277L47.0238 28.0226V42.8075C47.0238 43.2255 46.7079 43.5383 46.2857 43.5383H19.7143C19.6167 43.5407 19.5196 43.5235 19.429 43.4876C19.3383 43.4518 19.256 43.3981 19.187 43.3297C19.1179 43.2614 19.0637 43.1799 19.0274 43.0901C18.9912 43.0003 18.9738 42.9041 18.9762 42.8075V28.0226Z" fill="#4E2A84"/>
</svg>
