<svg width="175" height="89" viewBox="0 0 175 89" fill="none" xmlns="http://www.w3.org/2000/svg">
<path d="M36.6572 83.3158L32.8763 77.3281H29.8634L36.6572 88.078L43.4511 77.3281H40.4381L36.6572 83.3158Z" fill="#E52E2B"/>
<path d="M67.2886 3.58331H5.67138C2.5403 3.58331 0 6.18935 0 9.38486V70.7819C0 73.9774 2.5403 76.5835 5.67138 76.5835H30.4541V74.024V6.15833H42.3138V74.0395V76.599H67.2886C70.4196 76.599 72.96 73.993 72.96 70.7975V9.40037C72.96 6.18935 70.4196 3.58331 67.2886 3.58331ZM5.67138 74.0395C3.89907 74.0395 2.43692 72.5813 2.43692 70.7975V9.40037C2.43692 7.61647 3.8843 6.15833 5.67138 6.15833H13.5729V74.0395H5.67138ZM67.2886 6.15833C69.0609 6.15833 70.5083 7.61647 70.5083 9.40037V70.7975C70.5083 72.5813 69.0609 74.0395 67.2886 74.0395H59.1655V6.15833H67.2886ZM27.9434 74.0395H16.0837V6.15833H27.9434V74.0395ZM44.8098 6.15833H56.6695V74.0395H44.8098V6.15833Z" fill="#4E2A84"/>
<path d="M85.0455 51.2339C84.6869 50.7234 84.5777 50.7234 84.4374 50.7234C84.2347 50.7234 84.0631 50.8781 84.0631 51.0637C84.0631 51.2648 84.2191 51.3731 84.4374 51.3731C85.2015 51.3731 85.7629 51.9609 85.7629 52.6106C85.7785 53.3686 85.1703 53.941 84.3906 53.941C84.0631 53.941 83.5797 53.91 83.0183 53.0128L83.798 52.5178C84.0943 52.9664 84.2659 52.9974 84.3906 52.9974C84.5621 52.9974 84.7649 52.8736 84.7493 52.688C84.7493 52.5178 84.5777 52.3167 84.3906 52.3167C83.5018 52.3167 83.0339 51.7753 83.0339 51.0482C83.0339 50.3367 83.6421 49.7334 84.3906 49.7334C84.7805 49.7334 85.2483 49.7643 85.8097 50.6925L85.0455 51.2339Z" fill="#4E2A84"/>
<path d="M95.7742 53.8791V49.7798C95.7742 49.7798 97.8949 49.7798 98.4095 49.7798V50.7853C97.9729 50.7853 97.2244 50.7853 96.7878 50.7853V51.3422C97.318 51.3422 98.0197 51.3422 98.4095 51.3422V52.3322C97.9729 52.3322 97.318 52.3322 96.7878 52.3322V52.8891C97.2868 52.8891 98.0197 52.8891 98.4095 52.8891V53.8946C97.8793 53.8791 95.7742 53.8791 95.7742 53.8791Z" fill="#4E2A84"/>
<path d="M110.401 51.2339C110.043 50.7234 109.933 50.7234 109.793 50.7234C109.59 50.7234 109.419 50.8781 109.419 51.0637C109.419 51.2648 109.575 51.3731 109.793 51.3731C110.557 51.3731 111.119 51.9609 111.134 52.6106C111.15 53.3686 110.542 53.941 109.762 53.941C109.434 53.941 108.951 53.91 108.39 53.0128L109.169 52.5178C109.466 52.9664 109.622 52.9974 109.762 52.9974C109.933 52.9974 110.136 52.8736 110.121 52.688C110.121 52.5178 109.949 52.3167 109.762 52.3167C108.873 52.3167 108.405 51.7753 108.405 51.0482C108.405 50.3367 109.013 49.7334 109.762 49.7334C110.152 49.7334 110.62 49.7643 111.181 50.6925L110.401 51.2339Z" fill="#4E2A84"/>
<path d="M123.095 51.2339C122.736 50.7234 122.627 50.7234 122.486 50.7234C122.284 50.7234 122.112 50.8781 122.112 51.0637C122.112 51.2648 122.268 51.3731 122.486 51.3731C123.251 51.3731 123.812 51.9609 123.828 52.6106C123.843 53.3686 123.235 53.941 122.455 53.941C122.128 53.941 121.644 53.91 121.083 53.0128L121.863 52.5178C122.159 52.9664 122.315 52.9974 122.455 52.9974C122.627 52.9974 122.83 52.8736 122.814 52.688C122.814 52.5178 122.642 52.3167 122.455 52.3167C121.566 52.3167 121.099 51.7753 121.099 51.0482C121.099 50.3367 121.707 49.7334 122.455 49.7334C122.845 49.7334 123.313 49.7643 123.874 50.6925L123.095 51.2339Z" fill="#4E2A84"/>
<path d="M134.65 53.8946C134.65 53.3996 134.65 50.3057 134.65 49.7952H135.663C135.663 50.3057 135.663 53.3996 135.663 53.8946H134.65Z" fill="#4E2A84"/>
<path d="M147.889 54.0029C146.673 54.0029 145.675 53.0128 145.675 51.8372C145.675 50.677 146.688 49.7024 147.889 49.7024C149.09 49.7024 150.072 50.6925 150.072 51.8372C150.056 53.0128 149.09 54.0029 147.889 54.0029ZM147.889 50.7389C147.234 50.7389 146.735 51.2493 146.735 51.8526C146.735 52.4714 147.234 52.9664 147.889 52.9664C148.513 52.9664 148.996 52.4714 148.996 51.8526C148.996 51.2493 148.497 50.7389 147.889 50.7389Z" fill="#4E2A84"/>
<path d="M159.522 51.6361C159.522 51.7134 159.522 51.8217 159.522 51.9145C159.522 52.6106 159.522 53.5852 159.522 53.8946H158.508C158.508 53.4305 158.508 49.5787 158.508 49.5787L161.534 52.0383C161.534 51.9764 161.518 51.8991 161.518 51.8372C161.518 51.0792 161.518 50.1046 161.518 49.8107H162.532C162.532 50.2748 162.532 54.1266 162.532 54.1266L159.522 51.6361Z" fill="#4E2A84"/>
<path d="M173.822 51.2339C173.463 50.7234 173.354 50.7234 173.213 50.7234C173.011 50.7234 172.839 50.8781 172.839 51.0637C172.839 51.2648 172.995 51.3731 173.213 51.3731C173.978 51.3731 174.539 51.9609 174.555 52.6106C174.57 53.3686 173.962 53.941 173.182 53.941C172.855 53.941 172.371 53.91 171.81 53.0128L172.59 52.5178C172.886 52.9664 173.042 52.9974 173.182 52.9974C173.354 52.9974 173.557 52.8736 173.541 52.688C173.541 52.5178 173.369 52.3167 173.182 52.3167C172.293 52.3167 171.826 51.7753 171.826 51.0482C171.826 50.3367 172.434 49.7334 173.182 49.7334C173.572 49.7334 174.04 49.7643 174.601 50.6925L173.822 51.2339Z" fill="#4E2A84"/>
<path d="M116.124 0V21.2856H122.58V22.848H111.571V0H116.124Z" fill="black"/>
<path d="M128.412 4.82638H124.405L120.865 16.7067C124.389 16.7067 128.209 16.7067 131.749 16.7067L128.412 4.82638ZM122.986 15.4537L124.982 8.55445L126.837 15.4537H122.986Z" fill="black"/>
<path d="M105.52 4.82638H101.513L97.9729 16.7067C101.497 16.7067 105.318 16.7067 108.857 16.7067L105.52 4.82638ZM100.109 15.4537L102.105 8.55445L103.961 15.4537H100.109Z" fill="black"/>
<path d="M83.0027 23.049V7.48708H89.9888C93.5754 7.48708 95.3843 8.75554 95.3843 11.308C95.3843 13.1178 94.2927 14.278 92.1252 14.7885C94.745 15.299 96.0392 16.6758 96.0392 18.9188C96.0392 21.6723 94.2771 23.0645 90.7685 23.0645H83.0027V23.049ZM87.5718 14.2626H88.9752C90.2695 14.2626 90.9244 13.3189 90.9244 11.4162C90.9244 9.65276 90.2383 8.78648 88.866 8.78648H87.5718V14.2626ZM87.5718 21.7651H88.866C90.5658 21.7651 91.4235 20.806 91.4235 18.8724C91.4235 16.6603 90.5502 15.5465 88.7881 15.5465H87.5718V21.7651Z" fill="black"/>
<path d="M146.719 7.48708V23.0491H143.242L136.693 13.1952V23.0491H135.164V7.48708H138.049L145.207 18.1299V7.48708H146.719Z" fill="black"/>
<path d="M159.865 16.7995L161.814 17.2945C161.845 17.6967 161.861 18.037 161.861 18.3155C161.861 19.8315 161.315 21.0381 160.208 21.9507C159.101 22.8634 157.62 23.312 155.764 23.312C151.117 23.312 148.778 20.7132 148.778 15.5156C148.778 12.6538 149.105 11.4626 150.821 9.51353C152.177 7.98208 153.939 7.20863 156.123 7.20863C159.522 7.20863 161.222 8.83289 161.222 12.0659L159.272 12.9632C159.304 12.4991 159.304 12.1588 159.304 11.8958C159.304 9.59088 158.384 8.44616 156.528 8.44616C154.563 8.44616 153.581 10.8903 153.581 15.7631C153.581 19.9552 154.672 22.0436 156.871 22.0436C157.775 22.0436 158.524 21.6878 159.132 20.9762C159.74 20.2646 160.037 19.3674 160.037 18.3C160.005 17.9752 159.959 17.4802 159.865 16.7995Z" fill="black"/>
<path d="M173.603 7.48708V9.04946H167.974V13.7676H172.699V15.3299H167.974V21.5021H174.555V23.0645H163.42V7.48708H173.603Z" fill="black"/>
<path d="M88.5542 31.8819V32.7327H85.4666V35.5481H88.0864V36.3989H85.4666V40.3281H83.0027V31.8974H88.5542V31.8819Z" fill="black"/>
<path d="M92.8581 31.7427C95.3375 31.7427 96.5694 33.1968 96.5694 36.105C96.5694 39.0132 95.3063 40.4673 92.7957 40.4673C90.2695 40.4673 89.022 38.9823 89.022 36.0122C89.022 33.1504 90.3007 31.7427 92.8581 31.7427ZM92.7957 32.4079C92.3279 32.4079 92.016 32.6554 91.8601 33.1659C91.7041 33.6764 91.6106 34.6509 91.6106 36.0896C91.6106 37.5282 91.6885 38.5027 91.8601 39.0132C92.016 39.5237 92.3435 39.7712 92.7957 39.7712C93.2479 39.7712 93.5754 39.5237 93.7469 39.0132C93.9185 38.5027 93.9964 37.5282 93.9964 36.0896C93.9964 34.6509 93.9185 33.6764 93.7469 33.1659C93.5754 32.6709 93.2635 32.4079 92.7957 32.4079Z" fill="black"/>
<path d="M97.661 40.3126V31.8819H101.31C102.261 31.8819 103.025 32.083 103.587 32.4852C104.164 32.8874 104.444 33.4134 104.444 34.0786C104.444 35.0995 103.836 35.7647 102.62 36.0741C103.244 36.3061 103.649 36.5536 103.836 36.8321C104.023 37.1105 104.148 37.6365 104.21 38.4409C104.288 39.3845 104.444 40.0187 104.694 40.3126H102.012C101.84 39.9259 101.762 39.4309 101.762 38.8431L101.747 38.3481L101.731 37.7138C101.731 36.7393 101.341 36.2597 100.546 36.2597H100.125V40.3126H97.661ZM100.14 35.5636H100.639C101.575 35.5636 102.043 35.0841 102.043 34.1095C102.043 33.1349 101.575 32.6554 100.639 32.6554H100.14V35.5636Z" fill="black"/>
<path d="M112.444 34.4808V40.3436H108.998V28.5715H112.444V33.3051H115.251V28.5715H118.697V40.3436H115.251V34.4808H112.444Z" fill="black"/>
<path d="M128.412 28.5715V29.7472H124.155V33.3051H127.726V34.4808H124.155V39.1525H129.13V40.3281H120.709V28.5561L128.412 28.5715Z" fill="black"/>
<path d="M135.928 28.5715L139.234 40.3436H135.773L135.071 37.7912H131.5L130.751 40.3436H129.41L132.919 28.5715H135.928ZM131.843 36.6H134.759L133.355 31.3869L131.843 36.6Z" fill="black"/>
<path d="M143.289 28.5715V39.1679H148.17V40.3436H139.842V28.5715H143.289Z" fill="black"/>
<path d="M152.333 28.5715V40.3436H148.887V28.5715H152.333Z" fill="black"/>
<path d="M163.077 28.5715V40.3436H160.442L155.483 32.8874V40.3436H154.329V28.5715H156.512L161.923 36.6155V28.5715H163.077Z" fill="black"/>
<path d="M169.689 33.9858H174.57V40.3436H173.479L173.104 39.5392C172.153 40.2198 171.139 40.5447 170.079 40.5447C168.333 40.5447 166.96 40.0187 165.993 38.9823C165.027 37.9304 164.543 36.4763 164.543 34.5736C164.543 32.7328 165.058 31.2322 166.087 30.0875C167.116 28.9428 168.457 28.3705 170.126 28.3705C172.309 28.3705 173.65 29.4842 174.118 31.6963L172.496 32.4234V32.1449L172.465 31.5107C172.356 30.1185 171.716 29.4378 170.531 29.4378C169.658 29.4378 169.065 29.8091 168.754 30.5361C168.442 31.2632 168.27 32.6399 168.27 34.6509C168.27 36.5227 168.395 37.8066 168.66 38.4718C168.925 39.1525 169.409 39.4773 170.126 39.4773C170.984 39.4773 171.405 39.0132 171.405 38.0696V35.1769H169.689V33.9858Z" fill="black"/>
<path d="M174.57 4.84185H83.0027V5.1667H174.57V4.84185Z" fill="black"/>
<path d="M174.57 25.9109H83.0027V26.2357H174.57V25.9109Z" fill="black"/>
<path d="M174.586 44.1335H83.0027V44.4584H174.586V44.1335Z" fill="black"/>
<path d="M84.297 74.0354C83.2055 73.5404 82.3634 72.767 81.802 71.715C81.2406 70.6631 80.96 69.3328 80.96 67.7395C80.96 66.1461 81.2406 64.8158 81.802 63.7484C82.3634 62.6811 83.1899 61.9076 84.297 61.4281V62.0932C83.5953 62.5728 83.0963 63.2379 82.8 64.1042C82.5038 64.9705 82.3478 66.1771 82.3478 67.7395C82.3478 69.3019 82.5038 70.5085 82.8 71.3747C83.0963 72.241 83.5953 72.9062 84.297 73.3857V74.0354Z" fill="#E52E2B"/>
<path d="M133.075 74.0354V73.3702C133.776 72.8907 134.275 72.2255 134.572 71.3593C134.884 70.493 135.024 69.2864 135.024 67.724C135.024 66.1616 134.868 64.9395 134.572 64.0887C134.26 63.2225 133.761 62.5573 133.075 62.0778V61.4126C134.182 61.9076 135.008 62.6811 135.57 63.733C136.131 64.7849 136.412 66.1152 136.412 67.724C136.412 69.3173 136.131 70.6322 135.57 71.6996C134.993 72.7824 134.166 73.5559 133.075 74.0354Z" fill="#E52E2B"/>
<path d="M148.31 66.5174V67.8632H145.768V70.3538H148.31V71.7769C148.357 73.3084 147.608 74.02 146.096 73.9117H143.398H143.382C142.603 73.8189 142.228 73.3393 142.26 72.504V67.6931H143.569V72.5349H146.142C146.486 72.4885 146.673 72.3338 146.719 72.0708V71.7924C146.719 71.7615 146.704 71.7305 146.704 71.6996H144.256V68.219C144.224 67.1052 144.661 66.5329 145.581 66.5174H148.31ZM143.476 76H144.895V74.5923H143.476V76ZM145.503 76H146.922V74.5923H145.503V76Z" fill="#E52E2B"/>
<path d="M151.413 66.5174V70.6167H152.084V71.9007H151.335C151.07 73.3084 150.228 73.9735 148.778 73.9117V72.5349C149.526 72.5349 149.901 72.0244 149.885 70.988V66.5019H151.413V66.5174Z" fill="#E52E2B"/>
<path d="M151.803 70.6167H157.495C157.729 69.3637 157.432 68.7295 156.637 68.6831H152.474V66.8732L156.294 63.8258H158.477L154.392 67.1826H156.684C158.259 67.2599 159.085 68.0024 159.163 69.3947V70.6013H159.584L159.6 71.8852H151.834V70.6167H151.803Z" fill="#E52E2B"/>
<path d="M164.668 67.5229H166.321V70.6167H167.99V66.5174H169.642V70.6167H170.36V71.9007H159.397V70.6167H161.347V68.5284H162.999V70.6167H164.668V67.5229Z" fill="#E52E2B"/>
<path d="M170.952 63.8258H172.543V70.6167V71.9007H170.095V70.6167H170.968L170.952 63.8258Z" fill="#E52E2B"/>
<path d="M174.96 71.9007H173.369V63.8258H174.96V71.9007Z" fill="#E52E2B"/>
<path d="M174.71 58.7364H83.1275V59.0613H174.71V58.7364Z" fill="black"/>
<path d="M90.8933 74.4221H89.4742V75.8298H90.8933V74.4221Z" fill="#E52E2B"/>
<path d="M88.8505 74.4221H87.4314V75.8298H88.8505V74.4221Z" fill="#E52E2B"/>
<path d="M93.7781 70.462H92.8581H92.5774H89.599V71.7305H90.5658C90.6126 72.1637 90.2539 72.3957 89.4586 72.3957H87.5562V68.0953H86.0747V72.2874C86.1215 73.262 86.6517 73.757 87.6653 73.7415H90.02C91.2363 73.6642 91.938 72.999 92.1252 71.7305H92.5774H92.8581H95.3687V70.462V66.3627H93.7781V70.462Z" fill="#E52E2B"/>
<path d="M95.2128 63.9495H93.7937V65.3572H95.2128V63.9495Z" fill="#E52E2B"/>
<path d="M102.074 63.9495H100.655V65.3572H102.074V63.9495Z" fill="#E52E2B"/>
<path d="M100.998 62.3098H99.6414V63.6556H100.998V62.3098Z" fill="#E52E2B"/>
<path d="M100.031 63.9495H98.6122V65.3572H100.031V63.9495Z" fill="#E52E2B"/>
<path d="M103.555 70.462H102.916H102.682H102.214V66.3627H100.624V70.462H98.8149H98.6122H97.9417V63.6711H96.3511V70.462V71.7305H98.6122H98.8149H102.682H102.916H105.13V70.462V63.6711H103.555V70.462Z" fill="#E52E2B"/>
<path d="M107.548 63.6711H105.957V71.7305H107.548V63.6711Z" fill="#E52E2B"/>
<path d="M115.407 69.4565C115.282 68.1262 116.062 67.5229 117.746 67.6157L117.434 66.3472C116.545 66.1461 115.75 66.2854 115.064 66.7494C114.362 67.229 113.972 67.8632 113.879 68.6521C113.832 69.4875 113.941 70.0908 114.206 70.4466L114.191 70.462C113.489 70.5394 113.037 70.8024 112.865 71.251C112.631 71.8543 112.631 72.4266 112.865 72.9835C113.099 73.5404 113.754 73.7879 114.814 73.726H117.652V72.3493H114.939C114.409 72.3802 114.144 72.2874 114.159 72.0708C114.175 71.8543 114.284 71.7305 114.502 71.715H118.073V70.4466H116.28C115.797 70.3538 115.5 70.0134 115.407 69.4565Z" fill="#E52E2B"/>
<path d="M126.089 63.9495H124.67V65.3572H126.089V63.9495Z" fill="#E52E2B"/>
<path d="M127.773 70.462H127.165H126.915H126.245V66.3627H124.654V70.462H123.812H123.516H123.157V66.3627H122.627C120.537 66.3782 119.321 66.9196 118.978 67.987C118.635 69.0543 118.713 69.9516 119.227 70.7095C119.742 71.4521 120.553 71.8079 121.66 71.746C121.754 72.1482 121.598 72.3647 121.192 72.3957H119.025V73.757H121.005C121.785 73.8034 122.377 73.5868 122.783 73.1382C123.032 72.7824 123.157 72.3183 123.141 71.746H123.5H123.796H126.884H127.133H129.332V70.4775V63.702H127.742V70.462H127.773ZM121.691 70.462C120.958 70.5394 120.475 70.2145 120.225 69.472C120.038 68.3428 120.537 67.7395 121.691 67.6931V70.462Z" fill="#E52E2B"/>
<path d="M131.765 63.6711H130.174V71.7305H131.765V63.6711Z" fill="#E52E2B"/>
</svg>
