<svg width="98" height="56" viewBox="0 0 98 56" fill="none" xmlns="http://www.w3.org/2000/svg">
<g id="Group 1321314443">
<g id="Group">
<g id="Group_2">
<g id="Group_3">
<g id="Group_4">
<path id="Vector" d="M36.0415 36.288C35.7965 35.9359 35.7219 35.9359 35.6261 35.9359C35.4876 35.9359 35.3704 36.0426 35.3704 36.1706C35.3704 36.3093 35.4769 36.384 35.6261 36.384C36.148 36.384 36.5315 36.7894 36.5315 37.2376C36.5421 37.7604 36.1267 38.1552 35.5941 38.1552C35.3704 38.1552 35.0402 38.1338 34.6567 37.515L35.1893 37.1736C35.3917 37.483 35.5089 37.5043 35.5941 37.5043C35.7113 37.5043 35.8497 37.419 35.8391 37.2909C35.8391 37.1736 35.7219 37.0348 35.5941 37.0348C34.9869 37.0348 34.6674 36.6614 34.6674 36.1599C34.6674 35.6691 35.0828 35.253 35.5941 35.253C35.8604 35.253 36.18 35.2743 36.5634 35.9145L36.0415 36.288Z" fill="#353535"/>
<path id="Vector_2" d="M43.3699 38.1125V35.285C43.3699 35.285 44.8185 35.285 45.17 35.285V35.9785C44.8718 35.9785 44.3605 35.9785 44.0622 35.9785V36.3626C44.4244 36.3626 44.9037 36.3626 45.17 36.3626V37.0455C44.8718 37.0455 44.4244 37.0455 44.0622 37.0455V37.4296C44.4031 37.4296 44.9037 37.4296 45.17 37.4296V38.1231C44.8079 38.1125 43.3699 38.1125 43.3699 38.1125Z" fill="#353535"/>
<path id="Vector_3" d="M53.3614 36.288C53.1164 35.9359 53.0418 35.9359 52.946 35.9359C52.8075 35.9359 52.6903 36.0426 52.6903 36.1706C52.6903 36.3093 52.7968 36.384 52.946 36.384C53.4679 36.384 53.8514 36.7894 53.862 37.2376C53.8727 37.7604 53.4573 38.1552 52.9247 38.1552C52.701 38.1552 52.3708 38.1338 51.9873 37.515L52.5199 37.1736C52.7223 37.483 52.8288 37.5043 52.9247 37.5043C53.0418 37.5043 53.1803 37.419 53.1697 37.2909C53.1697 37.1736 53.0525 37.0348 52.9247 37.0348C52.3175 37.0348 51.998 36.6614 51.998 36.1599C51.998 35.6691 52.4134 35.253 52.9247 35.253C53.191 35.253 53.5105 35.2743 53.894 35.9145L53.3614 36.288Z" fill="#353535"/>
<path id="Vector_4" d="M62.0318 36.288C61.7868 35.9359 61.7122 35.9359 61.6164 35.9359C61.4779 35.9359 61.3607 36.0426 61.3607 36.1706C61.3607 36.3093 61.4673 36.384 61.6164 36.384C62.1383 36.384 62.5218 36.7894 62.5324 37.2376C62.5431 37.7604 62.1277 38.1552 61.5951 38.1552C61.3714 38.1552 61.0412 38.1338 60.6577 37.515L61.1903 37.1736C61.3927 37.483 61.4992 37.5043 61.5951 37.5043C61.7123 37.5043 61.8507 37.419 61.8401 37.2909C61.8401 37.1736 61.7229 37.0348 61.5951 37.0348C60.9879 37.0348 60.6684 36.6614 60.6684 36.1599C60.6684 35.6691 61.0838 35.253 61.5951 35.253C61.8614 35.253 62.1809 35.2743 62.5644 35.9145L62.0318 36.288Z" fill="#353535"/>
<path id="Vector_5" d="M69.925 38.1232C69.925 37.7817 69.925 35.6478 69.925 35.2957H70.6174C70.6174 35.6478 70.6174 37.7817 70.6174 38.1232H69.925Z" fill="#353535"/>
<path id="Vector_6" d="M78.9684 38.1978C78.1375 38.1978 77.4558 37.515 77.4558 36.7041C77.4558 35.9038 78.1482 35.2316 78.9684 35.2316C79.7886 35.2316 80.4596 35.9145 80.4596 36.7041C80.449 37.515 79.7886 38.1978 78.9684 38.1978ZM78.9684 35.9465C78.521 35.9465 78.1801 36.2986 78.1801 36.7147C78.1801 37.1415 78.521 37.483 78.9684 37.483C79.3944 37.483 79.7246 37.1415 79.7246 36.7147C79.7246 36.2986 79.3838 35.9465 78.9684 35.9465Z" fill="#353535"/>
<path id="Vector_7" d="M86.9145 36.5654C86.9145 36.6187 86.9145 36.6934 86.9145 36.7574C86.9145 37.2376 86.9145 37.9098 86.9145 38.1232H86.2222C86.2222 37.8031 86.2222 35.1463 86.2222 35.1463L88.2886 36.8428C88.2886 36.8001 88.278 36.7468 88.278 36.7041C88.278 36.1813 88.278 35.5091 88.278 35.3063H88.9704C88.9704 35.6264 88.9704 38.2832 88.9704 38.2832L86.9145 36.5654Z" fill="#353535"/>
<path id="Vector_8" d="M96.6824 36.288C96.4374 35.9359 96.3629 35.9359 96.267 35.9359C96.1285 35.9359 96.0114 36.0426 96.0114 36.1706C96.0114 36.3093 96.1179 36.384 96.267 36.384C96.789 36.384 97.1724 36.7894 97.1831 37.2376C97.1937 37.7604 96.7783 38.1552 96.2457 38.1552C96.022 38.1552 95.6918 38.1338 95.3083 37.515L95.8409 37.1736C96.0433 37.483 96.1498 37.5043 96.2457 37.5043C96.3629 37.5043 96.5014 37.419 96.4907 37.2909C96.4907 37.1736 96.3735 37.0348 96.2457 37.0348C95.6385 37.0348 95.319 36.6614 95.319 36.1599C95.319 35.6691 95.7344 35.253 96.2457 35.253C96.512 35.253 96.8316 35.2743 97.215 35.9145L96.6824 36.288Z" fill="#353535"/>
</g>
<path id="Vector_9" d="M57.2705 0.949585V15.6312H61.6804V16.7089H54.1602V0.949585H57.2705Z" fill="#353535"/>
<path id="Vector_10" d="M65.6643 4.27856H62.9268L60.5088 12.473C62.9161 12.473 65.5258 12.473 67.9438 12.473L65.6643 4.27856ZM61.9575 11.6087L63.3209 6.84999L64.5885 11.6087H61.9575Z" fill="#353535"/>
<path id="Vector_11" d="M50.0273 4.27856H47.2898L44.8718 12.473C47.2791 12.473 49.8888 12.473 52.3068 12.473L50.0273 4.27856ZM46.3311 11.6087L47.6946 6.84999L48.9621 11.6087H46.3311Z" fill="#353535"/>
<path id="Vector_12" d="M34.646 16.8476V6.11377H39.418C41.8679 6.11377 43.1036 6.98869 43.1036 8.74921C43.1036 9.99757 42.3579 10.7978 40.8773 11.1499C42.6668 11.502 43.5509 12.4516 43.5509 13.9987C43.5509 15.898 42.3473 16.8583 39.9506 16.8583H34.646V16.8476ZM37.767 10.7871H38.7257C39.6098 10.7871 40.0571 10.1363 40.0571 8.8239C40.0571 7.60754 39.5885 7.01003 38.6511 7.01003H37.767V10.7871ZM37.767 15.962H38.6511C39.8121 15.962 40.398 15.3005 40.398 13.9667C40.398 12.441 39.8015 11.6727 38.5978 11.6727H37.767V15.962Z" fill="#353535"/>
<path id="Vector_13" d="M78.1694 6.11377V16.8476H75.794L71.3202 10.0509V16.8476H70.2764V6.11377H72.247L77.1362 13.4546V6.11377H78.1694Z" fill="#353535"/>
<path id="Vector_14" d="M87.1489 12.537L88.4804 12.8784C88.5017 13.1558 88.5123 13.3906 88.5123 13.5826C88.5123 14.6282 88.1395 15.4605 87.3833 16.09C86.627 16.7195 85.615 17.0289 84.3475 17.0289C81.1732 17.0289 79.5754 15.2364 79.5754 11.6514C79.5754 9.67746 79.7991 8.85589 80.9708 7.51149C81.8976 6.45518 83.1012 5.92169 84.5925 5.92169C86.9146 5.92169 88.0756 7.04202 88.0756 9.27201L86.7441 9.89086C86.7654 9.57076 86.7654 9.33603 86.7654 9.15464C86.7654 7.56484 86.137 6.77528 84.8694 6.77528C83.5273 6.77528 82.8562 8.46111 82.8562 11.8221C82.8562 14.7136 83.6018 16.154 85.1038 16.154C85.7216 16.154 86.2328 15.9086 86.6483 15.4178C87.0637 14.927 87.2661 14.3082 87.2661 13.5719C87.2448 13.3479 87.2128 13.0064 87.1489 12.537Z" fill="#353535"/>
<path id="Vector_15" d="M96.5333 6.11377V7.19142H92.688V10.4457H95.9155V11.5234H92.688V15.7806H97.1831V16.8583H89.5776V6.11377H96.5333Z" fill="#353535"/>
<path id="Vector_16" d="M38.4381 22.9401V23.5269H36.329V25.4688H38.1185V26.0556H36.329V28.7658H34.646V22.9507H38.4381V22.9401Z" fill="#353535"/>
<path id="Vector_17" d="M41.3779 22.844C43.0716 22.844 43.9131 23.847 43.9131 25.8529C43.9131 27.8588 43.0503 28.8618 41.3353 28.8618C39.6097 28.8618 38.7576 27.8375 38.7576 25.7889C38.7576 23.8149 39.631 22.844 41.3779 22.844ZM41.3353 23.3028C41.0158 23.3028 40.8027 23.4735 40.6962 23.8256C40.5897 24.1777 40.5258 24.8499 40.5258 25.8422C40.5258 26.8345 40.579 27.5067 40.6962 27.8588C40.8027 28.2109 41.0264 28.3816 41.3353 28.3816C41.6442 28.3816 41.8679 28.2109 41.9851 27.8588C42.1022 27.5067 42.1555 26.8345 42.1555 25.8422C42.1555 24.8499 42.1022 24.1777 41.9851 23.8256C41.8679 23.4842 41.6549 23.3028 41.3353 23.3028Z" fill="#353535"/>
<path id="Vector_18" d="M44.6587 28.7551V22.9401H47.1512C47.801 22.9401 48.3229 23.0788 48.7064 23.3562C49.1005 23.6336 49.2922 23.9964 49.2922 24.4552C49.2922 25.1594 48.8768 25.6182 48.046 25.8316C48.4721 25.9916 48.749 26.1623 48.8768 26.3544C49.0046 26.5465 49.0899 26.9092 49.1325 27.4641C49.1857 28.1149 49.2922 28.5524 49.4627 28.7551H47.6306C47.5134 28.4884 47.4601 28.1469 47.4601 27.7415L47.4495 27.4L47.4388 26.9626C47.4388 26.2904 47.1725 25.9596 46.6293 25.9596H46.3417V28.7551H44.6587ZM46.3523 25.4795H46.6932C47.3323 25.4795 47.6519 25.1487 47.6519 24.4765C47.6519 23.8043 47.3323 23.4736 46.6932 23.4736H46.3523V25.4795Z" fill="#353535"/>
<path id="Vector_19" d="M54.7567 24.7325V28.7764H52.4026V20.6567H54.7567V23.9216H56.674V20.6567H59.028V28.7764H56.674V24.7325H54.7567Z" fill="#353535"/>
<path id="Vector_20" d="M65.6641 20.6567V21.4676H62.7562V23.9216H65.1954V24.7325H62.7562V27.9548H66.1541V28.7657H60.4021V20.646L65.6641 20.6567Z" fill="#353535"/>
<path id="Vector_21" d="M70.7984 20.6567L73.0566 28.7764H70.6919L70.2126 27.0159H67.7733L67.262 28.7764H66.3459L68.7426 20.6567H70.7984ZM68.0076 26.1943H69.9995L69.0409 22.5986L68.0076 26.1943Z" fill="#353535"/>
<path id="Vector_22" d="M75.826 20.6567V27.9655H79.16V28.7764H73.4719V20.6567H75.826Z" fill="#353535"/>
<path id="Vector_23" d="M82.0042 20.6567V28.7764H79.6501V20.6567H82.0042Z" fill="#353535"/>
<path id="Vector_24" d="M89.3434 20.6567V28.7764H87.5432L84.1559 23.6336V28.7764H83.3677V20.6567H84.8589L88.5551 26.205V20.6567H89.3434Z" fill="#353535"/>
<path id="Vector_25" d="M93.8596 24.3911H97.1936V28.7764H96.448L96.1923 28.2216C95.5426 28.6911 94.8502 28.9151 94.1259 28.9151C92.9329 28.9151 91.9955 28.5524 91.3351 27.8375C90.6747 27.1119 90.3445 26.109 90.3445 24.7966C90.3445 23.5269 90.696 22.4919 91.399 21.7024C92.102 20.9128 93.0181 20.518 94.1578 20.518C95.6491 20.518 96.5652 21.2862 96.8847 22.812L95.7769 23.3135V23.1214L95.7556 22.684C95.6811 21.7237 95.2443 21.2542 94.4348 21.2542C93.8383 21.2542 93.4335 21.5103 93.2205 22.0118C93.0074 22.5133 92.8903 23.4629 92.8903 24.8499C92.8903 26.141 92.9755 27.0266 93.1566 27.4854C93.3376 27.9549 93.6679 28.1789 94.1578 28.1789C94.7437 28.1789 95.0313 27.8588 95.0313 27.208V25.2127H93.8596V24.3911Z" fill="#353535"/>
<path id="Vector_26" d="M97.1937 4.28925H34.646V4.51331H97.1937V4.28925Z" fill="#353535"/>
<path id="Vector_27" d="M97.1937 18.8215H34.646V19.0455H97.1937V18.8215Z" fill="#353535"/>
<path id="Vector_28" d="M97.2043 31.3905H34.646V31.6146H97.2043V31.3905Z" fill="#353535"/>
</g>
<path id="Vector_29" d="M97.2898 41.4628H34.7314V41.6869H97.2898V41.4628Z" fill="#353535"/>
</g>
</g>
<g id="Group_5">
<path id="Vector_30" d="M3.62786 49.8386H3.61721C3.46809 50.02 3.30831 50.2014 3.15918 50.3828C3.34026 50.3507 3.532 50.3187 3.71308 50.2867C3.68112 50.5535 3.63851 50.8095 3.60656 51.0763C4.3948 51.2897 5.18303 51.5137 5.97127 51.7271C5.24695 51.4284 4.52262 51.1296 3.80894 50.8416C3.8622 50.7242 3.91546 50.6068 3.95807 50.4894C4.71435 50.3401 5.48128 50.1907 6.26952 50.0093C6.89798 49.8706 7.5797 49.7106 8.67684 49.4438C9.77398 49.1771 11.2546 48.8036 13.0548 48.3235C12.9056 48.2488 12.7671 48.1634 12.618 48.0887C11.425 48.4195 10.1788 48.7396 8.87923 49.0277C7.34536 49.3798 5.8754 49.6572 4.46936 49.9026" fill="#353535"/>
<path id="Vector_31" d="M15.8881 25.7356C16.3249 27.4961 16.474 29.3313 16.687 31.1452C16.7509 31.668 16.6125 32.2121 16.5592 32.7456C16.687 30.0462 16.1438 27.4534 15.3875 24.7006C14.9082 25.2981 14.546 25.7569 14.1838 26.2157C14.2051 26.173 14.2158 26.1303 14.2371 26.0877C14.7058 25.5008 15.1319 24.8927 15.6325 24.1458C15.8455 23.9857 16.1012 23.751 16.3994 23.5909C15.9414 24.1458 15.6538 24.7753 15.8881 25.7356Z" fill="#353535"/>
<path id="Vector_32" d="M3.32951 18.224C3.2869 18.4587 3.24429 18.6828 3.20169 18.9176C2.88213 19.8672 2.56258 20.8274 2.23237 21.7771C2.30693 24.5192 2.38149 27.2613 2.45606 30.0141C2.10455 32.2228 1.74238 34.4421 1.39087 36.6507C1.24175 39.6063 1.08197 42.5725 0.932841 45.528C1.85955 46.9578 2.77561 48.3982 3.70232 49.8279C3.18038 50.5215 2.65844 51.215 2.1365 51.9086C2.95669 52.8582 3.78754 53.7971 4.60773 54.7467C4.53317 54.8534 4.45861 54.9601 4.37339 55.0775C3.47864 54.0212 2.58388 52.9542 1.68912 51.8979C2.1365 51.279 2.58388 50.6602 3.03126 50.0307C2.02998 48.6649 1.02871 47.3099 0.0380859 45.9441C0.272427 42.7645 0.506768 39.5849 0.741109 36.4053C1.11392 34.4208 1.42283 32.2014 1.5826 29.7581C1.78499 26.8025 1.74238 24.1031 1.5826 21.7557C1.78499 21.0408 1.97672 20.3046 2.1578 19.5577C2.4028 18.5761 2.62649 17.6158 2.82887 16.6769C3.07386 15.7166 3.32951 14.767 3.5745 13.8067C4.56512 12.7931 5.55574 11.7901 6.54636 10.7765C7.8885 10.6271 9.23064 10.4884 10.5728 10.339C10.6793 9.03732 10.7752 7.74627 10.8817 6.44456C11.4888 6.01777 12.0853 5.59098 12.6925 5.16418C12.309 5.67633 11.9256 6.17781 11.5421 6.68996C11.6806 6.98872 11.819 7.28747 11.9575 7.58623C13.9814 9.49612 15.9946 11.406 18.0184 13.3052C18.0184 13.4546 18.0078 13.604 18.0078 13.7534C15.9839 11.9929 13.9601 10.2323 11.9362 8.47182C11.5208 9.17603 11.0841 10.1897 11.4249 11.1286C11.5953 11.5874 11.7977 11.7901 12.0427 12.0889C12.4368 12.5584 12.554 13.6147 11.2438 16.2394L11.3077 16.2501C11.1906 14.6176 11.0841 12.9851 10.9669 11.3527C10.1467 13.0812 9.3265 14.8203 8.50631 16.5489C9.25194 14.735 9.99757 12.9318 10.7432 11.1179C9.41172 11.2246 8.06958 11.342 6.7381 11.4487C5.89661 12.3876 5.05511 13.3266 4.22426 14.2655C3.96862 15.3752 3.72363 16.4742 3.46798 17.5838L3.32951 18.224Z" fill="#353535"/>
<path id="Vector_33" d="M8.05896 31.9774C8.43177 30.7397 8.74068 29.598 9.11349 28.467C9.59283 26.9839 9.45435 26.5571 8.14417 25.9062C8.12287 25.8956 8.11221 25.8636 8.09091 25.8422C8.87915 25.8742 9.57152 26.0663 9.68869 26.8025C10.0935 26.8665 10.4876 26.8132 10.6793 26.9839C11.9149 28.0615 13.1186 29.1925 14.3222 30.3022C14.3009 30.3235 14.269 30.3449 14.2477 30.3662C12.9695 29.2139 11.6806 28.0615 10.4876 26.9839C9.13479 27.9548 9.1561 29.3206 8.77263 30.4836C8.6022 30.9957 8.79394 31.6359 8.81524 32.2228C8.82589 32.4255 8.85785 32.6496 8.77263 32.8203C8.21874 34.0366 8.27199 35.2103 8.96436 36.3626C9.40109 37.0882 9.81651 37.8351 10.2426 38.5713L10.2639 38.5606C10.1148 38.5713 9.95499 38.582 9.80586 38.6033C9.83782 38.678 9.98694 38.87 10.0189 38.9447C9.94434 39.0514 9.7526 39.0514 9.67804 39.1581C9.60348 38.9767 9.49695 38.71 9.36913 38.3686C8.69807 36.6507 8.65546 36.4053 8.46373 36.1066C8.3359 35.9038 8.13352 35.6904 7.81396 35.4877" fill="#353535"/>
<path id="Vector_34" d="M23.4828 12.4943C23.7065 12.377 23.9302 12.2596 24.3456 12.0355C23.4296 13.604 22.5029 15.1725 21.5868 16.7409C20.511 15.6739 19.4245 14.607 18.3486 13.54C18.125 13.4546 17.9119 13.3799 17.6882 13.2946C17.8693 13.572 18.1569 13.9774 18.5404 14.4256C18.9238 14.8737 19.2434 15.1831 19.4032 15.3432C19.8506 15.7806 20.5003 16.4422 21.3418 17.3918C21.6401 17.3918 21.949 17.3918 22.2472 17.3918C22.6946 16.3888 23.1526 15.3858 23.5894 14.3722C24.0474 13.2839 24.1219 12.2809 24.9208 11.1819" fill="#353535"/>
<path id="Vector_35" d="M4.47987 54.6293C4.43727 54.7787 4.39466 54.9174 4.35205 55.0668C6.56764 55.1308 8.77257 55.1842 10.9882 55.2482C11.9894 54.9708 13.0333 54.6934 14.1304 54.4479C15.0785 54.2239 16.0052 54.0318 16.8999 53.8611C18.7853 53.8718 20.66 53.8931 22.5454 53.9038C24.4308 53.6584 26.3268 53.413 28.2122 53.1676C28.1802 52.8688 28.1589 52.5701 28.127 52.282C26.2736 52.6021 24.4201 52.9222 22.5667 53.2423C20.7239 53.1569 18.8812 53.0716 17.0384 52.9862C16.8999 53.1249 16.7508 53.2743 16.6123 53.413C14.7056 53.8825 12.8096 54.3519 10.9029 54.8107C8.75127 54.7467 6.6209 54.6934 4.47987 54.6293Z" fill="#353535"/>
<path id="Vector_36" d="M15.9626 23.9323C15.8987 23.7083 15.8242 23.4842 15.7603 23.2602C16.8574 23.5909 17.9652 23.911 19.0623 24.2418C19.4991 24.3271 19.9464 24.4125 20.3832 24.4979C21.9703 24.4979 22.6627 24.6686 22.9929 24.8286C23.0674 24.8606 23.3018 24.8393 23.5361 24.914C23.6107 24.9353 23.8876 24.6152 23.8983 24.4445C23.9302 23.751 23.8983 23.0681 23.9728 22.3639C24.0687 23.1535 24.1646 23.9324 24.2604 24.7539C24.6865 24.6366 25.0806 24.5405 25.4747 24.4338C25.496 24.5192 25.5174 24.6152 25.5387 24.7006C24.7717 24.9567 24.0154 25.2021 23.2485 25.4581C20.8199 24.9567 18.3913 24.4445 15.9626 23.9323Z" fill="#353535"/>
<path id="Vector_37" d="M25.0168 11.246C25.3576 12.2916 25.6772 13.3479 26.0394 14.3829C26.1991 14.8417 26.4015 15.2471 26.6359 15.7486C27.0939 16.7409 27.8821 18.3307 29.1071 20.486C28.8408 19.9312 28.4786 19.163 28.0632 18.2454C27.5093 17.0397 27.243 16.4315 27.0939 16.0794C26.4122 14.3295 26.3163 13.8387 25.7837 12.4943C25.6133 12.0569 25.2724 11.6728 25.0168 11.2673C25.0061 11.2673 25.0061 11.2566 25.0168 11.246Z" fill="#353535"/>
<path id="Vector_38" d="M20.7134 47.8647C21.0436 47.9074 21.3738 47.9607 21.704 48.0034C21.704 48.0034 22.2685 48.0887 22.8437 48.3555C24.367 49.0704 25.8902 49.7852 27.4134 50.5108C27.4986 51.1723 27.5838 51.8338 27.669 52.4954C27.8182 52.4207 27.9673 52.3567 28.1164 52.282C28.0205 51.5778 27.9353 50.8736 27.8395 50.1693C26.0606 49.4438 24.8996 48.9103 24.1433 48.5582C23.8557 48.4195 22.9183 48.2274 21.8744 47.5873C21.5655 47.4059 21.3312 47.2245 21.1714 47.1071C21.0223 47.3632 20.8625 47.6193 20.7134 47.8647Z" fill="#353535"/>
<path id="Vector_39" d="M13.0653 48.3235C12.7884 47.2992 12.4795 46.2535 12.1493 45.1972C11.4569 42.9459 10.7006 40.8333 9.92303 38.8594C9.83782 38.9554 9.74195 39.0514 9.65674 39.1475C10.6474 42.135 11.638 45.1119 12.6286 48.0994C12.7671 48.1741 12.9162 48.2488 13.0653 48.3235Z" fill="#353535"/>
<path id="Vector_40" d="M22.3538 17.1677C21.9383 18.1387 22.2366 18.9709 22.6946 19.8885C23.2805 21.0515 23.6107 22.3426 24.0581 23.5696C24.0261 23.5803 23.9835 23.5909 23.9515 23.6016C23.1527 21.681 22.3538 19.7605 21.5655 17.8399L21.001 16.7089L22.3538 17.1677Z" fill="#353535"/>
<path id="Vector_41" d="M23.1526 1.83521C19.1902 0.960288 15.5153 0.853591 14.6099 1.64316C14.9081 1.6645 15.1744 1.77119 15.3555 1.68583C16.9639 0.981628 18.5404 1.47244 20.1488 1.69651C21.1394 1.83521 22.1514 1.78186 23.1526 1.81387C23.142 1.81387 23.1526 1.83521 23.1526 1.83521Z" fill="#353535"/>
<path id="Vector_42" d="M24.3881 4.22524C24.1431 4.15055 24.0153 4.10787 24.0046 4.10787C24.3988 6.07111 24.8035 8.06637 25.1976 10.0723C25.2403 10.0616 25.2829 10.0509 25.3148 10.0509C24.9527 7.61823 24.5905 5.18552 24.2283 2.75281C24.207 2.75281 24.1857 2.75281 24.1644 2.76348C24.2283 3.21161 24.3029 3.67041 24.3881 4.22524Z" fill="#353535"/>
<path id="Vector_43" d="M28.2974 24.5405C28.3187 24.5192 28.3294 24.4978 28.34 24.4978C29.2667 23.6869 29.2774 23.6763 28.5957 22.6946C28.4359 22.4706 28.2761 22.2572 28.1589 21.9798C28.4039 22.2145 28.6489 22.4492 29.0004 22.78C28.9898 21.9371 28.9898 21.2115 28.9791 20.4753C29.075 20.4753 29.1709 20.4753 29.2667 20.4647C29.2774 20.9021 29.3093 21.3396 29.2987 21.777C29.2987 22.1291 29.1496 22.5239 29.2454 22.844C29.4265 23.4522 29.3093 23.5589 29.2454 23.7723C29.1602 24.039 28.9152 24.3911 28.1802 24.6792C28.2122 24.6365 28.2441 24.5939 28.2974 24.5405Z" fill="#353535"/>
<path id="Vector_44" d="M11.5103 20.614C11.7979 20.8487 12.0961 21.0728 12.3624 21.3289C12.437 21.4036 12.405 21.5956 12.4157 21.7343C13.2891 22.2572 14.1732 22.7693 15.0467 23.2921C13.9495 22.3105 12.9909 21.1262 11.5103 20.614Z" fill="#353535"/>
<path id="Vector_45" d="M27.4666 31.5292C27.4347 29.8647 27.4134 28.2002 27.3814 26.5358C27.2749 26.4931 27.1577 26.4611 27.0512 26.4184C27.0831 28.0829 27.1045 29.7474 27.1364 31.4119C26.9766 31.7426 26.8275 32.0734 26.6677 32.3935C26.934 32.1054 27.2003 31.8173 27.4666 31.5292Z" fill="#353535"/>
<path id="Vector_46" d="M8.05908 21.9691C8.1656 23.2708 8.28277 24.5725 8.38929 25.8742C8.39995 24.4765 8.4106 23.0894 8.42125 21.6917C8.35734 21.681 8.28277 21.6703 8.21886 21.6703C8.1656 21.777 8.12299 21.8731 8.05908 21.9691Z" fill="#353535"/>
<path id="Vector_47" d="M12.2238 20.9448C12.0108 20.8275 11.7764 20.582 11.5847 20.6141C10.7965 20.7741 10.0189 21.0195 9.25195 21.2756C10.2532 21.1689 11.2332 21.0515 12.2238 20.9448Z" fill="#353535"/>
<path id="Vector_48" d="M20.5856 26.4398C20.1702 27.3254 19.7441 28.2003 19.3074 29.1392C19.4032 29.1712 19.6269 29.2246 19.8506 29.2886C19.2967 29.8541 17.9226 29.4273 18.0504 30.8037H18.0931C17.1983 29.7367 18.3594 29.2779 18.7748 28.6591C19.3074 27.8695 19.9784 27.176 20.5856 26.4398Z" fill="#353535"/>
<path id="Vector_49" d="M22.929 43.7141C22.3112 44.9198 21.6827 46.1148 21.0649 47.3205C21.1715 47.3205 21.2886 47.3312 21.3951 47.3312C21.8638 46.4563 22.3325 45.5814 22.7905 44.7064C23.2166 43.9062 23.6427 43.106 24.0688 42.3057L22.929 43.7141Z" fill="#353535"/>
<path id="Vector_50" d="M22.4709 41.8896C22.4817 41.9003 22.4924 41.9217 22.4924 41.9325L22.4709 41.8896Z" fill="#353535"/>
<path id="Vector_51" d="M26.1776 34.1114C25.4853 35.9039 24.7929 37.6964 24.1005 39.4783C24.0792 40.1078 24.0579 40.7373 24.0366 41.3668C23.9301 41.5162 23.8236 41.6656 23.717 41.8149C23.9407 41.6976 24.1538 41.5802 24.3775 41.4628C24.4307 40.8013 24.4946 40.1291 24.5479 39.4676C25.4533 37.1522 26.348 34.8369 27.2535 32.5322C26.9126 32.927 26.5824 33.3111 26.2415 33.7059L26.1776 34.1114Z" fill="#353535"/>
<path id="Vector_52" d="M24.9421 24.9353C25.3363 25.1487 25.7304 25.3621 26.1245 25.5755C26.5399 25.8103 26.9553 26.0557 27.4134 26.3224C27.8607 25.5862 28.3188 24.8393 28.7662 24.1031C28.8833 23.9004 29.0325 23.6549 29.0538 23.6656C29.0751 23.6763 28.862 24.0604 28.8514 24.1671C28.7768 24.8393 28.3188 25.2981 27.9353 25.7889C27.7542 26.0236 27.5625 26.2584 27.3069 26.5785C26.5506 26.045 25.741 25.4902 24.9421 24.9353Z" fill="#353535"/>
<path id="Vector_53" d="M16.8362 34.3354C16.719 35.1569 16.6018 35.9785 16.4847 36.8001C16.4314 37.2055 16.3781 37.611 16.3249 38.0164C16.3355 37.3442 16.2503 36.6507 16.3888 35.9999C16.687 34.6981 16.6018 33.3964 16.5912 32.084C16.5912 32.0307 16.6018 31.9773 16.6018 31.9026C16.9107 32.3935 17.0173 33.6205 16.8362 34.3354Z" fill="#353535"/>
<path id="Vector_54" d="M17.8267 36.2773C17.8586 35.7544 17.9225 35.221 17.9225 34.6981C17.9332 33.3431 17.9225 31.9987 17.9225 30.6436C17.9225 30.6223 17.9545 30.6116 17.9971 30.5476C18.0717 30.8357 18.1462 31.0917 18.2208 31.3478C18.1569 30.889 18.093 30.4302 18.029 29.9394C18.1249 30.0034 18.2101 30.0568 18.2953 30.1208C18.306 30.1101 18.3273 30.0995 18.3379 30.0888C18.2208 29.9287 18.1036 29.7687 17.9971 29.6086L18.0077 29.6193C17.9651 29.6727 17.8799 29.726 17.8799 29.7794C17.848 31.9453 17.8373 34.1113 17.8267 36.2773Z" fill="#353535"/>
<path id="Vector_55" d="M15.6857 42.7325C15.5046 43.234 15.3342 43.7461 15.1425 44.2476C15.0466 44.493 14.9721 44.7597 14.8123 44.9518C14.1625 45.6987 13.811 46.595 13.4488 47.4912C13.4169 47.5766 13.3423 47.6513 13.2891 47.7259C13.4595 47.4485 13.6193 47.1711 13.8004 46.9044C14.1625 46.3495 14.5353 45.7947 14.8975 45.2399C14.9614 45.1439 15.0147 45.0265 15.0466 44.9091C15.249 44.3116 15.4514 43.7141 15.6431 43.1273C15.8135 43.1166 15.952 43.1059 16.0798 43.0953C15.8348 43.1059 15.707 42.9779 15.6857 42.7325Z" fill="#353535"/>
<path id="Vector_56" d="M13.0547 48.3342C13.289 47.854 13.5021 47.3419 13.779 46.8831C13.9388 46.6163 14.2051 46.4029 14.4501 46.2002C14.5246 46.1468 14.6951 46.2215 14.8335 46.2322C14.759 46.1682 14.6951 46.0508 14.6205 46.0401C14.4607 46.0295 14.301 46.0722 14.0773 46.1042C14.1092 45.6454 14.1305 45.2186 14.1625 44.7811C14.1518 44.7811 14.1305 44.7704 14.1199 44.7704C14.0879 44.9838 14.0453 45.1972 14.0453 45.4C14.0347 45.8268 13.9601 46.2109 13.7577 46.6056C13.4595 47.1605 13.2784 47.758 13.0547 48.3342Z" fill="#353535"/>
<path id="Vector_57" d="M15.9626 37.0776C16.1224 38.6781 16.2822 40.2785 16.4526 41.8683C16.4952 41.7936 16.5272 41.7189 16.5698 41.6549C16.4526 40.0438 16.4313 38.8061 16.442 38.2193C16.4526 37.5577 16.4952 36.7895 16.4952 36.7895C16.5059 36.6721 16.5059 36.5761 16.5059 36.5121C16.3887 36.8002 16.2609 37.0883 16.1224 37.4297C16.0692 37.3123 16.0159 37.195 15.9626 37.0776Z" fill="#353535"/>
<path id="Vector_58" d="M14.3008 2.91283H14.2902C14.4074 2.8168 14.5352 2.72077 14.6524 2.62474C15.0145 2.55005 15.3873 2.47536 15.7495 2.40068C15.1423 2.37934 14.5245 2.34733 13.9174 2.32599C13.7363 2.67809 13.5446 3.04087 13.3422 3.40364C13.3528 3.45699 13.3635 3.49967 13.3741 3.55302C12.5007 4.85473 10.9668 7.40481 11.084 7.3728C12.9587 4.54531 13.6724 3.35029 13.6937 3.13689C13.6937 3.12622 13.683 3.00886 13.7576 2.90216C13.8322 2.77412 13.9387 2.65675 14.0345 2.52871C14.1091 2.64608 14.205 2.77412 14.3008 2.91283Z" fill="#353535"/>
<path id="Vector_59" d="M15.6751 43.1167C15.6325 43.01 15.5899 42.9033 15.5686 42.8606C15.739 42.6792 15.9627 42.4765 16.1225 42.2417C16.4208 41.7723 16.6871 41.2708 16.964 40.7906C16.7616 41.2708 16.5592 41.7509 16.3462 42.2417C16.3355 42.2417 16.3249 42.2311 16.3142 42.2311C16.4314 42.071 16.5486 41.911 16.7084 41.6762C16.5699 42.3698 16.1332 42.7539 15.6751 43.1167Z" fill="#353535"/>
<path id="Vector_60" d="M17.8159 36.0959C17.7627 36.32 17.7094 36.544 17.6455 36.7681C17.6242 36.7681 17.5922 36.7681 17.5709 36.7681C17.4857 36.352 17.4111 35.9465 17.3259 35.5304C17.4005 36.0105 17.4964 36.4907 17.5496 36.9708C17.5816 37.2162 17.539 37.483 17.5283 37.7284C17.507 38.1338 17.4751 38.5393 17.4431 38.9554C17.4751 38.9127 17.5283 38.87 17.5283 38.8167C17.6242 37.9204 17.7201 37.0028 17.8159 36.0959Z" fill="#353535"/>
<path id="Vector_61" d="M16.7507 41.3028C16.8146 41.0467 16.8892 40.7907 16.9531 40.5239C16.9851 40.3852 17.0064 40.2358 17.0277 40.0971C17.049 40.0331 17.0383 39.9371 17.0809 39.9051C17.4751 39.553 17.3685 39.0622 17.4431 38.6247C17.7201 39.6597 17.017 40.4279 16.7507 41.3028Z" fill="#353535"/>
<path id="Vector_62" d="M19.1048 50.8309C19.7226 49.8493 20.3511 48.857 20.9689 47.8754C20.9263 47.8327 20.873 47.8007 20.8304 47.758C20.3298 48.5156 19.8291 49.2838 19.3072 50.0627C18.8172 49.988 18.3059 49.9026 17.784 49.8173C17.7627 49.892 17.752 49.956 17.7307 50.0307C18.0716 50.1053 18.4231 50.1267 18.732 50.2761C18.9024 50.3508 18.9663 50.6495 19.0835 50.8416L19.1048 50.8309Z" fill="#353535"/>
<path id="Vector_63" d="M23.7278 2.12331C23.6746 2.08063 23.6213 2.04862 23.4935 1.95259C23.7385 1.97393 23.9089 1.9846 24.0687 2.00594C24.0687 1.9846 24.0794 1.95259 24.0794 1.93125C23.6213 1.86723 23.1633 1.80322 22.6414 1.7392C23.0355 1.92058 23.355 2.06996 23.6852 2.21934C23.6959 2.18733 23.7065 2.15532 23.7278 2.12331Z" fill="#353535"/>
<path id="Vector_64" d="M19.222 50.6068C19.1155 50.6068 18.9664 50.5428 18.9131 50.5962C18.2314 51.4604 17.571 52.346 17.0171 53.3703C17.7521 52.4421 18.4764 51.5138 19.2114 50.5855C19.2114 50.5962 19.222 50.6068 19.222 50.6068Z" fill="#353535"/>
</g>
<g id="Group_6">
<path id="Vector_65" d="M38.7471 53.7757C38.598 53.7757 38.4702 53.829 38.3636 53.9251C38.2571 54.0318 38.2039 54.1705 38.2039 54.3199C38.2039 54.4692 38.2571 54.6079 38.3636 54.704C38.4702 54.8107 38.598 54.8533 38.7471 54.8533C38.9069 54.8533 39.0454 54.8 39.1519 54.704C39.2584 54.5973 39.3117 54.4692 39.3117 54.3199C39.3117 54.1598 39.2584 54.0318 39.1519 53.9251C39.0454 53.8184 38.9069 53.7757 38.7471 53.7757Z" fill="#353535"/>
<path id="Vector_66" d="M37.2559 53.7757C37.1068 53.7757 36.9789 53.829 36.8724 53.9251C36.7659 54.0318 36.7126 54.1705 36.7126 54.3199C36.7126 54.4692 36.7659 54.6079 36.8724 54.704C36.9789 54.8107 37.1068 54.8533 37.2559 54.8533C37.4157 54.8533 37.5541 54.8 37.6607 54.704C37.7672 54.5973 37.8204 54.4692 37.8204 54.3199C37.8204 54.1598 37.7672 54.0318 37.6607 53.9251C37.5541 53.8184 37.4157 53.7757 37.2559 53.7757Z" fill="#353535"/>
<path id="Vector_67" d="M52.7649 53.6904C52.6158 53.6904 52.488 53.7437 52.3815 53.8397C52.2749 53.9464 52.2217 54.0851 52.2217 54.2345C52.2217 54.3839 52.2749 54.5226 52.3815 54.6186C52.488 54.7253 52.6158 54.768 52.7649 54.768C52.9247 54.768 53.0632 54.7147 53.1697 54.6186C53.2762 54.5119 53.3295 54.3839 53.3295 54.2345C53.3295 54.0745 53.2762 53.9464 53.1697 53.8397C53.0632 53.7437 52.9247 53.6904 52.7649 53.6904Z" fill="#353535"/>
<path id="Vector_68" d="M51.2737 53.6904C51.1246 53.6904 50.9968 53.7437 50.8902 53.8397C50.7837 53.9464 50.7305 54.0851 50.7305 54.2345C50.7305 54.3839 50.7837 54.5226 50.8902 54.6186C50.9968 54.7253 51.1246 54.768 51.2737 54.768C51.4335 54.768 51.572 54.7147 51.6785 54.6186C51.785 54.5119 51.8383 54.3839 51.8383 54.2345C51.8383 54.0745 51.785 53.9464 51.6785 53.8397C51.572 53.7437 51.4335 53.6904 51.2737 53.6904Z" fill="#353535"/>
<path id="Vector_69" d="M52.6157 51.8979H50.496H50.4001H50.006V49.6145C50.006 48.9957 49.8356 48.5262 49.4841 48.2061C49.2071 47.95 48.8876 47.822 48.5254 47.822H45.692L45.724 47.726L44.8825 47.3952L44.3499 48.7396H48.5148C48.7065 48.7823 48.8237 48.8356 48.8663 48.8783C49.0154 49.017 49.09 49.2624 49.09 49.6252V51.9085H43.9025H43.8066H42.571V47.3952H41.3035C40.1531 47.3952 39.3542 47.5873 38.9174 47.9714C38.4488 48.3875 38.2144 48.921 38.2144 49.5718V50.3401H39.8868V51.9085H36.4569C36.4569 51.9085 36.4462 51.9085 36.4356 51.9085C36.4143 51.9085 36.3717 51.8979 36.329 51.8872C36.2225 51.8658 36.1373 51.8232 36.0734 51.7592C35.8604 51.5671 35.7538 51.2043 35.7538 50.6708V47.95L34.4224 48.4195L34.7206 49.2838L34.8484 49.2411V50.6815C34.8484 51.4817 35.0615 52.0686 35.4769 52.442C35.7538 52.6981 36.0841 52.8261 36.4675 52.8261H40.8241V49.4758H39.1305C39.1518 49.1024 39.3009 48.8036 39.5672 48.5902C39.8335 48.3768 40.5365 48.2701 41.6656 48.2701V52.8261H43.8173H43.9132H49.09V52.9755L50.006 53.8931V52.8261H50.3895H50.4854H53.5211V48.5155L53.7342 48.5582L53.9153 47.6619L52.6051 47.4059V51.8979H52.6157Z" fill="#353535"/>
<path id="Vector_70" d="M63.7043 50.0946C63.7043 50.8309 63.5552 51.343 63.2463 51.6418C63.0652 51.8125 62.8415 51.8978 62.5539 51.8978H62.3622H62.2663H61.2331V45.6453L60.3171 44.8771V51.8978H59.2519H59.1773H58.8045V47.6726L57.8884 48.1101L56.7487 48.3448C56.2161 48.4515 55.7687 48.6756 55.3959 49.049C54.9272 49.5185 54.6929 50.1267 54.6929 50.8735V53.2742L55.6089 52.8154H57.8884V53.6477C57.8884 53.9251 57.8032 54.1598 57.6328 54.3412C57.4411 54.5333 57.1535 54.64 56.7487 54.64H55.7581V55.5576H56.7487C57.4198 55.5576 57.9417 55.3549 58.3145 54.9601C58.6447 54.608 58.8151 54.1705 58.8151 53.669C58.8151 53.637 58.8151 53.5943 58.8151 53.5517V52.8048H59.188H59.2838H62.2663H62.3622H62.522C63.0652 52.8048 63.5126 52.6447 63.8641 52.314C64.3647 51.8338 64.6204 51.0976 64.6204 50.084V45.6347L63.7043 44.8024V50.0946ZM57.8991 51.8978H55.6196V50.8735C55.6196 50.34 55.8007 49.9239 56.1522 49.6252C56.312 49.4865 56.5676 49.3584 56.8978 49.2517L57.8991 49.049V51.8978Z" fill="#353535"/>
<path id="Vector_71" d="M65.6431 52.8155H66.5591V46.0828L66.7828 46.1682L67.0917 45.3039L65.6431 44.7704V52.8155Z" fill="#353535"/>
<path id="Vector_72" d="M73.3762 53.701C73.2271 53.701 73.0993 53.7544 72.9928 53.8504C72.8863 53.9571 72.833 54.0958 72.833 54.2452C72.833 54.3946 72.8863 54.5333 72.9928 54.6293C73.0993 54.736 73.2271 54.7787 73.3762 54.7787C73.536 54.7787 73.6745 54.7254 73.781 54.6293C73.8875 54.5226 73.9408 54.3946 73.9408 54.2452C73.9408 54.0852 73.8875 53.9571 73.781 53.8504C73.6745 53.7544 73.536 53.701 73.3762 53.701Z" fill="#353535"/>
<path id="Vector_73" d="M90.7281 46.627C90.8878 46.627 91.0263 46.5736 91.1328 46.4776C91.2393 46.3709 91.2926 46.2429 91.2926 46.0935C91.2926 45.9334 91.2393 45.8054 91.1328 45.6987C91.0263 45.592 90.8878 45.5493 90.7281 45.5493C90.5789 45.5493 90.4511 45.6027 90.3446 45.6987C90.2381 45.8054 90.1848 45.9441 90.1848 46.0935C90.1848 46.2429 90.2381 46.3816 90.3446 46.4776C90.4511 46.5736 90.5789 46.627 90.7281 46.627Z" fill="#353535"/>
<path id="Vector_74" d="M89.2368 46.627C89.3966 46.627 89.5351 46.5736 89.6416 46.4776C89.7481 46.3709 89.8014 46.2429 89.8014 46.0935C89.8014 45.9334 89.7481 45.8054 89.6416 45.6987C89.5351 45.592 89.3966 45.5493 89.2368 45.5493C89.0877 45.5493 88.9599 45.6027 88.8534 45.6987C88.7469 45.8054 88.6936 45.9441 88.6936 46.0935C88.6936 46.2429 88.7469 46.3816 88.8534 46.4776C88.9599 46.5736 89.0771 46.627 89.2368 46.627Z" fill="#353535"/>
<path id="Vector_75" d="M93.5827 50.0946C93.5827 50.8309 93.4336 51.343 93.1247 51.6418C92.9436 51.8125 92.7199 51.8978 92.4323 51.8978H92.2406H92.1447H91.2393V47.9073L90.3233 47.3845V51.8978H88.3953H88.3527H87.9479V50.1693C87.9479 49.4438 87.7775 48.921 87.426 48.6115C87.1384 48.3555 86.8082 48.2381 86.4353 48.2381H82.7072L82.3237 48.7716V47.4912H81.4077V51.9085H80.8964H80.8112H79.7779V45.656L78.8619 44.8878V51.9085H77.8393H77.7328H76.9872V48.5048L77.2002 48.5475L77.3813 47.6513L76.0711 47.3952V51.9085H71.7571C71.5654 51.9085 71.3843 51.8232 71.2032 51.6524C70.8943 51.3537 70.7452 50.8415 70.7452 50.1053V48.2488H69.8291V50.1053C69.8291 51.1189 70.0848 51.8552 70.5854 52.3353C70.9369 52.6661 71.331 52.8261 71.7784 52.8261H77.7115H77.818H80.7899H80.8857H87.0532V52.9755L87.9266 53.8931V52.8261H88.3314H88.3846H92.1234H92.2193H92.3791C92.9223 52.8261 93.3697 52.6661 93.7212 52.3353C94.2218 51.8552 94.4775 51.1189 94.4775 50.1053V45.6347L93.5614 44.8024V50.0946H93.5827ZM87.0745 51.8978H82.3237V49.145H86.5845C86.7229 49.1557 86.8295 49.1984 86.904 49.2837C87.0212 49.3904 87.0745 49.6785 87.0745 50.18V51.8978Z" fill="#353535"/>
<path id="Vector_76" d="M95.5215 44.7704V52.8155H96.4375V46.0828L96.6612 46.1682L96.9701 45.3039L95.5215 44.7704Z" fill="#353535"/>
</g>
</g>
</svg>
