<svg width="25" height="25" viewBox="0 0 25 25" fill="none" xmlns="http://www.w3.org/2000/svg">
<path d="M2.8569 2.81873C3.02359 2.49273 3.35886 2.2876 3.725 2.2876H8.6C8.91308 2.2876 9.20711 2.43794 9.39041 2.69175L14.0354 9.12331L20.5856 2.57317C20.9663 2.19241 21.5837 2.19241 21.9644 2.57317C22.3452 2.95393 22.3452 3.57127 21.9644 3.95203L15.1919 10.7246L22.0654 20.2417C22.2798 20.5386 22.3098 20.9305 22.1431 21.2565C21.9764 21.5825 21.6411 21.7876 21.275 21.7876H16.4C16.0869 21.7876 15.7929 21.6373 15.6096 21.3835L10.9646 14.9519L4.41443 21.502C4.03367 21.8828 3.41634 21.8828 3.03557 21.502C2.65481 21.1213 2.65481 20.5039 3.03557 20.1232L9.80811 13.3506L2.93459 3.83345C2.72022 3.53663 2.69021 3.14473 2.8569 2.81873Z" fill="#4E2A84"/>
</svg>
