<svg width="16" height="16" viewBox="0 0 16 16" fill="none" xmlns="http://www.w3.org/2000/svg">
<path d="M-3.49691e-07 8L0.187035 6.28024L0.739396 4.64089L1.63126 3.15861L2.82091 1.9027L4.25273 0.931904L5.85977 0.2916L7.56689 0.0117318L9.29426 0.105387L10.9611 0.568185L12.4895 1.37849L13.808 2.4984L14.8549 3.87557L15.5812 5.44559L15.9531 7.13505L15.9531 8.86495L15.5812 10.5544L14.8549 12.1244L13.808 13.5016L12.4895 14.6215L10.9611 15.4318L9.29426 15.8946L7.56689 15.9883L5.85977 15.7084L4.25273 15.0681L2.82091 14.0973L1.63126 12.8414L0.739396 11.3591L0.187035 9.71976L-3.49691e-07 8Z" fill="#4E2A84"/>
</svg>
