<svg width="107" height="47" viewBox="0 0 107 47" fill="none" xmlns="http://www.w3.org/2000/svg">
<g id="Group 1321314442">
<g id="Group">
<g id="Group_2">
<g id="Group_3">
<path id="Vector" d="M54.1937 30.7968C53.9829 30.4938 53.9188 30.4938 53.8363 30.4938C53.7171 30.4938 53.6163 30.5856 53.6163 30.6958C53.6163 30.8151 53.708 30.8794 53.8363 30.8794C54.2853 30.8794 54.6153 31.2282 54.6153 31.6138C54.6244 32.0636 54.267 32.4032 53.8088 32.4032C53.6163 32.4032 53.3322 32.3849 53.0023 31.8524L53.4605 31.5587C53.6347 31.8249 53.7355 31.8433 53.8088 31.8433C53.9096 31.8433 54.0287 31.7698 54.0196 31.6597C54.0196 31.5587 53.9188 31.4393 53.8088 31.4393C53.2864 31.4393 53.0115 31.1181 53.0115 30.6866C53.0115 30.2643 53.3689 29.9063 53.8088 29.9063C54.0379 29.9063 54.3128 29.9247 54.6428 30.4755L54.1937 30.7968Z" fill="#353535"/>
<path id="Vector_2" d="M60.4988 32.3665V29.9338C60.4988 29.9338 61.7451 29.9338 62.0476 29.9338V30.5305C61.791 30.5305 61.3511 30.5305 61.0945 30.5305V30.861C61.4061 30.861 61.8185 30.861 62.0476 30.861V31.4485C61.791 31.4485 61.4061 31.4485 61.0945 31.4485V31.779C61.3877 31.779 61.8185 31.779 62.0476 31.779V32.3757C61.736 32.3665 60.4988 32.3665 60.4988 32.3665Z" fill="#353535"/>
<path id="Vector_3" d="M69.095 30.7968C68.8843 30.4938 68.8201 30.4938 68.7376 30.4938C68.6185 30.4938 68.5177 30.5856 68.5177 30.6958C68.5177 30.8151 68.6093 30.8794 68.7376 30.8794C69.1867 30.8794 69.5166 31.2282 69.5258 31.6138C69.5349 32.0636 69.1775 32.4032 68.7193 32.4032C68.5269 32.4032 68.2428 32.3849 67.9128 31.8524L68.3711 31.5587C68.5452 31.8249 68.6368 31.8433 68.7193 31.8433C68.8201 31.8433 68.9393 31.7698 68.9301 31.6597C68.9301 31.5587 68.8293 31.4393 68.7193 31.4393C68.1969 31.4393 67.922 31.1181 67.922 30.6866C67.922 30.2643 68.2794 29.9063 68.7193 29.9063C68.9484 29.9063 69.2233 29.9247 69.5533 30.4755L69.095 30.7968Z" fill="#353535"/>
<path id="Vector_4" d="M76.5549 30.7968C76.3441 30.4938 76.28 30.4938 76.1975 30.4938C76.0783 30.4938 75.9775 30.5856 75.9775 30.6958C75.9775 30.8151 76.0692 30.8794 76.1975 30.8794C76.6465 30.8794 76.9765 31.2282 76.9856 31.6138C76.9948 32.0636 76.6374 32.4032 76.1792 32.4032C75.9867 32.4032 75.7026 32.3849 75.3727 31.8524L75.8309 31.5587C76.005 31.8249 76.0967 31.8433 76.1792 31.8433C76.28 31.8433 76.3991 31.7698 76.3899 31.6597C76.3899 31.5587 76.2891 31.4393 76.1792 31.4393C75.6568 31.4393 75.3819 31.1181 75.3819 30.6866C75.3819 30.2643 75.7393 29.9063 76.1792 29.9063C76.4083 29.9063 76.6832 29.9247 77.0131 30.4755L76.5549 30.7968Z" fill="#353535"/>
<path id="Vector_5" d="M83.3456 32.3757C83.3456 32.082 83.3456 30.246 83.3456 29.9431H83.9413C83.9413 30.246 83.9413 32.082 83.9413 32.3757H83.3456Z" fill="#353535"/>
<path id="Vector_6" d="M91.1263 32.4399C90.4115 32.4399 89.825 31.8524 89.825 31.1548C89.825 30.4663 90.4206 29.8879 91.1263 29.8879C91.832 29.8879 92.4093 30.4755 92.4093 31.1548C92.4001 31.8524 91.832 32.4399 91.1263 32.4399ZM91.1263 30.503C90.7414 30.503 90.4481 30.8059 90.4481 31.1639C90.4481 31.5311 90.7414 31.8249 91.1263 31.8249C91.4929 31.8249 91.777 31.5311 91.777 31.1639C91.777 30.8059 91.4837 30.503 91.1263 30.503Z" fill="#353535"/>
<path id="Vector_7" d="M97.963 31.0354C97.963 31.0813 97.963 31.1456 97.963 31.2007C97.963 31.6138 97.963 32.1921 97.963 32.3757H97.3673C97.3673 32.1003 97.3673 29.8145 97.3673 29.8145L99.1452 31.2741C99.1452 31.2374 99.136 31.1915 99.136 31.1548C99.136 30.705 99.136 30.1266 99.136 29.9522H99.7317C99.7317 30.2276 99.7317 32.5134 99.7317 32.5134L97.963 31.0354Z" fill="#353535"/>
<path id="Vector_8" d="M106.367 30.7968C106.156 30.4938 106.092 30.4938 106.009 30.4938C105.89 30.4938 105.789 30.5856 105.789 30.6958C105.789 30.8151 105.881 30.8794 106.009 30.8794C106.458 30.8794 106.788 31.2282 106.797 31.6138C106.807 32.0636 106.449 32.4032 105.991 32.4032C105.798 32.4032 105.514 32.3849 105.184 31.8524L105.643 31.5587C105.817 31.8249 105.908 31.8433 105.991 31.8433C106.092 31.8433 106.211 31.7698 106.202 31.6597C106.202 31.5587 106.101 31.4393 105.991 31.4393C105.469 31.4393 105.194 31.1181 105.194 30.6866C105.194 30.2643 105.551 29.9063 105.991 29.9063C106.22 29.9063 106.495 29.9247 106.825 30.4755L106.367 30.7968Z" fill="#353535"/>
</g>
<path id="Vector_9" d="M72.4584 0.393005V13.0245H76.2524V13.9517H69.7823V0.393005H72.4584Z" fill="#353535"/>
<path id="Vector_10" d="M79.6798 3.25708H77.3246L75.2443 10.3072C77.3154 10.3072 79.5607 10.3072 81.641 10.3072L79.6798 3.25708ZM76.4906 9.56364L77.6637 5.46943L78.7542 9.56364H76.4906Z" fill="#353535"/>
<path id="Vector_11" d="M66.2265 3.25708H63.8712L61.7909 10.3072C63.8621 10.3072 66.1073 10.3072 68.1877 10.3072L66.2265 3.25708ZM63.0464 9.56364L64.2195 5.46943L65.31 9.56364H63.0464Z" fill="#353535"/>
<path id="Vector_12" d="M52.993 14.071V4.83606H57.0987C59.2065 4.83606 60.2696 5.58881 60.2696 7.10348C60.2696 8.17753 59.6281 8.86602 58.3542 9.16895C59.8939 9.47189 60.6545 10.2889 60.6545 11.62C60.6545 13.254 59.6189 14.0802 57.5569 14.0802H52.993V14.071ZM55.6782 8.85684H56.503C57.2637 8.85684 57.6486 8.29687 57.6486 7.16774C57.6486 6.12124 57.2453 5.60717 56.4389 5.60717H55.6782V8.85684ZM55.6782 13.3091H56.4389C57.4378 13.3091 57.9418 12.7399 57.9418 11.5924C57.9418 10.2797 57.4286 9.61876 56.393 9.61876H55.6782V13.3091Z" fill="#353535"/>
<path id="Vector_13" d="M90.4389 4.83606V14.071H88.3952L84.5462 8.22343V14.071H83.6481V4.83606H85.3435L89.55 11.1518V4.83606H90.4389Z" fill="#353535"/>
<path id="Vector_14" d="M98.1646 10.3623L99.3101 10.656C99.3285 10.8947 99.3376 11.0967 99.3376 11.2619C99.3376 12.1615 99.0169 12.8776 98.3662 13.4192C97.7155 13.9608 96.8449 14.227 95.7543 14.227C93.0233 14.227 91.6487 12.6848 91.6487 9.60036C91.6487 7.90209 91.8411 7.19524 92.8492 6.03857C93.6465 5.12977 94.6821 4.67078 95.9651 4.67078C97.963 4.67078 98.9619 5.63466 98.9619 7.55325L97.8163 8.08569C97.8347 7.81029 97.8347 7.60833 97.8347 7.45228C97.8347 6.08448 97.294 5.40517 96.2034 5.40517C95.0487 5.40517 94.4713 6.85558 94.4713 9.74724C94.4713 12.235 95.1128 13.4743 96.405 13.4743C96.9365 13.4743 97.3764 13.2631 97.7338 12.8409C98.0913 12.4186 98.2654 11.8861 98.2654 11.2527C98.2471 11.06 98.2196 10.7662 98.1646 10.3623Z" fill="#353535"/>
<path id="Vector_15" d="M106.238 4.83606V5.76322H102.93V8.56308H105.707V9.49025H102.93V13.153H106.797V14.0802H100.254V4.83606H106.238Z" fill="#353535"/>
<path id="Vector_16" d="M56.2556 19.3127V19.8176H54.441V21.4883H55.9806V21.9932H54.441V24.3249H52.993V19.3219H56.2556V19.3127Z" fill="#353535"/>
<path id="Vector_17" d="M58.785 19.23C60.2421 19.23 60.9661 20.0929 60.9661 21.8188C60.9661 23.5446 60.2238 24.4075 58.7483 24.4075C57.2637 24.4075 56.5305 23.5262 56.5305 21.7637C56.5305 20.0654 57.282 19.23 58.785 19.23ZM58.7483 19.6248C58.4734 19.6248 58.2901 19.7717 58.1984 20.0746C58.1068 20.3775 58.0518 20.9559 58.0518 21.8096C58.0518 22.6633 58.0976 23.2416 58.1984 23.5446C58.2901 23.8475 58.4825 23.9944 58.7483 23.9944C59.0141 23.9944 59.2065 23.8475 59.3073 23.5446C59.4082 23.2416 59.454 22.6633 59.454 21.8096C59.454 20.9559 59.4082 20.3775 59.3073 20.0746C59.2065 19.7808 59.0232 19.6248 58.7483 19.6248Z" fill="#353535"/>
<path id="Vector_18" d="M61.6077 24.3157V19.3127H63.7521C64.3112 19.3127 64.7602 19.432 65.0901 19.6707C65.4292 19.9094 65.5942 20.2215 65.5942 20.6162C65.5942 21.2221 65.2368 21.6168 64.522 21.8004C64.8885 21.9381 65.1268 22.085 65.2368 22.2502C65.3467 22.4155 65.4201 22.7276 65.4567 23.2049C65.5025 23.7649 65.5942 24.1413 65.7408 24.3157H64.1645C64.0637 24.0862 64.0179 23.7925 64.0179 23.4436L64.0087 23.1499L63.9996 22.7735C63.9996 22.1952 63.7705 21.9106 63.3031 21.9106H63.0556V24.3157H61.6077ZM63.0648 21.4975H63.3581C63.9079 21.4975 64.1829 21.2129 64.1829 20.6346C64.1829 20.0563 63.9079 19.7717 63.3581 19.7717H63.0648V21.4975Z" fill="#353535"/>
<path id="Vector_19" d="M70.2955 20.8549V24.3341H68.2701V17.3482H70.2955V20.1572H71.9451V17.3482H73.9704V24.3341H71.9451V20.8549H70.2955Z" fill="#353535"/>
<path id="Vector_20" d="M79.6799 17.3482V18.0458H77.178V20.1572H79.2767V20.8549H77.178V23.6272H80.1015V24.3249H75.1527V17.339L79.6799 17.3482Z" fill="#353535"/>
<path id="Vector_21" d="M84.0971 17.3482L86.0399 24.3341H84.0054L83.593 22.8194H81.4944L81.0545 24.3341H80.2664L82.3284 17.3482H84.0971ZM81.696 22.1126H83.4098L82.585 19.0189L81.696 22.1126Z" fill="#353535"/>
<path id="Vector_22" d="M88.4228 17.3482V23.6364H91.2913V24.3341H86.3975V17.3482H88.4228Z" fill="#353535"/>
<path id="Vector_23" d="M93.7381 17.3482V24.3341H91.7128V17.3482H93.7381Z" fill="#353535"/>
<path id="Vector_24" d="M100.052 17.3482V24.3341H98.5036L95.5893 19.9094V24.3341H94.9111V17.3482H96.1942L99.3742 22.1217V17.3482H100.052Z" fill="#353535"/>
<path id="Vector_25" d="M103.938 20.5611H106.807V24.334H106.165L105.945 23.8567C105.386 24.2606 104.79 24.4534 104.167 24.4534C103.141 24.4534 102.334 24.1413 101.766 23.5262C101.198 22.902 100.914 22.0391 100.914 20.9099C100.914 19.8175 101.216 18.9271 101.821 18.2478C102.426 17.5685 103.214 17.2288 104.195 17.2288C105.478 17.2288 106.266 17.8898 106.541 19.2025L105.588 19.6339V19.4687L105.569 19.0923C105.505 18.2661 105.129 17.8622 104.433 17.8622C103.92 17.8622 103.572 18.0825 103.388 18.514C103.205 18.9455 103.104 19.7625 103.104 20.9558C103.104 22.0666 103.177 22.8285 103.333 23.2233C103.489 23.6272 103.773 23.82 104.195 23.82C104.699 23.82 104.946 23.5446 104.946 22.9846V21.268H103.938V20.5611Z" fill="#353535"/>
<path id="Vector_26" d="M106.807 3.2663H52.993V3.45907H106.807V3.2663Z" fill="#353535"/>
<path id="Vector_27" d="M106.807 15.7692H52.993V15.962H106.807V15.7692Z" fill="#353535"/>
<path id="Vector_28" d="M106.816 26.5831H52.993V26.7759H106.816V26.5831Z" fill="#353535"/>
</g>
<path id="Vector_29" d="M106.889 35.2489H53.0667V35.4417H106.889V35.2489Z" fill="#353535"/>
</g>
<g id="Group_4">
<path id="Vector_30" d="M55.2292 39.7103C55.385 39.7103 55.5133 39.6553 55.6233 39.5451C55.7332 39.4349 55.7882 39.2972 55.7882 39.1504C55.7882 39.0035 55.7332 38.8658 55.6233 38.7556C55.5133 38.6455 55.3758 38.5904 55.2292 38.5904C55.0734 38.5904 54.9451 38.6455 54.8351 38.7556C54.7252 38.8658 54.6702 39.0035 54.6702 39.1504C54.6702 39.2972 54.7252 39.4349 54.8351 39.5451C54.9451 39.6553 55.0826 39.7103 55.2292 39.7103Z" fill="#353535"/>
<path id="Vector_31" d="M56.4847 39.7103C56.6405 39.7103 56.778 39.6553 56.8879 39.5451C56.9979 39.4349 57.0529 39.2972 57.0529 39.1504C57.0529 39.0035 56.9979 38.8658 56.8879 38.7556C56.778 38.6455 56.6405 38.5904 56.4847 38.5904C56.3289 38.5904 56.2006 38.6455 56.0906 38.7556C55.9806 38.8658 55.9257 39.0035 55.9257 39.1504C55.9257 39.2972 55.9806 39.4349 56.0906 39.5451C56.2006 39.6553 56.3381 39.7103 56.4847 39.7103Z" fill="#353535"/>
<path id="Vector_32" d="M59.8756 45.1172C59.7198 45.1172 59.5915 45.1723 59.4815 45.2825C59.3715 45.3926 59.3165 45.5303 59.3165 45.6772C59.3165 45.8241 59.3715 45.9618 59.4815 46.072C59.5915 46.1821 59.7289 46.2372 59.8756 46.2372C60.0314 46.2372 60.1597 46.1821 60.2696 46.072C60.3796 45.9618 60.4346 45.8241 60.4346 45.6772C60.4346 45.5303 60.3796 45.3926 60.2696 45.2825C60.1597 45.1723 60.0222 45.1172 59.8756 45.1172Z" fill="#353535"/>
<path id="Vector_33" d="M61.1311 45.1172C60.9753 45.1172 60.847 45.1723 60.737 45.2825C60.627 45.3926 60.572 45.5303 60.572 45.6772C60.572 45.8241 60.627 45.9618 60.737 46.072C60.847 46.1821 60.9844 46.2372 61.1311 46.2372C61.2869 46.2372 61.4243 46.1821 61.5343 46.072C61.6443 45.9618 61.6992 45.8241 61.6992 45.6772C61.6992 45.5303 61.6443 45.3926 61.5343 45.2825C61.4151 45.1723 61.2869 45.1172 61.1311 45.1172Z" fill="#353535"/>
<path id="Vector_34" d="M65.6308 39.0126C65.7866 39.0126 65.9241 38.9576 66.034 38.8474C66.144 38.7372 66.199 38.5996 66.199 38.4527C66.199 38.2966 66.144 38.1681 66.034 38.0579C65.9241 37.9478 65.7866 37.8927 65.6308 37.8927C65.475 37.8927 65.3467 37.9478 65.2367 38.0579C65.1268 38.1681 65.0718 38.3058 65.0718 38.4527C65.0718 38.6087 65.1268 38.7372 65.2367 38.8474C65.3467 38.9576 65.4842 39.0126 65.6308 39.0126Z" fill="#353535"/>
<path id="Vector_35" d="M66.8955 39.0126C67.0512 39.0126 67.1796 38.9576 67.2895 38.8474C67.3995 38.7372 67.4545 38.5996 67.4545 38.4527C67.4545 38.2966 67.3995 38.1681 67.2895 38.0579C67.1796 37.9478 67.0421 37.8927 66.8955 37.8927C66.7397 37.8927 66.6114 37.9478 66.5014 38.0579C66.3914 38.1681 66.3364 38.3058 66.3364 38.4527C66.3364 38.6087 66.3914 38.7372 66.5014 38.8474C66.6114 38.9576 66.7397 39.0126 66.8955 39.0126Z" fill="#353535"/>
<path id="Vector_36" d="M67.702 39.3707C67.033 39.3707 66.4739 39.4808 66.034 39.7011C65.5942 39.9215 65.2459 40.2152 65.026 40.5824C64.7968 40.9496 64.6869 41.3352 64.6869 41.7574C64.6869 42.1705 64.8335 42.5285 65.1268 42.8315C65.42 43.1344 65.7774 43.2813 66.199 43.2813C66.3731 43.2813 66.5472 43.2537 66.703 43.1987C66.6755 43.2629 66.6389 43.318 66.5931 43.3639C66.4831 43.4741 66.3456 43.5291 66.1898 43.5291H64.4303H64.2561H63.6605H63.4863H62.8906H62.7349C62.5791 43.5291 62.4508 43.4741 62.3408 43.3639C62.2308 43.2537 62.1758 43.116 62.1758 42.9692V40.5732C61.91 40.5732 61.6809 40.665 61.4977 40.8578C61.3144 41.0414 61.2135 41.2709 61.2135 41.5371V42.96C61.2135 43.116 61.1586 43.2446 61.0486 43.3547C60.9386 43.4649 60.8012 43.52 60.6545 43.52H59.7198H59.5456H58.9499H58.7758H58.1801H58.006H57.9419C57.7861 43.52 57.6578 43.4649 57.5478 43.3547C57.4378 43.2446 57.3828 43.1069 57.3828 42.96V40.206C56.6497 40.206 56.0448 40.3254 55.5499 40.5732C55.0551 40.8211 54.6885 41.1424 54.441 41.5371C54.1936 41.941 54.0653 42.3725 54.0653 42.8223C54.0653 43.2813 54.2303 43.6668 54.551 43.9881C54.8718 44.3186 55.2658 44.4747 55.7149 44.4747H56.6772C56.6772 44.2084 56.5855 43.979 56.3931 43.7954C56.2098 43.6118 55.9807 43.52 55.7149 43.52C55.5225 43.52 55.3575 43.4465 55.22 43.318C55.0826 43.1803 55.0184 43.0151 55.0184 42.8223C55.0184 42.0695 55.4766 41.5555 56.4022 41.2801V42.9508C56.4022 43.3731 56.5489 43.7311 56.8513 44.0249C57.1537 44.3278 57.5111 44.4747 57.9327 44.4747H57.9968H58.171H58.7667H58.9408H59.5365H59.7106H60.6454C61.0486 44.4747 61.3968 44.337 61.6809 44.0616C61.965 44.3278 62.3133 44.4655 62.7074 44.4747H62.7257H62.8815H63.4772H63.6513H64.247H64.4211H66.1807C66.6022 44.4747 66.9596 44.3278 67.2621 44.0249C67.5553 43.7311 67.702 43.3731 67.702 42.9508V39.3707ZM66.7397 41.7666C66.7397 41.9227 66.6847 42.0512 66.5747 42.1613C66.4648 42.2715 66.3365 42.3266 66.1807 42.3266C66.0249 42.3266 65.8966 42.2715 65.7866 42.1613C65.6766 42.0512 65.6216 41.9227 65.6216 41.7666C65.6216 41.5004 65.7133 41.2434 65.9149 40.9771C66.1074 40.7201 66.3823 40.5457 66.7305 40.4631V41.7666H66.7397Z" fill="#353535"/>
<path id="Vector_37" d="M69.1958 41.5371V43.5291C69.1958 44.1993 68.8659 44.695 68.2152 45.0163C67.7295 45.2641 67.4821 45.613 67.4821 46.0903V46.0995C68.2335 46.1087 68.8659 45.8608 69.3883 45.3651C69.9015 44.8694 70.1581 44.2543 70.1581 43.5291V40.5824C69.8923 40.5824 69.6632 40.6742 69.4799 40.867C69.2875 41.0506 69.1958 41.2801 69.1958 41.5371Z" fill="#353535"/>
<path id="Vector_38" d="M78.0852 38.9759V42.9784C78.0852 43.1344 78.0302 43.2629 77.9202 43.3731C77.8103 43.4833 77.6728 43.5383 77.517 43.5383H77.1321H76.958H76.3623H76.1882H75.5925H75.4184H75.4092C75.2442 43.5383 75.1159 43.4833 75.006 43.3731C74.896 43.2629 74.841 43.1344 74.841 42.9692C74.841 42.5469 74.731 42.1522 74.5019 41.7942C74.2728 41.4361 73.9337 41.1424 73.4847 40.9221C73.0356 40.6926 72.4766 40.5824 71.8167 40.5824V40.8762C71.8167 41.0414 71.8717 41.1975 71.9817 41.3352C72.0917 41.4729 72.2291 41.5647 72.4124 41.6014L72.779 41.684C73.1364 41.7666 73.4114 41.9319 73.6038 42.1889C73.7963 42.4367 73.8879 42.703 73.8879 42.9875C73.8787 43.1436 73.8237 43.2629 73.7229 43.3731C73.6221 43.4833 73.4938 43.5383 73.338 43.5383H71.8351C71.5693 43.5383 71.3402 43.6301 71.1569 43.8229C70.9736 44.0157 70.8728 44.236 70.8728 44.5022H73.3289C73.7138 44.5022 74.0437 44.3737 74.3278 44.1167C74.6027 44.3737 74.9326 44.5022 75.3175 44.5022H75.4092H75.5833H76.179H76.3531H76.9488H77.1229H77.5078C77.9294 44.5022 78.2868 44.3553 78.5893 44.0524C78.8825 43.7587 79.0291 43.4006 79.0291 42.9784V38.0212C78.7634 38.0212 78.5343 38.113 78.351 38.2966C78.1768 38.4802 78.0852 38.7097 78.0852 38.9759Z" fill="#353535"/>
<path id="Vector_39" d="M80.0831 38.9851V44.493C80.3489 44.493 80.578 44.4012 80.7613 44.2085C80.9446 44.0249 81.0362 43.7954 81.0362 43.5292V38.0212C80.7705 38.0212 80.5414 38.113 80.3581 38.2966C80.1748 38.4894 80.0831 38.7189 80.0831 38.9851Z" fill="#353535"/>
<path id="Vector_40" d="M86.3057 39.7103C86.4615 39.7103 86.599 39.6553 86.709 39.5451C86.8189 39.4349 86.8739 39.2972 86.8739 39.1504C86.8739 39.0035 86.8189 38.8658 86.709 38.7556C86.599 38.6455 86.4615 38.5904 86.3057 38.5904C86.1499 38.5904 86.0216 38.6455 85.9117 38.7556C85.8017 38.8658 85.7467 39.0035 85.7467 39.1504C85.7467 39.2972 85.8017 39.4349 85.9117 39.5451C86.0125 39.6553 86.1499 39.7103 86.3057 39.7103Z" fill="#353535"/>
<path id="Vector_41" d="M85.0502 39.7103C85.206 39.7103 85.3343 39.6553 85.4443 39.5451C85.5543 39.4349 85.6093 39.2972 85.6093 39.1504C85.6093 39.0035 85.5543 38.8658 85.4443 38.7556C85.3343 38.6455 85.1969 38.5904 85.0502 38.5904C84.8945 38.5904 84.7661 38.6455 84.6562 38.7556C84.5462 38.8658 84.4912 39.0035 84.4912 39.1504C84.4912 39.2972 84.5462 39.4349 84.6562 39.5451C84.757 39.6553 84.8945 39.7103 85.0502 39.7103Z" fill="#353535"/>
<path id="Vector_42" d="M84.2438 41.5463C83.9963 41.9502 83.868 42.3817 83.868 42.8315C83.868 43.2905 84.033 43.676 84.3537 43.9973C84.6745 44.3278 85.0686 44.4838 85.5176 44.4838C85.9759 44.4838 86.3608 44.3186 86.6907 43.9973C87.0114 43.676 87.1764 43.2813 87.1764 42.8315V40.2152C86.4432 40.2152 85.8384 40.3345 85.3435 40.5824C84.8486 40.8303 84.4912 41.1516 84.2438 41.5463ZM86.2141 42.8407C86.2141 43.0334 86.15 43.1987 86.0125 43.3364C85.8751 43.4741 85.7101 43.5383 85.5176 43.5383C85.3252 43.5383 85.1602 43.4649 85.0228 43.3364C84.8853 43.1987 84.8211 43.0334 84.8211 42.8407C84.8211 42.0879 85.2794 41.5738 86.205 41.2984V42.8407H86.2141Z" fill="#353535"/>
<path id="Vector_43" d="M96.8998 40.1418C97.0556 40.1418 97.1839 40.0867 97.2939 39.9766C97.4039 39.8664 97.4589 39.7379 97.4589 39.5818C97.4589 39.4258 97.4039 39.2973 97.2939 39.1871C97.1839 39.0769 97.0465 39.0219 96.8998 39.0219C96.7441 39.0219 96.6158 39.0769 96.5058 39.1871C96.3958 39.2973 96.3408 39.4349 96.3408 39.5818C96.3408 39.7379 96.3958 39.8664 96.5058 39.9766C96.6066 40.0867 96.7349 40.1418 96.8998 40.1418Z" fill="#353535"/>
<path id="Vector_44" d="M102.985 38.9759V42.9784C102.985 43.1344 102.93 43.2629 102.82 43.3731C102.71 43.4833 102.573 43.5383 102.417 43.5383H102.032H101.858H101.262H101.088H100.492H100.318H99.7224H99.5483H98.8976C99.1267 43.2813 99.2733 42.9508 99.3375 42.5469C99.3833 42.0971 99.255 41.6932 98.9434 41.3168C98.6318 40.9496 98.1736 40.7109 97.5504 40.6008C96.2124 40.4723 95.2135 40.9404 94.5536 42.0237C94.5261 42.1246 94.6361 42.3358 94.8836 42.6662C95.1035 42.9692 95.3876 43.2538 95.7084 43.5383H94.1504H93.9763H93.3806H93.2065H92.6108H92.4367H92.4275C92.2625 43.5383 92.1342 43.4833 92.0243 43.3731C91.9143 43.2629 91.8593 43.1344 91.8593 42.9692C91.8593 42.5469 91.7493 42.1522 91.5202 41.7942C91.2911 41.4361 90.952 41.1424 90.503 40.9221C90.0539 40.6926 89.4949 40.5824 88.835 40.5824V40.8762C88.835 41.0414 88.89 41.1975 89 41.3352C89.11 41.4729 89.2474 41.5647 89.4307 41.6014L89.7973 41.684C90.1547 41.7666 90.4297 41.9319 90.6221 42.1889C90.8146 42.4367 90.9062 42.703 90.9062 42.9875C90.897 43.1436 90.8421 43.2629 90.7412 43.3731C90.6404 43.4833 90.5121 43.5383 90.3563 43.5383H88.8534C88.5876 43.5383 88.3585 43.6301 88.1752 43.8229C87.9919 44.0157 87.8911 44.236 87.8911 44.5022H90.3472C90.7321 44.5022 91.062 44.3737 91.3461 44.1167C91.621 44.3737 91.951 44.5022 92.3359 44.5022H92.4275H92.6016H93.1973H93.3714H93.9671H94.1412H96.524C96.8539 44.5022 97.138 44.4563 97.3855 44.3829C97.7154 44.4655 97.9995 44.5022 98.2561 44.5022H99.5299H99.704H100.3H100.474H101.07H101.244H101.839H102.013H102.398C102.82 44.5022 103.177 44.3553 103.48 44.0524C103.773 43.7587 103.92 43.4006 103.92 42.9784V38.0212C103.654 38.0212 103.425 38.113 103.242 38.2966C103.077 38.4802 102.985 38.7097 102.985 38.9759ZM98.3844 42.4276C98.3202 42.758 98.1369 42.9875 97.8437 43.1069C97.5504 43.2354 97.2938 43.2813 97.0647 43.2538C97.028 43.2538 96.9272 43.2079 96.7806 43.1252C96.634 43.0426 96.4324 42.8866 96.1941 42.6662C95.9833 42.4643 95.8092 42.2715 95.6809 42.1063C96.1299 41.6748 96.6889 41.4912 97.358 41.5463C97.3763 41.5463 97.3946 41.5463 97.4221 41.5463C97.7612 41.6106 98.0178 41.7207 98.1736 41.8951C98.3294 42.0604 98.4027 42.244 98.3844 42.4276Z" fill="#353535"/>
<path id="Vector_45" d="M105.267 38.2967C105.084 38.4803 104.983 38.7098 104.983 38.976V44.4839C105.249 44.4839 105.478 44.3921 105.661 44.1993C105.844 44.0157 105.936 43.7862 105.936 43.52V38.0121C105.679 38.0213 105.459 38.1131 105.267 38.2967Z" fill="#353535"/>
</g>
<g id="Group_5">
<g id="Group_6">
<g id="Group_7">
<g id="Group_8">
<path id="Vector_46" d="M31.3743 9.87577C30.9894 10.7111 30.5953 11.574 30.1738 12.4002C29.8988 12.9418 29.5872 13.5294 29.2482 14.0801C29.0099 14.4749 28.7258 14.8237 28.4234 15.1909L28.3042 15.3378C27.9468 15.7692 27.3694 16.3109 26.8013 16.4945C26.3155 16.6597 25.9123 16.421 25.6557 16.1089C25.8298 15.9528 25.9948 15.7692 26.1322 15.5214C26.3155 15.1817 26.4163 14.8054 26.4163 14.4382L26.563 11.6016C26.563 10.3348 25.5366 9.3158 24.281 9.3158H23.7403C22.4756 9.3158 21.4584 10.3439 21.4584 11.6016V14.4382C21.4584 15.0532 21.715 15.6224 22.1732 16.063C22.0816 16.1456 21.9899 16.2282 21.9074 16.3109C21.7975 16.4118 21.4676 16.7056 20.8444 16.3292C20.377 16.0355 19.9921 15.5765 19.6438 15.1267C19.0023 14.2821 18.4891 13.3182 18.0217 12.4002C17.6002 11.574 17.2061 10.7111 16.8212 9.87577L16.7937 9.81151C16.1155 8.32438 15.4099 6.79134 14.5209 5.36846C12.1199 1.51292 9.59964 -0.185352 7.23522 0.448058C4.53171 1.17327 2.43306 4.84521 0.985079 11.3537C0.297748 14.4565 0.0411446 17.1462 0.215269 19.5881C0.334406 21.2496 0.618504 22.6174 1.09505 23.7833C1.55327 24.9032 2.62551 25.3989 3.57861 25.8304C4.91661 26.4454 5.41149 26.7575 5.32901 27.7031C5.27403 28.3273 4.76082 28.9791 4.26594 29.6125C3.56944 30.4937 2.78131 31.4852 3.01958 32.7061C4.27511 39.1687 9.04977 45.9434 14.8783 46.0903H15.0158C16.6929 46.0903 18.3517 45.31 19.708 43.9055C20.5053 43.0793 20.8535 42.3358 21.2568 41.4728C21.3209 41.3351 21.3851 41.1883 21.4584 41.0414C21.4584 41.1424 21.4584 41.2342 21.4584 41.3351C21.4584 41.5096 21.4584 41.6932 21.4492 41.8768C21.4401 42.3633 21.4309 42.8774 21.4859 43.3639C21.605 44.4288 22.6223 45.2917 23.7403 45.2917H24.281C25.5457 45.2917 26.563 44.2635 26.563 42.9967L26.5446 40.8762C26.5996 41.0047 26.6546 41.124 26.7096 41.2342C27.232 42.3358 27.8002 43.1803 28.4967 43.9055C29.8438 45.31 31.5118 46.0903 33.1889 46.0903H33.3263C39.1549 45.9434 43.9387 39.1687 45.1851 32.7061C45.4234 31.4852 44.6352 30.4846 43.9387 29.6033C43.4438 28.9699 42.9215 28.3181 42.8756 27.6939C42.7932 26.7484 43.2972 26.4271 44.626 25.8212C45.57 25.3897 46.6514 24.894 47.1096 23.7741C47.5862 22.6082 47.8703 21.2404 47.9894 19.5789C48.1544 17.137 47.9069 14.4473 47.2196 11.3446C45.7716 4.83603 43.6638 1.16409 40.9694 0.438879C38.605 -0.194532 36.0848 1.50374 33.6837 5.35928C32.7948 6.79134 32.0891 8.32438 31.411 9.80233L31.3743 9.87577ZM47.2929 19.5422C47.1829 21.1211 46.9172 22.4246 46.4681 23.517C46.1107 24.38 45.2492 24.7747 44.3419 25.197C43.1689 25.7386 42.06 26.2435 42.1883 27.7673C42.2616 28.6027 42.839 29.3371 43.4072 30.0439C44.067 30.8793 44.6902 31.6688 44.5161 32.5776C43.3155 38.774 38.7975 45.2549 33.3172 45.3926H33.198C31.7134 45.3926 30.2287 44.695 29.0099 43.419C28.3684 42.7488 27.8368 41.9594 27.3511 40.9312C27.2228 40.6558 27.0853 40.3254 26.9479 39.9857C26.8104 39.6552 26.6729 39.3156 26.5355 39.0126L25.8756 37.5898L25.8665 40.05C25.8756 40.1326 25.8665 40.1785 25.8665 40.2336C25.8665 40.2886 25.8573 40.3529 25.8573 40.4539L25.8848 42.9967C25.8848 43.878 25.17 44.594 24.2902 44.594H23.7495C22.9797 44.594 22.2649 43.9973 22.1824 43.2813C22.1274 42.8315 22.1366 42.3449 22.1457 41.8859C22.1457 41.7023 22.1549 41.5187 22.1549 41.3351C22.1549 40.8762 22.1549 40.4172 22.1549 39.9582L22.1641 37.5439L21.156 40.0683C20.9452 40.4722 20.7711 40.8394 20.6061 41.1791C20.212 42.0145 19.9004 42.6754 19.1856 43.419C17.9667 44.6858 16.4821 45.3926 14.9975 45.3926H14.8783C9.39802 45.2549 4.87996 38.7648 3.67942 32.5776C3.50529 31.6688 4.12848 30.8793 4.78831 30.0439C5.34734 29.3279 5.93387 28.5935 5.99802 27.7673C6.12632 26.2435 5.01743 25.7386 3.84438 25.197C2.9371 24.7839 2.07565 24.3891 1.71823 23.517C1.26918 22.4246 1.00341 21.1211 0.893435 19.5422C0.728476 17.1646 0.975914 14.5391 1.65408 11.5006C3.03791 5.2583 4.98077 1.76996 7.40934 1.11819C9.453 0.567396 11.6983 2.16469 13.9252 5.73566C14.7867 7.131 15.4832 8.63649 16.1522 10.1053L16.1797 10.1695C16.5646 11.0141 16.9678 11.877 17.3894 12.7215C17.8751 13.6671 18.4066 14.6677 19.0848 15.5489C19.4697 16.0538 19.9096 16.5679 20.4686 16.9167C21.1468 17.339 21.8341 17.3023 22.3565 16.8249C22.549 16.6505 22.7414 16.4669 22.9247 16.2833L23.2271 15.9896L22.8789 15.7509C22.5398 15.5214 22.1366 15.0991 22.1366 14.4382V11.6108C22.1366 10.7295 22.8514 10.0135 23.7312 10.0135H24.2719C25.1517 10.0135 25.8665 10.7295 25.8665 11.5924C25.7198 14.4198 25.7199 14.4198 25.7199 14.429C25.7199 14.6952 25.6557 14.9614 25.5274 15.1909C25.4083 15.402 25.2341 15.5581 25.0325 15.7325L24.7667 15.9712L24.9042 16.2191C25.2891 16.9167 26.0956 17.4767 27.0395 17.1554C27.9285 16.8525 28.6525 16.0263 28.8541 15.7784L28.9732 15.6407C29.294 15.2552 29.5872 14.888 29.853 14.4473C30.2013 13.8782 30.5128 13.2815 30.7969 12.7215C31.2277 11.8862 31.6217 11.0141 32.0066 10.1695L32.0341 10.1053C32.7031 8.64567 33.3996 7.131 34.2611 5.73566C36.4789 2.16469 38.7333 0.567396 40.777 1.11819C43.2056 1.76996 45.1484 5.26748 46.5322 11.5006C47.2013 14.5391 47.4487 17.1646 47.2929 19.5422Z" fill="#353535"/>
<path id="Vector_47" d="M33.1796 46.1454C31.4933 46.1454 29.8162 45.3651 28.4507 43.9422C27.7542 43.217 27.186 42.3633 26.6545 41.2617C26.6362 41.2158 26.6087 41.1607 26.5812 41.1148L26.5995 43.0059C26.5995 44.3002 25.5548 45.3467 24.2626 45.3467H23.7219C22.5763 45.3467 21.5407 44.4655 21.4216 43.3822C21.3666 42.8865 21.3758 42.3725 21.385 41.8859C21.385 41.7023 21.3941 41.5279 21.3941 41.3535V41.2709C21.3575 41.3351 21.33 41.4086 21.3025 41.4728L21.2841 41.5187C20.8809 42.3816 20.5235 43.1252 19.7262 43.9606C18.3699 45.3743 16.6928 46.1637 14.9974 46.1637H14.8599C9.00383 46.0169 4.21083 39.2238 2.95531 32.7428C2.71703 31.5035 3.50517 30.4937 4.21083 29.6125C4.70571 28.9882 5.21892 28.3365 5.26474 27.7306C5.33806 26.8126 4.85234 26.5005 3.54183 25.9038C2.58873 25.4632 1.50733 24.9766 1.03995 23.8292C0.563395 22.6633 0.270133 21.2863 0.16016 19.6156C-0.00479919 17.1738 0.24264 14.4749 0.939136 11.3629C2.39628 4.83602 4.5041 1.1549 7.22593 0.420512C9.61784 -0.222078 12.1472 1.48537 14.5575 5.35928C15.4464 6.79133 16.1521 8.32437 16.8302 9.81151L16.8577 9.87577C17.2151 10.6652 17.6275 11.5649 18.0583 12.391C18.5257 13.309 19.0389 14.2729 19.6804 15.1083C20.0195 15.5581 20.4044 16.0171 20.8626 16.3017C21.4491 16.6689 21.7607 16.3843 21.8615 16.2925C21.944 16.219 22.0173 16.1456 22.0906 16.0814C21.6324 15.6315 21.3941 15.0807 21.3941 14.4657V11.6108C21.3941 10.3256 22.4389 9.2699 23.731 9.2699H24.2717C25.5548 9.2699 26.6087 10.3164 26.6087 11.6108L26.462 14.4473C26.462 14.8237 26.3612 15.2093 26.1779 15.5489C26.0405 15.7968 25.8755 15.9712 25.7289 16.1089C25.8938 16.2925 26.2696 16.623 26.8011 16.4485C27.3602 16.2558 27.9283 15.7325 28.2766 15.3011L28.3957 15.1542C28.6982 14.787 28.9823 14.4382 29.2205 14.0526C29.5596 13.5018 29.862 12.9235 30.137 12.3727C30.5677 11.5373 30.9709 10.6469 31.3375 9.85741L31.365 9.79315C32.0432 8.30601 32.7488 6.77297 33.6378 5.34092C36.048 1.46702 38.5866 -0.240439 40.9693 0.402152C43.6912 1.13654 45.8081 4.81766 47.2561 11.3445C47.9434 14.4473 48.2001 17.1462 48.0351 19.5972C47.916 21.2588 47.6319 22.6358 47.1553 23.8016C46.6879 24.9399 45.6065 25.4356 44.6534 25.8763C43.3429 26.473 42.848 26.7942 42.9305 27.7031C42.9855 28.3089 43.4895 28.9607 43.9844 29.5849C44.6901 30.4754 45.4782 31.476 45.2399 32.7244C43.9844 39.2054 39.1823 45.9985 33.3354 46.1454H33.1796ZM26.4895 40.6375L26.5812 40.8578C26.6362 40.9863 26.6912 41.1056 26.7461 41.2158C27.2685 42.3082 27.8367 43.1528 28.524 43.878C29.862 45.2733 31.5208 46.0444 33.1796 46.0444H33.317C39.1181 45.8975 43.8836 39.1412 45.13 32.6969C45.3591 31.4943 44.5801 30.5121 43.8928 29.64C43.3887 29.0066 42.8664 28.3456 42.8114 27.7031C42.7289 26.73 43.2329 26.3995 44.5893 25.7753C45.524 25.3438 46.5963 24.8573 47.0453 23.7557C47.5219 22.5991 47.806 21.2313 47.9159 19.5789C48.0809 17.1462 47.8335 14.4565 47.1461 11.3537C45.6982 4.86356 43.6087 1.2008 40.9235 0.484771C38.5774 -0.148639 36.0755 1.54964 33.6928 5.38682C32.8038 6.80969 32.1073 8.34273 31.4292 9.82987L31.4017 9.90331C31.0443 10.6928 30.6319 11.5924 30.2011 12.4278C29.917 12.9786 29.6146 13.5569 29.2755 14.1169C29.0372 14.5116 28.744 14.8604 28.4416 15.2276L28.3224 15.3745C27.965 15.8151 27.3785 16.3567 26.8011 16.5495C26.1871 16.7607 25.7564 16.3384 25.6006 16.1456L25.5731 16.1089L25.6098 16.0814C25.7655 15.9437 25.9397 15.7601 26.0771 15.5122C26.2513 15.1909 26.3521 14.8145 26.3521 14.4565L26.4987 11.6199C26.4987 10.3898 25.4906 9.38006 24.2626 9.38006H23.7219C22.4847 9.38006 21.4858 10.3898 21.4858 11.6199V14.4565C21.4858 15.0624 21.7332 15.6132 22.1914 16.0446L22.2281 16.0814L22.1914 16.1181C22.0998 16.2007 22.0081 16.2833 21.9165 16.3659C21.7974 16.4669 21.4491 16.7882 20.7984 16.3843C20.3219 16.0905 19.937 15.6224 19.5887 15.1725C18.9472 14.328 18.434 13.3641 17.9575 12.4369C17.5267 11.6016 17.1235 10.702 16.7569 9.91249L16.7294 9.84823C16.0513 8.37027 15.3456 6.83723 14.4658 5.40517C12.0831 1.56799 9.58118 -0.1211 7.23509 0.503131C4.54992 1.22834 2.46043 4.88192 1.01245 11.3721C0.325119 14.4657 0.0685156 17.1646 0.24264 19.5972C0.352613 21.2496 0.645875 22.6174 1.12242 23.7741C1.58065 24.8757 2.64372 25.3622 3.57849 25.7936C4.93482 26.4179 5.43887 26.7392 5.35639 27.7214C5.3014 28.3548 4.77903 29.0158 4.27498 29.6584C3.58765 30.5304 2.80868 31.5127 3.03779 32.7153C4.28415 39.1595 9.04965 45.9159 14.8507 46.0628H14.9882C16.6469 46.0628 18.3057 45.2917 19.6437 43.8963C20.4319 43.0701 20.7801 42.3358 21.1833 41.482L21.2017 41.4361C21.2567 41.3076 21.3208 41.1791 21.385 41.0506L21.4766 40.867V41.3627C21.4766 41.5371 21.4766 41.7207 21.4674 41.8951C21.4583 42.3816 21.4491 42.8865 21.5041 43.3822C21.6232 44.4196 22.613 45.2641 23.7127 45.2641H24.2534C25.4906 45.2641 26.4895 44.2543 26.4895 43.0151V40.6375ZM33.1796 45.4477C31.6858 45.4477 30.1828 44.7409 28.9548 43.4649C28.3133 42.7947 27.7817 41.9961 27.2868 40.9679C27.1585 40.6926 27.0211 40.3713 26.8836 40.0224V40.0132C26.7461 39.6828 26.6087 39.3431 26.4712 39.0402L25.903 37.8101L25.8938 40.0591C25.903 40.1418 25.8938 40.1877 25.8938 40.2427C25.8847 40.307 25.8847 40.3713 25.8847 40.4631L25.9122 43.0059C25.9122 43.9147 25.179 44.6491 24.2717 44.6491H23.731C22.9429 44.6491 22.2006 44.034 22.1181 43.2996C22.0631 42.8498 22.0723 42.3633 22.0815 41.8951C22.0815 41.7115 22.0906 41.5279 22.0906 41.3443C22.0906 40.8853 22.0906 40.4263 22.0906 39.9673L22.0998 37.8101L21.1925 40.0959C20.9726 40.509 20.7984 40.8762 20.6426 41.2066C20.2486 42.0512 19.937 42.7121 19.213 43.4649C17.985 44.7409 16.482 45.4477 14.9882 45.4477H14.8691C9.36124 45.31 4.83401 38.8015 3.62431 32.5959C3.44102 31.6687 4.07337 30.8701 4.74237 30.0256C5.3014 29.3187 5.87876 28.5935 5.94291 27.7673C6.07121 26.2802 4.97148 25.7753 3.81676 25.2429C2.90032 24.8206 2.0297 24.4258 1.66312 23.5446C1.21407 22.443 0.939135 21.1395 0.829162 19.5513C0.664202 17.1738 0.911643 14.5391 1.58981 11.5006C2.9828 5.23994 4.92566 1.73323 7.38172 1.08146C9.44372 0.53067 11.7165 2.12796 13.9434 5.71729C14.8141 7.11263 15.5014 8.62731 16.1704 10.0869L16.1979 10.1512C16.5828 10.9865 16.9769 11.8586 17.4076 12.694C17.8933 13.6395 18.4248 14.6309 19.0938 15.5122C19.4788 16.0171 19.9095 16.5312 20.4685 16.8708C21.1283 17.2747 21.7973 17.2472 22.3014 16.7882C22.4938 16.6138 22.6863 16.4302 22.8696 16.2466L23.1262 15.9896L22.8238 15.7876C22.4755 15.5489 22.0631 15.1175 22.0631 14.4382V11.6108C22.0631 10.702 22.7963 9.96757 23.7036 9.96757H24.2443C25.1515 9.96757 25.8847 10.6928 25.8847 11.5924C25.7472 14.3096 25.7381 14.4198 25.7381 14.429C25.7381 14.7044 25.6647 14.9798 25.5364 15.2184C25.4173 15.4388 25.234 15.5948 25.0324 15.7784L24.7941 15.9896L24.9133 16.2007C25.289 16.88 26.0771 17.4216 26.9936 17.1187C27.8642 16.8249 28.5882 15.9987 28.7898 15.7509L28.9089 15.604C29.2205 15.2184 29.523 14.8604 29.7796 14.429C30.1278 13.8506 30.4394 13.2631 30.7235 12.7032C31.1542 11.8678 31.5483 10.9957 31.9332 10.1603L31.9607 10.0961C32.6297 8.63649 33.3262 7.12181 34.1876 5.72647C36.4238 2.13714 38.6874 0.53067 40.7494 1.09064C43.1963 1.75159 45.1483 5.2583 46.5413 11.5098C47.2194 14.5483 47.4669 17.1829 47.3019 19.5605C47.192 21.1486 46.917 22.4522 46.468 23.5538C46.1014 24.435 45.2399 24.8389 44.3143 25.252C43.1596 25.7845 42.0599 26.2802 42.1882 27.7765C42.2615 28.5935 42.8389 29.3279 43.3887 30.0347C44.0577 30.8793 44.6809 31.6779 44.5068 32.6051C43.3062 38.8199 38.7699 45.3192 33.262 45.4661L33.1796 45.4477ZM25.8114 37.3694L26.5628 38.9851C26.7003 39.288 26.8378 39.6277 26.9752 39.9673V39.9765C27.1127 40.3162 27.241 40.6467 27.3693 40.9129C27.8642 41.941 28.3866 42.7213 29.0189 43.3914C30.2286 44.6491 31.7041 45.3467 33.1704 45.3467H33.2895C38.7424 45.209 43.2421 38.7372 44.4426 32.5684C44.6168 31.6779 43.9936 30.8976 43.3429 30.0715C42.7747 29.3554 42.1882 28.6119 42.1149 27.7673C41.9866 26.2067 43.1046 25.6927 44.296 25.1511C45.1941 24.738 46.0464 24.3524 46.3947 23.4987C46.8437 22.4063 47.1095 21.1119 47.2195 19.533C47.3844 17.1646 47.137 14.5391 46.4588 11.5098C45.075 5.29502 43.1504 1.80667 40.7402 1.16408C38.724 0.622468 36.4879 2.21059 34.2793 5.75401C33.4178 7.14935 32.7213 8.65485 32.0523 10.1144L32.0248 10.1787C31.6399 11.0232 31.2459 11.8862 30.8151 12.7307C30.531 13.2907 30.2195 13.8782 29.8712 14.4565C29.6054 14.8972 29.303 15.2552 28.9914 15.6407L28.8723 15.7876C28.6707 16.0355 27.9284 16.88 27.0302 17.1829C26.0588 17.5134 25.234 16.9351 24.8399 16.2282L24.6841 15.9528L24.9866 15.6866C25.1882 15.5122 25.3623 15.3653 25.4723 15.1542C25.6006 14.9247 25.6647 14.6677 25.6647 14.4106C25.6647 14.4014 25.6647 14.4014 25.8114 11.574C25.8114 10.7387 25.1149 10.0502 24.2717 10.0502H23.731C22.8788 10.0502 22.1914 10.7479 22.1914 11.5924V14.429C22.1914 15.0716 22.5855 15.4755 22.9154 15.6958L23.3095 15.9712L22.9704 16.3108C22.7779 16.4944 22.5855 16.678 22.393 16.8525C21.8523 17.3482 21.1375 17.3757 20.441 16.9443C19.8728 16.5862 19.4329 16.0722 19.0389 15.5581C18.3607 14.6677 17.8292 13.667 17.3434 12.7215C16.9127 11.877 16.5186 11.0141 16.1337 10.1695L16.1062 10.1053C15.4372 8.64567 14.7499 7.13099 13.8793 5.74483C11.6707 2.2014 9.44372 0.613289 7.41838 1.1549C5.00814 1.80667 3.08361 5.28584 1.69978 11.5006C1.03078 14.53 0.783341 17.1554 0.939136 19.5238C1.04911 21.1027 1.31488 22.3971 1.76393 23.4895C2.11218 24.334 2.96447 24.7288 3.86259 25.1419C5.05396 25.6835 6.18118 26.1976 6.04372 27.7581C5.9704 28.6027 5.38388 29.3462 4.81568 30.0623C4.16501 30.8885 3.54183 31.6688 3.71595 32.5592C4.92566 38.7372 9.42539 45.209 14.8782 45.3467H14.9974C16.4637 45.3467 17.9391 44.6491 19.1488 43.3914C19.8545 42.6479 20.1661 41.9961 20.5602 41.1607C20.716 40.8303 20.8901 40.4539 21.11 40.05L22.2006 37.296L22.1914 39.9582C22.1914 40.4172 22.1823 40.8761 22.1914 41.3351C22.1914 41.5187 22.1914 41.7023 22.1823 41.8859C22.1731 42.3541 22.1639 42.8315 22.2189 43.2813C22.3014 43.9698 22.9887 44.5481 23.7402 44.5481H24.2809C25.1332 44.5481 25.8205 43.8504 25.8205 43.0059L25.793 40.4631C25.793 40.3621 25.793 40.307 25.8022 40.2427C25.8022 40.1877 25.8114 40.1418 25.8022 40.0591L25.8114 37.3694Z" fill="#353535"/>
</g>
<g id="Group_9">
<path id="Vector_48" d="M24.2626 36.9839H23.7402C22.5305 36.9839 21.5408 36.0017 21.5408 34.7808V32.0635C21.5408 30.8518 22.5214 29.8604 23.7402 29.8604H24.2626C25.4723 29.8604 26.4621 30.8426 26.4621 32.0635V34.7808C26.4621 36.0017 25.4723 36.9839 24.2626 36.9839ZM23.7402 30.5397C22.8971 30.5397 22.2098 31.2282 22.2098 32.0727V34.7899C22.2098 35.6345 22.8971 36.323 23.7402 36.323H24.2626C25.1057 36.323 25.7931 35.6345 25.7931 34.7899V32.0727C25.7931 31.2282 25.1057 30.5397 24.2626 30.5397H23.7402Z" fill="#353535"/>
<path id="Vector_49" d="M24.2626 27.8407H23.7402C22.5305 27.8407 21.5408 26.8585 21.5408 25.6376V22.9203C21.5408 21.7086 22.5214 20.7172 23.7402 20.7172H24.2626C25.4723 20.7172 26.4621 21.6994 26.4621 22.9203V25.6376C26.4621 26.8585 25.4723 27.8407 24.2626 27.8407ZM23.7402 21.3965C22.8971 21.3965 22.2098 22.085 22.2098 22.9295V25.6467C22.2098 26.4913 22.8971 27.1798 23.7402 27.1798H24.2626C25.1057 27.1798 25.7931 26.4913 25.7931 25.6467V22.9295C25.7931 22.085 25.1057 21.3965 24.2626 21.3965H23.7402Z" fill="#353535"/>
<path id="Vector_50" d="M24.336 16.0171H23.667V23.4161H24.336V16.0171Z" fill="#353535"/>
<path id="Vector_51" d="M24.336 25.3071H23.667V32.7061H24.336V25.3071Z" fill="#353535"/>
<path id="Vector_52" d="M24.336 34.5971H23.667V41.9961H24.336V34.5971Z" fill="#353535"/>
</g>
</g>
</g>
</g>
</g>
</svg>
