<svg width="25" height="25" viewBox="0 0 25 25" fill="none" xmlns="http://www.w3.org/2000/svg">
<path fill-rule="evenodd" clip-rule="evenodd" d="M7.19674 3.30934C8.85573 2.97116 10.6414 2.7876 12.5 2.7876C14.3586 2.7876 16.1443 2.97116 17.8032 3.30934L17.9305 3.33526C19.8251 3.72089 21.0875 3.97784 22.1754 5.37652C23.2516 6.76018 23.251 8.3648 23.25 10.85V13.2252C23.251 15.7104 23.2516 17.315 22.1754 18.6987C21.0875 20.0974 19.8251 20.3543 17.9305 20.7399L17.8032 20.7659C16.1443 21.104 14.3586 21.2876 12.5 21.2876C10.6414 21.2876 8.85573 21.104 7.19674 20.7659L7.06946 20.7399C5.17483 20.3543 3.91243 20.0974 2.82458 18.6987C1.7484 17.315 1.749 15.7104 1.74993 13.2252V10.85C1.749 8.3648 1.7484 6.76018 2.82458 5.37652C3.91243 3.97784 5.17483 3.72089 7.06946 3.33526L7.19674 3.30934ZM11.7945 8.28984C12.313 8.50746 12.9429 8.85923 13.713 9.28933C13.8144 9.34594 13.9163 9.40218 14.0183 9.45848C14.5217 9.73638 15.028 10.0159 15.4949 10.3516C15.9145 10.6533 16.3126 11.0272 16.4444 11.5725C16.5184 11.8786 16.5184 12.1966 16.4444 12.5027C16.3126 13.048 15.9145 13.4219 15.4949 13.7236C15.028 14.0593 14.5216 14.3389 14.0182 14.6168C13.9162 14.6731 13.8144 14.7293 13.713 14.7859C12.9429 15.216 12.3131 15.5677 11.7945 15.7854C10.9515 16.1391 10.0576 16.1678 9.32288 15.5658C8.86304 15.189 8.70049 14.6495 8.62917 14.1059C8.45682 12.792 8.45674 11.2838 8.62917 9.96932C8.70049 9.42566 8.86304 8.88618 9.32288 8.50941C10.0576 7.90743 10.9515 7.93605 11.7945 8.28984Z" fill="#4E2A84"/>
</svg>
